{"glyphs":{"0":{"ha":867,"x_min":54,"x_max":813,"o":"m 443 722 q 531 722 443 722 q 716 624 619 722 q 813 369 813 525 q 706 99 813 213 q 424 -14 600 -14 q 151 85 247 -14 q 54 339 54 183 q 160 608 54 494 q 443 722 267 722 m 444 113 q 492 113 444 113 q 584 181 539 113 q 629 359 629 249 q 572 533 629 469 q 422 596 515 596 q 283 528 328 596 q 238 349 238 460 q 294 176 238 239 q 444 113 350 113 z "},"1":{"ha":508,"x_min":46,"x_max":482,"o":"m 351 708 l 351 174 q 358 132 351 143 q 385 119 364 121 l 482 110 l 482 0 l 47 0 l 47 110 l 151 119 q 178 132 172 121 q 185 174 185 143 l 185 543 l 46 481 l 46 618 l 222 708 l 351 708 z "},"2":{"ha":622,"x_min":24,"x_max":575,"o":"m 571 139 l 571 0 l 24 0 l 24 29 q 47 162 24 114 q 108 242 69 210 q 228 319 146 274 q 354 406 311 365 q 397 494 397 446 q 372 571 397 543 q 302 599 346 599 q 192 582 258 599 l 171 483 l 60 483 l 43 679 q 316 722 189 722 q 509 665 443 722 q 575 510 575 607 q 510 350 575 414 q 341 238 446 286 q 232 139 236 190 l 571 139 z "},"3":{"ha":622,"x_min":7,"x_max":588,"o":"m 149 194 l 142 311 q 314 386 244 331 q 360 442 340 407 q 379 518 379 478 q 354 585 379 558 q 280 613 329 613 q 172 599 231 613 l 156 506 l 44 506 l 33 690 q 315 722 200 722 q 493 663 431 722 q 556 517 556 604 q 372 286 556 364 q 533 206 479 260 q 588 51 588 153 q 500 -158 588 -74 q 276 -242 413 -242 q 7 -179 139 -242 l 39 -72 q 142 -97 65 -82 q 256 -111 218 -111 q 370 -62 329 -111 q 411 46 411 -12 q 375 140 411 104 q 274 182 339 175 l 149 194 z "},"4":{"ha":732,"x_min":13,"x_max":707,"o":"m 707 139 l 707 0 l 608 0 l 608 -228 l 442 -228 l 442 0 l 89 0 l 13 139 l 417 736 l 525 624 l 213 139 l 442 139 l 442 347 l 608 347 l 608 139 l 707 139 z "},"5":{"ha":636,"x_min":8,"x_max":594,"o":"m 565 708 l 565 571 l 258 571 l 238 361 l 349 346 q 594 79 594 313 q 501 -154 594 -67 q 273 -242 408 -242 q 8 -179 138 -242 l 36 -72 q 138 -97 65 -82 q 243 -111 211 -111 q 367 -62 322 -111 q 411 60 411 -12 q 374 169 411 133 q 247 218 336 204 l 72 244 l 108 708 l 565 708 z "},"6":{"ha":761,"x_min":54,"x_max":717,"o":"m 640 519 q 678 477 640 519 q 717 293 717 435 q 624 69 717 151 q 370 -14 531 -14 q 132 92 210 -14 q 54 371 54 199 q 226 834 54 654 q 649 1014 399 1014 l 649 896 q 383 783 494 889 q 247 542 271 678 q 421 603 308 603 q 640 519 563 603 m 539 296 q 394 465 539 465 q 317 449 351 465 q 268 413 282 433 q 242 291 242 371 q 284 163 243 211 q 397 115 325 115 q 504 168 469 115 q 539 296 539 221 z "},"7":{"ha":626,"x_min":18,"x_max":624,"o":"m 204 -253 l 56 -162 q 284 249 158 14 q 429 558 410 483 l 207 558 q 167 552 178 558 q 154 521 156 546 l 146 442 l 31 442 l 18 700 l 624 700 l 624 663 q 585 518 624 599 l 204 -253 z "},"8":{"ha":714,"x_min":42,"x_max":672,"o":"m 254 526 l 376 479 q 311 433 331 447 q 264 389 292 418 q 215 251 215 338 q 261 151 215 190 q 376 111 307 111 q 497 236 497 111 q 459 356 497 310 q 309 470 421 401 q 137 603 197 539 q 76 757 76 667 q 158 951 76 888 q 366 1014 240 1014 q 565 953 492 1014 q 638 788 638 893 q 622 692 638 722 q 600 649 607 663 q 571 612 593 635 q 541 581 549 589 q 502 548 533 574 q 463 515 471 522 l 338 560 q 413 633 392 611 q 453 697 433 656 q 474 790 474 739 q 436 867 474 842 q 345 892 399 892 q 268 866 292 892 q 244 790 244 840 q 272 698 244 739 q 337 628 300 657 q 456 546 374 600 q 626 412 581 468 q 672 241 672 356 q 581 56 672 126 q 347 -14 489 -14 q 124 49 206 -14 q 42 243 42 111 q 83 381 42 317 q 254 526 118 435 z "},"9":{"ha":736,"x_min":38,"x_max":694,"o":"m 335 90 q 118 176 199 90 q 38 410 38 263 q 125 640 38 557 q 367 722 213 722 q 608 621 522 722 q 694 340 694 519 q 620 1 694 160 q 412 -252 546 -157 q 114 -347 278 -347 l 93 -222 q 359 -110 235 -222 q 504 158 483 3 q 335 90 446 90 m 214 392 q 360 231 214 231 q 442 247 406 231 q 492 283 479 264 q 510 402 510 317 q 469 540 510 488 q 353 592 429 592 q 214 392 214 592 z "}," ":{"ha":356,"x_min":0,"x_max":0,"o":""},"!":{"ha":453,"x_min":118,"x_max":335,"o":"m 157 274 l 128 1000 l 321 1000 l 290 274 l 157 274 m 335 78 q 225 -14 335 -14 q 144 6 171 -14 q 118 78 118 26 q 142 156 118 131 q 231 182 167 182 q 315 157 294 182 q 335 78 335 132 z "},"\"":{"ha":529,"x_min":50,"x_max":479,"o":"m 213 1036 l 186 725 l 78 725 l 51 1036 l 51 1044 q 70 1090 51 1076 q 135 1104 89 1104 q 213 1044 213 1104 q 213 1036 213 1040 m 478 1036 l 451 725 l 343 725 l 317 1036 q 317 1044 317 1039 q 337 1090 317 1076 q 407 1104 357 1104 q 478 1044 478 1104 q 478 1036 478 1040 z "},"#":{"ha":822,"x_min":39,"x_max":788,"o":"m 279 7 l 135 7 l 272 797 l 417 797 l 279 7 m 39 193 l 39 328 l 749 328 l 749 193 l 39 193 m 78 483 l 78 617 l 788 617 l 788 483 l 78 483 m 561 7 l 417 7 l 554 797 l 699 797 l 561 7 z "},"$":{"ha":788,"x_min":57,"x_max":735,"o":"m 442 917 l 300 917 l 292 1108 l 450 1108 l 442 917 m 213 293 l 74 293 l 57 63 q 147 33 115 42 q 360 6 246 6 q 637 82 539 6 q 735 283 735 158 q 657 472 735 408 q 486 560 592 524 l 365 600 q 274 647 300 622 q 247 717 247 672 q 374 824 247 824 q 517 796 446 824 l 538 693 l 672 693 l 692 915 q 379 953 525 953 q 149 883 233 953 q 64 708 64 814 q 116 538 64 603 q 257 443 168 474 l 419 386 q 529 331 503 357 q 556 253 556 306 q 509 169 556 200 q 383 139 463 139 q 231 174 304 139 l 213 293 m 304 22 l 446 22 l 454 -169 l 296 -169 l 304 22 z "},"%":{"ha":990,"x_min":46,"x_max":944,"o":"m 301 -51 l 190 18 l 694 849 l 803 778 l 301 -51 m 944 171 q 944 130 944 171 q 884 38 944 89 q 737 -14 824 -14 q 598 38 650 -14 q 546 169 546 90 q 601 306 546 249 q 749 364 656 364 q 893 308 842 364 q 944 171 944 253 m 818 183 q 795 235 818 214 q 735 256 772 256 q 672 172 672 256 q 694 113 672 136 q 751 90 717 90 q 818 183 818 90 m 444 618 q 444 577 444 618 q 384 485 444 536 q 237 433 324 433 q 98 485 150 433 q 46 617 46 538 q 101 753 46 696 q 249 811 156 811 q 393 756 342 811 q 444 618 444 700 m 318 631 q 295 682 318 661 q 235 703 272 703 q 172 619 172 703 q 194 560 172 583 q 251 538 217 538 q 318 631 318 538 z "},"&":{"ha":1024,"x_min":54,"x_max":1007,"o":"m 858 400 l 907 292 l 813 219 l 832 197 q 944 129 890 129 q 1007 140 978 129 l 993 14 q 892 -14 943 -14 q 803 7 842 -14 q 744 49 765 28 q 678 122 724 69 q 335 -15 490 -15 q 197 10 256 -15 q 110 75 139 35 q 54 239 54 154 q 81 375 54 324 q 161 472 108 426 l 296 588 q 260 635 285 603 q 224 682 235 667 q 200 722 214 697 q 175 813 175 769 q 188 888 175 857 q 231 947 201 918 q 448 1014 294 1014 q 738 944 601 1014 l 713 749 l 574 749 l 574 861 q 439 894 522 894 q 384 875 404 894 q 364 831 364 856 q 372 783 364 806 q 389 743 381 760 q 418 699 397 726 q 448 661 439 672 q 483 622 457 650 q 511 589 508 593 l 733 317 l 858 400 m 589 224 l 388 468 l 324 406 q 285 365 297 379 q 262 323 274 351 q 250 251 250 294 q 285 169 250 207 q 378 132 319 132 q 496 164 436 132 q 589 224 556 196 z "},"'":{"ha":250,"x_min":47,"x_max":203,"o":"m 201 1036 l 176 732 l 74 732 l 49 1036 q 49 1046 49 1042 q 65 1091 49 1078 q 119 1104 82 1104 q 172 1097 156 1104 q 201 1046 201 1085 q 201 1036 201 1040 z "},"(":{"ha":468,"x_min":76,"x_max":438,"o":"m 438 -221 l 350 -299 q 160 1 243 -187 q 76 400 76 190 q 159 797 76 610 q 350 1097 242 985 l 438 1014 q 298 706 342 876 q 254 397 254 536 q 298 88 254 258 q 438 -221 342 -83 z "},")":{"ha":468,"x_min":31,"x_max":392,"o":"m 118 -299 l 31 -221 q 170 88 126 -83 q 214 397 214 258 q 170 706 214 536 q 31 1014 126 876 l 118 1097 q 309 797 226 985 q 392 400 392 610 q 308 1 392 190 q 118 -299 225 -187 z "},"*":{"ha":533,"x_min":25,"x_max":493,"o":"m 181 881 l 99 900 q 51 956 51 911 q 64 999 51 976 l 86 1038 l 226 940 l 206 1024 l 203 1044 q 223 1088 203 1072 q 274 1104 243 1104 l 319 1104 l 304 938 l 365 994 q 416 1013 385 1013 q 469 975 447 1013 l 493 936 l 340 865 l 419 840 q 468 782 468 825 q 454 740 468 761 l 432 703 l 292 801 l 313 717 q 315 687 315 706 q 295 653 315 668 q 244 638 275 638 l 199 638 l 214 804 l 154 747 q 103 728 133 728 q 50 765 72 728 l 25 804 l 181 881 z "},"+":{"ha":722,"x_min":54,"x_max":668,"o":"m 432 14 l 282 14 l 282 264 l 54 264 l 54 408 l 282 408 l 282 653 l 432 653 l 432 408 l 668 408 l 668 264 l 432 264 l 432 14 z "},",":{"ha":354,"x_min":60,"x_max":294,"o":"m 294 67 q 244 -85 294 -8 q 117 -204 194 -162 l 60 -144 q 167 -8 157 -86 q 131 -14 156 -14 q 83 12 106 -14 q 60 82 60 38 q 165 188 60 188 q 294 67 294 188 z "},"-":{"ha":544,"x_min":74,"x_max":471,"o":"m 74 281 l 74 426 l 471 426 l 471 281 l 74 281 z "},".":{"ha":349,"x_min":60,"x_max":289,"o":"m 180 201 q 215 201 180 201 q 269 174 250 201 q 289 90 289 147 q 260 10 289 33 q 174 -14 232 -14 q 88 8 115 -14 q 60 88 60 29 q 85 174 60 146 q 180 201 110 201 z "},"/":{"ha":604,"x_min":3,"x_max":586,"o":"m 425 1000 l 586 1000 l 164 -200 l 3 -200 l 425 1000 z "},":":{"ha":349,"x_min":60,"x_max":289,"o":"m 180 201 q 215 201 180 201 q 269 174 250 201 q 289 90 289 147 q 260 10 289 33 q 174 -14 232 -14 q 88 8 115 -14 q 60 88 60 29 q 85 174 60 146 q 180 201 110 201 m 180 688 q 215 688 180 688 q 269 660 250 688 q 289 576 289 633 q 260 496 289 519 q 174 472 232 472 q 88 494 115 472 q 60 574 60 515 q 85 660 60 632 q 180 688 110 688 z "},";":{"ha":343,"x_min":58,"x_max":288,"o":"m 286 67 q 238 -85 286 -8 q 115 -204 190 -162 l 58 -144 q 165 -8 156 -86 q 129 -14 154 -14 q 81 12 104 -14 q 58 82 58 38 q 164 188 58 188 q 286 67 286 188 m 178 688 q 214 688 178 688 q 268 660 249 688 q 288 576 288 633 q 259 496 288 519 q 172 472 231 472 q 86 494 114 472 q 58 574 58 515 q 83 660 58 632 q 178 688 108 688 z "},"<":{"ha":765,"x_min":57,"x_max":699,"o":"m 57 338 l 626 703 l 697 593 l 296 338 l 699 83 l 626 -28 l 57 338 z "},"=":{"ha":761,"x_min":82,"x_max":679,"o":"m 82 397 l 82 536 l 679 536 l 679 397 l 82 397 m 82 115 l 82 254 l 679 254 l 679 115 l 82 115 z "},">":{"ha":765,"x_min":67,"x_max":708,"o":"m 139 703 l 708 338 l 139 -28 l 67 83 l 469 338 l 68 593 l 139 703 z "},"?":{"ha":646,"x_min":82,"x_max":636,"o":"m 467 801 q 354 904 467 904 q 228 875 293 904 l 214 786 l 97 786 l 82 976 q 359 1021 221 1021 q 567 960 497 1021 q 636 809 636 899 q 606 660 636 719 q 533 567 576 600 q 447 508 490 535 q 372 449 404 482 q 336 374 339 417 l 329 283 l 196 274 q 189 330 196 275 q 182 425 182 385 q 203 496 182 465 q 256 547 224 526 q 324 594 288 568 q 393 644 361 619 q 446 710 425 669 q 467 801 467 751 m 376 78 q 267 -14 376 -14 q 186 6 213 -14 q 160 78 160 26 q 184 156 160 131 q 272 182 208 182 q 356 157 336 182 q 376 78 376 132 z "},"@":{"ha":1135,"x_min":53,"x_max":1090,"o":"m 731 617 l 833 640 l 788 343 l 786 326 q 797 291 786 303 q 822 279 808 279 q 904 353 869 279 q 939 525 939 426 q 850 719 939 650 q 618 788 761 788 q 394 736 475 788 q 271 582 329 700 q 213 322 213 464 q 307 99 213 179 q 536 18 401 18 q 951 108 736 18 l 1007 24 q 501 -119 756 -119 q 186 -2 319 -119 q 53 303 53 115 q 104 577 53 461 q 218 757 156 693 q 646 924 379 924 q 973 810 856 924 q 1090 535 1090 696 q 1003 265 1090 374 q 803 157 917 157 q 689 236 736 157 q 491 143 567 143 q 363 198 415 143 q 311 323 311 253 q 338 460 311 393 q 399 565 364 528 q 597 654 481 654 q 731 617 669 654 m 664 350 l 685 506 q 594 533 650 532 q 508 503 539 533 q 461 347 461 449 q 472 303 461 319 q 518 281 490 281 q 590 303 546 281 q 664 350 635 326 z "},"A":{"ha":979,"x_min":3,"x_max":976,"o":"m 114 183 l 403 1000 l 568 1000 l 863 183 q 888 136 875 147 q 929 119 900 125 l 976 110 l 976 0 l 575 0 l 575 107 l 644 119 q 682 149 682 125 q 675 181 682 157 l 632 303 l 321 303 l 282 185 q 275 153 275 164 q 314 119 275 125 l 382 107 l 382 0 l 3 0 l 3 110 l 49 119 q 89 136 76 125 q 114 183 101 147 m 583 439 l 490 706 l 472 776 l 458 708 l 367 439 l 583 439 z "},"B":{"ha":903,"x_min":67,"x_max":847,"o":"m 174 175 l 174 825 q 166 862 174 851 q 133 878 158 872 l 67 890 l 67 1000 l 444 1000 q 694 953 611 1000 q 778 775 778 906 q 728 612 778 679 q 621 531 678 544 q 785 466 724 521 q 847 301 847 411 q 751 81 847 161 q 492 0 656 0 l 67 0 l 67 110 l 133 122 q 166 138 158 128 q 174 175 174 149 m 350 861 l 350 581 l 431 581 q 540 599 513 581 q 592 735 592 628 q 547 835 592 808 q 419 861 503 861 l 350 861 m 350 444 l 350 139 l 479 139 q 661 299 661 139 q 472 444 661 444 l 350 444 z "},"C":{"ha":921,"x_min":54,"x_max":860,"o":"m 822 194 l 860 71 q 729 25 818 50 q 492 -14 590 -14 q 54 489 54 -14 q 165 861 54 714 q 313 974 221 933 q 509 1014 406 1014 q 685 999 613 1014 q 853 935 758 985 l 831 694 l 696 694 l 667 840 q 479 868 579 868 q 322 821 379 868 q 266 688 288 792 q 244 499 244 585 q 314 233 244 329 q 521 136 383 136 q 822 194 658 136 z "},"D":{"ha":1010,"x_min":67,"x_max":956,"o":"m 490 142 q 699 229 633 142 q 765 512 765 317 q 701 783 765 707 q 490 858 636 858 l 350 858 l 350 142 l 490 142 m 67 1000 l 504 1000 q 849 875 742 1000 q 956 517 956 750 q 843 142 956 285 q 504 0 731 0 l 67 0 l 67 111 l 133 124 q 166 140 158 129 q 174 179 174 151 l 174 831 q 166 871 174 858 q 133 886 158 883 l 67 894 l 67 1000 z "},"E":{"ha":879,"x_min":67,"x_max":804,"o":"m 804 0 l 67 0 l 67 111 l 133 124 q 166 140 158 129 q 174 176 174 150 l 174 831 q 166 871 174 858 q 133 886 158 883 l 67 894 l 67 1000 l 799 1000 l 789 725 l 672 725 l 663 815 q 648 848 660 840 q 610 856 636 856 l 350 856 l 350 592 l 643 592 l 643 447 l 350 447 l 350 144 l 611 144 q 650 152 638 144 q 664 185 663 160 l 674 282 l 794 282 l 804 0 z "},"F":{"ha":801,"x_min":67,"x_max":785,"o":"m 67 1000 l 785 1000 l 775 732 l 658 732 l 649 822 q 634 855 646 847 q 596 863 622 863 l 350 863 l 350 582 l 615 582 l 615 438 l 350 438 l 350 175 q 358 136 350 147 q 392 122 367 125 l 483 111 l 483 0 l 67 0 l 67 110 l 133 122 q 166 138 158 128 q 174 175 174 149 l 174 836 q 165 872 174 861 q 133 886 157 883 l 67 894 l 67 1000 z "},"G":{"ha":1003,"x_min":54,"x_max":942,"o":"m 244 499 q 312 235 244 336 q 514 133 379 133 q 685 161 608 133 l 685 294 q 677 332 685 321 q 644 347 669 343 l 572 360 l 572 469 l 942 469 l 942 360 l 894 350 q 863 335 868 344 q 857 297 857 326 l 857 71 q 493 -14 654 -14 q 160 114 265 -14 q 54 489 54 242 q 165 861 54 714 q 313 974 221 933 q 511 1014 406 1014 q 694 999 617 1014 q 869 935 771 985 l 847 694 l 713 694 l 683 833 q 486 868 593 868 q 322 821 379 868 q 266 689 288 792 q 244 499 244 586 z "},"H":{"ha":1100,"x_min":67,"x_max":1033,"o":"m 926 825 l 926 175 q 934 138 926 149 q 967 122 942 128 l 1033 110 l 1033 0 l 636 0 l 636 110 l 710 122 q 742 137 735 126 q 750 175 750 147 l 750 453 l 350 453 l 350 175 q 358 137 350 147 q 390 122 365 126 l 464 110 l 464 0 l 67 0 l 67 110 l 133 122 q 166 138 158 128 q 174 175 174 149 l 174 825 q 166 862 174 851 q 133 878 158 872 l 67 890 l 67 1000 l 464 1000 l 464 890 l 390 878 q 358 863 365 874 q 350 825 350 853 l 350 594 l 750 594 l 750 825 q 742 863 750 853 q 710 878 735 874 l 636 890 l 636 1000 l 1033 1000 l 1033 890 l 967 878 q 934 862 942 872 q 926 825 926 851 z "},"I":{"ha":524,"x_min":67,"x_max":457,"o":"m 457 110 l 457 0 l 67 0 l 67 110 l 133 122 q 166 138 158 128 q 174 175 174 149 l 174 825 q 166 862 174 851 q 133 878 158 872 l 67 890 l 67 1000 l 457 1000 l 457 890 l 390 878 q 358 862 365 872 q 350 825 350 851 l 350 175 q 358 138 350 149 q 390 122 365 128 l 457 110 z "},"J":{"ha":485,"x_min":-49,"x_max":447,"o":"m 35 -217 l -49 -104 q 126 43 88 -19 q 164 249 164 106 l 164 825 q 156 862 164 851 q 124 878 149 872 l 57 890 l 57 1000 l 447 1000 l 447 890 l 381 878 q 348 862 356 872 q 340 825 340 851 l 340 206 q 336 96 340 140 q 316 13 332 51 q 282 -51 300 -26 q 224 -106 264 -76 q 35 -217 163 -151 z "},"K":{"ha":968,"x_min":67,"x_max":965,"o":"m 781 835 l 526 557 l 761 233 q 834 151 806 171 q 898 131 863 131 q 965 144 933 131 l 954 17 q 832 -14 904 -14 q 712 23 760 -14 q 614 135 664 60 l 350 525 l 350 175 q 358 137 350 147 q 390 122 365 126 l 463 110 l 463 0 l 67 0 l 67 110 l 133 122 q 166 138 158 128 q 174 175 174 149 l 174 825 q 166 862 174 851 q 133 878 158 872 l 67 890 l 67 1000 l 463 1000 l 463 890 l 390 878 q 358 863 365 874 q 350 825 350 853 l 350 569 l 681 939 q 818 1000 733 1000 l 908 1000 l 908 878 q 858 876 875 878 q 781 835 815 872 z "},"L":{"ha":774,"x_min":67,"x_max":757,"o":"m 757 0 l 67 0 l 67 110 l 133 122 q 166 138 158 128 q 174 175 174 149 l 174 825 q 166 862 174 851 q 133 878 158 872 l 67 890 l 67 1000 l 467 1000 l 467 890 l 390 878 q 358 863 365 874 q 350 825 350 853 l 350 144 l 565 144 q 604 152 592 144 q 618 185 617 160 l 628 282 l 747 282 l 757 0 z "},"M":{"ha":1354,"x_min":43,"x_max":1322,"o":"m 365 640 l 338 729 l 338 639 l 307 165 q 349 118 306 124 l 414 110 l 414 0 l 43 0 l 43 110 l 110 122 q 141 137 135 128 q 150 174 147 146 l 206 840 q 164 882 210 876 l 99 890 l 99 1000 l 419 1000 l 668 292 l 683 219 l 697 292 l 928 1000 l 1261 1000 l 1261 890 l 1190 882 q 1150 861 1156 878 q 1147 848 1147 854 q 1147 838 1147 842 l 1207 174 q 1216 136 1210 146 q 1247 122 1222 126 l 1322 110 l 1322 0 l 925 0 l 925 110 l 993 118 q 1033 163 1038 124 l 994 639 l 992 729 l 971 643 l 754 0 l 593 0 l 365 640 z "},"N":{"ha":1114,"x_min":67,"x_max":1065,"o":"m 68 1000 l 357 1000 l 783 318 l 783 826 q 776 867 783 854 q 744 882 769 879 l 679 890 l 679 1000 l 1065 1000 l 1065 890 l 1000 882 q 967 867 975 879 q 960 826 960 854 l 960 0 l 776 0 l 350 682 l 350 175 q 358 136 350 147 q 390 122 365 125 l 457 110 l 457 0 l 67 0 l 67 110 l 133 122 q 166 137 158 126 q 174 175 174 147 l 174 826 q 166 867 174 854 q 133 882 158 879 l 68 890 l 68 1000 z "},"O":{"ha":1029,"x_min":54,"x_max":975,"o":"m 864 144 q 709 28 807 71 q 482 -14 611 -14 q 157 124 260 -14 q 54 500 54 261 q 167 856 54 710 q 320 972 222 929 q 547 1014 418 1014 q 872 876 769 1014 q 975 515 975 739 q 864 144 975 290 m 785 508 q 710 774 785 679 q 506 869 636 869 q 324 821 376 869 q 265 688 286 786 q 244 492 244 590 q 319 226 244 321 q 524 131 393 131 q 706 179 656 131 q 763 313 742 214 q 785 508 785 411 z "},"P":{"ha":808,"x_min":67,"x_max":792,"o":"m 350 861 l 350 519 l 425 519 q 554 549 519 519 q 601 721 601 589 q 435 861 601 861 l 350 861 m 174 175 l 174 825 q 166 862 174 851 q 133 878 158 872 l 67 890 l 67 1000 l 447 1000 q 704 944 617 1000 q 792 733 792 888 q 682 479 792 578 q 429 381 572 381 l 350 381 l 350 175 q 358 136 350 147 q 392 122 367 125 l 483 111 l 483 0 l 67 0 l 67 110 l 133 122 q 166 138 158 128 q 174 175 174 149 z "},"Q":{"ha":1029,"x_min":54,"x_max":1003,"o":"m 332 -225 l 290 -114 q 469 -68 382 -68 q 685 -106 557 -68 q 861 -144 814 -144 q 972 -114 908 -144 l 1003 -221 q 831 -292 929 -292 q 633 -249 761 -292 q 436 -207 504 -207 q 332 -225 404 -207 m 864 144 q 709 28 807 71 q 482 -14 611 -14 q 157 124 260 -14 q 54 500 54 261 q 167 856 54 710 q 320 972 222 929 q 547 1014 418 1014 q 872 876 769 1014 q 975 515 975 739 q 864 144 975 290 m 785 508 q 710 774 785 679 q 506 869 636 869 q 324 821 376 869 q 265 688 286 786 q 244 492 244 590 q 319 226 244 321 q 524 131 393 131 q 706 179 656 131 q 763 313 742 214 q 785 508 785 411 z "},"R":{"ha":932,"x_min":67,"x_max":929,"o":"m 350 861 l 350 565 l 446 565 q 554 588 526 565 q 596 736 596 622 q 433 861 596 861 l 350 861 m 350 426 l 350 175 q 358 136 350 147 q 392 122 367 125 l 469 111 l 469 0 l 67 0 l 67 110 l 133 122 q 166 136 158 125 q 174 175 174 147 l 174 825 q 166 863 174 853 q 133 878 158 874 l 67 890 l 67 1000 l 454 1000 q 701 943 615 1000 q 786 750 786 886 q 763 615 786 672 q 701 525 739 557 q 564 458 635 469 q 638 407 611 451 l 757 211 q 865 131 806 131 q 929 142 907 131 l 915 17 q 785 -14 860 -14 q 615 103 685 -14 l 450 378 q 389 426 418 426 l 350 426 z "},"S":{"ha":806,"x_min":60,"x_max":751,"o":"m 215 288 l 233 161 q 392 119 310 119 q 524 155 475 119 q 572 249 572 190 q 544 340 572 308 q 429 404 515 372 l 260 468 q 67 749 67 542 q 153 940 67 868 q 388 1013 239 1013 q 708 975 538 1013 l 689 746 l 554 746 l 533 856 q 383 883 464 883 q 250 765 250 883 q 378 613 250 660 l 496 571 q 672 478 606 532 q 751 279 751 411 q 652 67 751 147 q 369 -14 553 -14 q 156 17 243 -14 q 60 50 125 26 l 76 288 l 215 288 z "},"T":{"ha":871,"x_min":17,"x_max":854,"o":"m 665 861 l 524 861 l 524 175 q 531 137 524 147 q 564 122 539 126 l 636 110 l 636 0 l 235 0 l 235 110 l 307 122 q 340 137 332 126 q 347 175 347 147 l 347 861 l 204 861 q 167 853 178 861 q 153 821 156 846 l 143 726 l 26 726 l 17 1000 l 854 1000 l 844 726 l 728 726 l 718 821 q 703 853 715 846 q 665 861 692 861 z "},"U":{"ha":1007,"x_min":25,"x_max":982,"o":"m 875 825 l 875 322 q 852 193 875 251 q 792 97 829 135 q 703 33 754 60 q 489 -14 608 -14 q 223 73 314 -14 q 132 322 132 160 l 132 825 q 124 863 132 853 q 92 878 117 874 l 25 890 l 25 1000 l 415 1000 l 415 890 l 349 878 q 316 864 324 875 q 308 825 308 853 l 308 344 q 372 181 308 229 q 528 132 435 132 q 663 165 621 132 q 704 356 704 199 l 704 825 q 697 863 704 853 q 664 878 689 874 l 597 890 l 597 1000 l 982 1000 l 982 890 l 915 878 q 883 864 890 875 q 875 825 875 853 z "},"V":{"ha":974,"x_min":3,"x_max":971,"o":"m 517 221 l 526 293 l 689 825 q 694 851 694 844 q 651 883 694 878 l 585 892 l 585 1000 l 971 1000 l 971 890 l 926 885 q 885 872 897 882 q 860 825 872 861 l 589 0 l 424 0 l 126 825 q 96 869 114 858 q 44 885 78 881 l 3 890 l 3 1000 l 421 1000 l 421 892 l 354 883 q 314 854 314 878 q 321 825 314 846 l 501 294 l 517 221 z "},"W":{"ha":1363,"x_min":3,"x_max":1360,"o":"m 706 551 l 693 621 l 682 551 l 529 0 l 344 0 l 126 825 q 100 869 118 858 q 50 885 82 881 l 3 890 l 3 1000 l 419 1000 l 419 892 l 347 883 q 307 853 307 879 q 311 825 307 842 l 438 331 l 450 258 l 464 329 l 615 883 l 796 883 l 951 328 l 964 258 l 976 331 l 1096 825 q 1099 846 1099 842 q 1051 883 1099 878 l 985 892 l 985 1000 l 1360 1000 l 1360 890 l 1318 885 q 1276 871 1289 882 q 1256 825 1264 860 l 1047 0 l 863 0 l 706 551 z "},"X":{"ha":1010,"x_min":6,"x_max":1004,"o":"m 389 528 l 169 825 q 158 840 165 831 q 149 853 151 850 q 141 863 146 857 q 133 872 136 869 q 125 878 129 874 q 101 883 115 883 l 36 890 l 36 1000 l 444 1000 l 444 892 l 393 883 q 364 865 364 879 q 383 825 364 851 l 524 635 l 646 825 q 665 867 665 854 q 639 883 665 879 l 593 892 l 593 1000 l 974 1000 l 974 890 l 910 883 q 867 869 883 881 q 831 825 851 857 l 618 508 l 865 175 q 939 117 907 119 l 1004 110 l 1004 0 l 568 0 l 568 108 l 626 117 q 665 144 665 122 q 651 175 665 157 l 482 403 l 338 175 q 321 138 321 149 q 350 117 321 121 l 410 108 l 410 0 l 6 0 l 6 110 l 69 117 q 113 132 96 119 q 150 175 129 144 l 389 528 z "},"Y":{"ha":972,"x_min":3,"x_max":969,"o":"m 839 825 l 572 331 l 572 175 q 580 137 572 147 q 613 122 588 126 l 685 110 l 685 0 l 283 0 l 283 110 l 356 122 q 388 137 381 126 q 396 175 396 147 l 396 344 l 133 825 q 103 868 117 856 q 64 883 89 881 l 3 890 l 3 1000 l 415 1000 l 415 892 l 367 883 q 321 857 321 876 q 333 825 321 850 l 501 500 l 663 825 q 672 855 672 843 q 662 872 672 867 q 624 882 651 878 l 575 890 l 575 1000 l 969 1000 l 969 890 l 908 883 q 868 867 879 878 q 839 825 857 857 z "},"Z":{"ha":860,"x_min":60,"x_max":806,"o":"m 557 860 l 275 860 q 236 852 249 860 q 222 819 224 844 l 213 722 l 92 722 l 82 1000 l 778 1000 l 778 867 l 281 144 l 613 144 q 651 152 639 144 q 665 185 664 160 l 675 282 l 796 282 l 806 0 l 60 0 l 60 138 l 557 860 z "},"[":{"ha":539,"x_min":139,"x_max":493,"o":"m 493 1083 l 493 950 l 299 950 l 299 -200 l 493 -200 l 493 -333 l 139 -333 l 139 1083 l 493 1083 z "},"\\":{"ha":604,"x_min":18,"x_max":601,"o":"m 18 1000 l 179 1000 l 601 -200 l 440 -200 l 18 1000 z "},"]":{"ha":539,"x_min":46,"x_max":400,"o":"m 46 950 l 46 1083 l 400 1083 l 400 -333 l 46 -333 l 46 -200 l 240 -200 l 240 950 l 46 950 z "},"^":{"ha":804,"x_min":69,"x_max":735,"o":"m 326 1000 l 472 1000 l 735 525 l 614 456 l 396 856 l 185 456 l 69 511 l 326 1000 z "},"_":{"ha":703,"x_min":0,"x_max":703,"o":"m 0 -242 l 0 -128 l 703 -128 l 703 -242 l 0 -242 z "},"`":{"ha":407,"x_min":68,"x_max":378,"o":"m 68 958 l 171 1065 l 378 829 q 299 783 332 783 q 246 803 267 783 l 68 958 z "},"a":{"ha":756,"x_min":56,"x_max":725,"o":"m 624 488 l 624 151 q 654 113 624 115 l 725 103 l 725 0 l 476 0 l 465 82 q 263 -14 369 -14 q 106 36 156 -14 q 56 172 56 86 q 109 311 56 257 q 264 379 163 365 l 457 404 l 457 485 q 336 572 457 572 q 232 550 282 572 l 215 458 l 106 458 l 93 629 q 238 676 190 664 q 344 688 285 688 q 544 638 464 688 q 624 488 624 589 m 457 294 l 304 269 q 226 181 226 256 q 304 111 226 111 q 392 138 343 111 q 457 186 440 165 l 457 294 z "},"b":{"ha":782,"x_min":-3,"x_max":735,"o":"m 274 510 l 274 154 q 408 110 332 110 q 514 149 483 110 q 557 328 557 203 q 515 508 557 453 q 397 563 474 563 q 274 510 321 563 m 107 50 l 107 933 q 76 972 107 969 l -3 981 l -3 1083 l 274 1083 l 274 618 q 353 667 304 646 q 451 688 403 688 q 654 599 574 688 q 735 354 735 511 q 642 92 735 197 q 390 -14 550 -14 q 107 50 231 -14 z "},"c":{"ha":679,"x_min":47,"x_max":625,"o":"m 603 151 l 625 49 q 451 -7 501 0 q 367 -14 400 -14 q 128 70 210 -14 q 47 318 47 154 q 138 585 47 482 q 385 688 229 688 q 515 670 451 688 q 615 629 579 653 l 603 444 l 493 444 l 469 546 q 361 564 433 564 q 265 531 289 564 q 225 324 225 472 q 266 169 225 228 q 380 110 307 110 q 603 151 453 110 z "},"d":{"ha":814,"x_min":39,"x_max":767,"o":"m 499 190 l 499 525 q 378 564 453 564 q 263 531 303 564 q 228 451 240 514 q 217 335 217 388 q 360 110 217 110 q 439 135 401 110 q 499 190 476 161 m 382 1083 l 665 1083 l 665 151 q 696 113 665 115 l 767 103 l 767 0 l 518 0 l 507 82 q 319 -14 411 -14 q 114 74 189 -14 q 39 315 39 161 q 133 578 39 468 q 390 688 228 688 q 499 669 422 688 l 499 933 q 468 972 499 969 l 382 981 l 382 1083 z "},"e":{"ha":704,"x_min":47,"x_max":653,"o":"m 653 325 l 225 294 q 394 110 236 110 q 624 150 483 110 l 650 50 q 343 -14 486 -14 q 124 78 200 -14 q 47 329 47 169 q 135 588 47 489 q 381 688 222 688 q 596 598 539 688 q 653 325 653 508 m 222 404 l 490 426 q 372 564 488 564 q 262 533 289 564 q 222 404 235 501 z "},"f":{"ha":506,"x_min":42,"x_max":592,"o":"m 310 676 l 475 690 l 475 561 l 310 561 l 310 151 q 340 113 310 115 l 436 103 l 436 0 l 42 0 l 42 103 l 113 113 q 143 151 143 115 l 143 561 l 49 561 l 49 660 l 143 671 l 143 814 q 220 1024 143 951 q 429 1097 297 1097 q 592 1064 497 1097 l 535 928 q 386 971 449 971 q 310 882 310 971 l 310 676 z "},"g":{"ha":742,"x_min":49,"x_max":703,"o":"m 703 718 l 703 617 q 617 579 667 588 q 657 435 657 519 q 567 247 657 321 q 342 172 478 172 q 307 174 322 172 l 292 132 q 289 119 289 126 q 325 100 289 106 q 433 85 361 94 q 543 69 506 75 q 663 17 625 56 q 700 -94 700 -22 q 603 -273 700 -199 q 351 -347 506 -347 q 49 -265 151 -347 l 81 -86 l 189 -86 l 189 -181 q 365 -219 267 -219 q 508 -201 463 -219 q 553 -129 553 -183 q 463 -72 553 -82 q 242 -42 322 -57 q 136 85 136 -22 l 208 193 q 54 426 54 265 q 133 609 54 531 q 375 688 213 688 l 431 688 q 580 692 539 688 q 703 718 621 696 m 229 440 q 229 402 229 440 q 262 324 229 364 q 363 285 294 285 q 456 324 431 285 q 482 447 482 363 q 346 579 482 579 q 249 540 276 579 q 229 440 229 515 z "},"h":{"ha":871,"x_min":42,"x_max":840,"o":"m 143 151 l 143 933 q 113 972 143 969 l 42 981 l 42 1083 l 310 1083 l 310 603 q 513 688 400 688 q 682 628 625 688 q 739 481 739 568 l 739 151 q 769 113 739 115 l 840 103 l 840 0 l 572 0 l 572 442 q 542 524 572 496 q 460 553 513 553 q 310 488 375 553 l 310 151 q 340 113 310 115 l 411 103 l 411 0 l 42 0 l 42 103 l 113 113 q 143 151 143 115 z "},"i":{"ha":446,"x_min":42,"x_max":411,"o":"m 317 896 q 207 804 317 804 q 126 824 153 804 q 100 897 100 844 q 124 974 100 949 q 213 1000 149 1000 q 297 975 276 1000 q 317 896 317 950 m 310 674 l 310 151 q 340 113 310 115 l 411 103 l 411 0 l 42 0 l 42 103 l 113 113 q 143 151 143 115 l 143 524 q 113 563 143 560 l 42 571 l 42 674 l 310 674 z "},"j":{"ha":410,"x_min":-40,"x_max":310,"o":"m 303 674 l 303 10 q 255 -199 303 -135 q 35 -347 207 -262 l -40 -271 q 78 -183 44 -217 q 124 -100 111 -149 q 136 47 136 -51 l 136 524 q 106 563 136 560 l 35 571 l 35 674 l 303 674 m 310 896 q 200 804 310 804 q 119 824 146 804 q 93 897 93 844 q 117 974 93 949 q 206 1000 142 1000 q 290 975 269 1000 q 310 896 310 950 z "},"k":{"ha":817,"x_min":42,"x_max":807,"o":"m 310 1083 l 310 410 l 496 600 q 572 659 540 644 q 654 674 604 674 l 733 674 l 733 561 l 700 561 q 628 539 654 561 q 594 510 619 532 l 479 407 l 479 397 l 626 196 q 744 121 682 121 q 807 131 783 121 l 785 8 q 668 -14 731 -14 q 514 82 582 -14 l 310 372 l 310 151 q 316 124 310 132 q 340 113 322 115 l 400 103 l 400 0 l 42 0 l 42 103 l 113 113 q 143 151 143 115 l 143 933 q 113 972 143 969 l 42 981 l 42 1083 l 310 1083 z "},"l":{"ha":446,"x_min":42,"x_max":411,"o":"m 310 1083 l 310 151 q 340 113 310 115 l 411 103 l 411 0 l 42 0 l 42 103 l 113 113 q 143 151 143 115 l 143 933 q 113 972 143 969 l 42 981 l 42 1083 l 310 1083 z "},"m":{"ha":1269,"x_min":42,"x_max":1239,"o":"m 719 478 l 719 151 q 750 113 719 115 l 821 103 l 821 0 l 553 0 l 553 442 q 460 553 553 553 q 310 488 375 553 l 310 151 q 340 113 310 115 l 411 103 l 411 0 l 42 0 l 42 103 l 113 113 q 143 151 143 115 l 143 522 q 113 561 143 558 l 42 571 l 42 674 l 276 674 l 288 581 q 385 656 328 625 q 503 688 442 688 q 701 576 657 688 q 912 688 799 688 q 1081 634 1025 688 q 1138 481 1138 581 l 1138 151 q 1168 113 1138 115 l 1239 103 l 1239 0 l 971 0 l 971 442 q 877 553 971 553 q 719 478 783 553 z "},"n":{"ha":871,"x_min":42,"x_max":840,"o":"m 840 0 l 572 0 l 572 442 q 542 524 572 496 q 460 553 513 553 q 310 488 375 553 l 310 151 q 340 113 310 115 l 411 103 l 411 0 l 42 0 l 42 103 l 113 113 q 143 151 143 115 l 143 522 q 113 561 143 558 l 42 571 l 42 674 l 276 674 l 288 581 q 385 656 328 625 q 503 688 442 688 q 682 628 625 688 q 739 481 739 568 l 739 151 q 769 113 739 115 l 840 103 l 840 0 z "},"o":{"ha":782,"x_min":47,"x_max":735,"o":"m 735 336 q 651 100 735 206 q 536 17 610 49 q 368 -14 463 -14 q 125 81 203 -14 q 47 336 47 175 q 131 572 47 467 q 245 656 172 625 q 413 688 318 688 q 657 593 579 688 q 735 336 735 499 m 557 343 q 510 505 557 446 q 385 564 464 564 q 272 531 306 564 q 237 449 249 508 q 225 331 225 390 q 271 168 225 226 q 396 110 317 110 q 508 143 475 110 q 544 224 532 165 q 557 343 557 283 z "},"p":{"ha":811,"x_min":35,"x_max":764,"o":"m 303 483 l 303 154 q 435 110 365 110 q 540 146 506 110 q 586 346 586 194 q 442 564 586 564 q 363 536 407 564 q 303 483 318 508 m 283 674 l 294 592 q 482 688 390 688 q 689 596 614 688 q 764 347 764 504 q 665 88 764 190 q 414 -14 565 -14 q 303 10 356 -14 l 303 -182 q 333 -221 303 -218 l 419 -231 l 419 -333 l 35 -333 l 35 -231 l 106 -221 q 136 -182 136 -218 l 136 522 q 106 561 136 558 l 35 571 l 35 674 l 283 674 z "},"q":{"ha":783,"x_min":47,"x_max":778,"o":"m 510 185 l 510 540 q 381 564 442 564 q 288 539 321 564 q 240 456 256 514 q 225 335 225 399 q 266 165 225 221 q 381 110 307 110 q 464 135 428 110 q 510 185 500 161 m 510 -182 l 510 40 q 328 -14 426 -14 q 126 74 204 -14 q 47 322 47 163 q 139 584 47 481 q 394 688 231 688 q 543 650 444 688 l 676 674 l 676 -182 q 707 -221 676 -218 l 778 -231 l 778 -333 l 393 -333 l 393 -231 l 479 -221 q 510 -182 510 -218 z "},"r":{"ha":619,"x_min":42,"x_max":607,"o":"m 276 674 l 290 568 q 372 649 315 611 q 490 688 428 688 q 607 654 551 688 l 596 463 l 486 463 l 471 549 q 435 554 463 554 q 349 505 389 554 q 310 414 310 456 l 310 151 q 340 113 310 115 l 429 103 l 429 0 l 42 0 l 42 103 l 113 113 q 143 151 143 115 l 143 522 q 113 561 143 558 l 42 571 l 42 674 l 276 674 z "},"s":{"ha":633,"x_min":53,"x_max":585,"o":"m 319 688 q 558 643 393 688 l 550 474 l 440 474 l 424 557 q 310 576 378 576 q 221 511 221 576 q 256 452 221 475 q 385 398 290 429 q 532 323 479 367 q 585 201 585 279 q 503 44 585 103 q 298 -14 421 -14 q 53 36 175 -14 l 65 210 l 178 210 l 190 118 q 294 99 242 99 q 382 119 347 99 q 417 178 417 140 q 383 237 417 217 q 275 283 350 257 q 103 371 151 324 q 56 506 56 418 q 131 640 56 593 q 319 688 206 688 z "},"t":{"ha":494,"x_min":32,"x_max":478,"o":"m 281 676 l 449 692 l 449 563 l 281 563 l 281 278 q 298 147 281 189 q 367 106 315 106 q 478 119 418 106 l 463 15 q 304 -14 408 -14 q 161 31 208 -14 q 117 161 124 67 q 114 257 114 197 l 114 563 l 32 563 l 32 660 l 114 671 l 114 781 l 281 818 l 281 676 z "},"u":{"ha":843,"x_min":18,"x_max":808,"o":"m 540 199 l 540 522 q 510 561 540 558 l 439 571 l 439 674 l 707 674 l 707 151 q 738 113 707 115 l 808 103 l 808 0 l 574 0 l 563 93 q 472 19 528 53 q 356 -14 417 -14 q 181 40 242 -14 q 119 192 119 93 l 119 522 q 89 561 119 558 l 18 571 l 18 674 l 286 674 l 286 233 q 388 117 286 117 q 486 149 439 117 q 540 199 533 181 z "},"v":{"ha":769,"x_min":1,"x_max":765,"o":"m 406 218 l 510 511 q 518 543 518 533 q 499 564 518 561 l 439 572 l 439 674 l 765 674 l 765 572 l 708 564 q 672 539 686 561 q 661 511 668 531 l 468 0 l 310 0 l 106 511 q 83 552 94 542 q 58 564 72 563 l 1 572 l 1 674 l 339 674 l 339 572 l 279 564 q 260 543 260 561 q 268 511 260 533 l 381 218 l 393 156 l 406 218 z "},"w":{"ha":1075,"x_min":1,"x_max":1071,"o":"m 747 247 l 819 511 q 826 546 826 536 q 808 564 826 560 l 749 572 l 749 674 l 1071 674 l 1071 572 l 1014 564 q 985 549 994 561 q 967 511 975 538 l 804 0 l 643 0 l 547 313 l 535 371 l 522 313 l 422 0 l 267 0 l 106 511 q 88 549 97 538 q 58 564 78 561 l 1 572 l 1 674 l 340 674 l 340 572 l 281 564 q 261 548 261 560 q 269 511 261 536 l 343 247 l 356 185 l 368 247 l 469 596 l 621 596 l 722 247 l 735 185 l 747 247 z "},"x":{"ha":786,"x_min":22,"x_max":764,"o":"m 457 297 l 642 522 q 674 553 661 546 q 714 565 686 560 l 753 572 l 753 674 l 456 674 l 456 574 l 488 567 q 506 555 506 563 q 483 522 506 547 l 338 350 l 457 297 m 329 522 l 654 163 q 693 122 682 131 q 722 110 704 113 l 764 103 l 764 0 l 435 0 l 435 101 l 467 108 q 482 123 482 113 q 457 164 482 133 l 135 522 q 102 555 111 549 q 72 565 93 561 l 33 572 l 33 674 l 354 674 l 354 574 l 322 567 q 306 556 306 563 q 329 522 306 549 m 294 361 l 406 301 l 293 164 q 268 122 268 132 q 281 108 268 113 l 313 101 l 313 0 l 22 0 l 22 103 l 64 111 q 98 126 86 117 q 132 163 110 135 l 294 361 z "},"y":{"ha":783,"x_min":3,"x_max":781,"o":"m 675 511 l 415 -167 q 185 -347 346 -347 q 39 -325 99 -347 l 21 -203 q 147 -218 86 -218 q 290 -97 246 -218 l 314 -29 l 107 511 q 85 552 96 542 q 60 564 74 563 l 3 572 l 3 674 l 346 674 l 346 572 l 285 564 q 265 546 265 560 q 275 511 265 536 l 403 160 l 525 511 q 535 550 535 538 q 517 564 535 563 l 456 572 l 456 674 l 781 674 l 781 572 l 724 564 q 695 549 704 561 q 675 511 686 538 z "},"z":{"ha":713,"x_min":39,"x_max":668,"o":"m 439 557 l 211 557 q 172 526 175 557 l 161 446 l 58 446 l 49 674 l 651 674 l 651 582 l 251 119 l 506 119 q 544 150 542 119 l 556 236 l 658 236 l 668 0 l 39 0 l 39 94 l 439 557 z "},"{":{"ha":544,"x_min":72,"x_max":471,"o":"m 72 322 l 72 425 q 174 621 174 425 l 174 928 q 215 1038 174 993 q 328 1083 257 1083 l 471 1083 l 471 974 l 419 974 q 355 947 371 974 q 339 864 339 921 l 339 597 q 299 443 339 513 q 204 374 260 374 q 299 304 260 374 q 339 150 339 235 l 339 -117 q 355 -200 339 -174 q 419 -226 371 -226 l 471 -226 l 471 -336 l 328 -336 q 215 -291 257 -336 q 174 -181 174 -246 l 174 126 q 72 322 174 322 z "},"|":{"ha":424,"x_min":139,"x_max":285,"o":"m 139 1100 l 285 1100 l 285 -333 l 139 -333 l 139 1100 z "},"}":{"ha":544,"x_min":74,"x_max":472,"o":"m 472 425 l 472 322 q 371 126 371 322 l 371 -181 q 329 -291 371 -246 q 217 -336 288 -336 l 74 -336 l 74 -226 l 125 -226 q 190 -200 174 -226 q 206 -117 206 -174 l 206 150 q 245 304 206 235 q 340 374 285 374 q 245 443 285 374 q 206 597 206 513 l 206 864 q 190 947 206 921 q 125 974 174 974 l 74 974 l 74 1083 l 217 1083 q 329 1038 288 1083 q 371 928 371 993 l 371 621 q 472 425 371 425 z "},"~":{"ha":792,"x_min":92,"x_max":699,"o":"m 143 272 q 117 258 122 261 l 92 354 q 289 463 213 463 q 416 424 336 463 q 538 385 496 385 q 675 438 579 385 l 699 342 q 611 273 661 303 q 517 243 561 243 q 390 282 472 243 q 268 321 308 321 q 143 272 228 321 z "},"¡":{"ha":453,"x_min":118,"x_max":335,"o":"m 128 -333 l 157 393 l 290 393 l 321 -333 l 128 -333 m 335 589 q 315 510 335 535 q 231 485 294 485 q 142 510 167 485 q 118 588 118 536 q 144 660 118 640 q 225 681 171 681 q 335 589 335 681 z "},"¢":{"ha":679,"x_min":47,"x_max":625,"o":"m 603 290 l 625 188 q 587 173 619 186 q 536 153 554 160 q 421 128 479 133 l 429 -53 l 275 -53 l 283 132 q 47 450 47 172 q 109 674 47 581 q 279 797 171 767 l 271 988 l 425 988 l 417 811 q 615 754 535 803 l 603 569 l 493 569 l 469 671 q 361 689 433 689 q 265 656 289 689 q 225 456 225 599 q 266 306 225 364 q 380 249 307 249 q 603 290 453 249 z "},"£":{"ha":842,"x_min":69,"x_max":769,"o":"m 374 378 l 375 285 q 294 119 375 186 q 380 156 344 156 q 481 142 415 156 q 575 129 546 129 q 619 142 604 129 q 633 174 633 154 l 633 235 l 753 235 l 769 6 q 615 -14 738 -14 q 460 -1 569 -14 q 288 13 350 13 q 126 -19 225 13 l 69 103 q 156 142 106 108 q 203 233 203 161 q 194 378 203 267 l 82 378 l 82 496 l 186 496 q 179 649 179 583 q 204 778 179 714 q 265 878 229 843 q 347 933 300 913 q 507 968 424 968 q 719 907 640 968 l 646 750 q 460 817 557 817 q 384 790 410 817 q 358 721 358 763 q 368 496 358 639 l 581 496 l 546 378 l 374 378 z "},"¤":{"ha":760,"x_min":38,"x_max":722,"o":"m 593 581 l 722 722 l 603 822 l 485 671 l 593 581 m 576 638 q 614 602 576 638 q 653 450 653 565 q 576 262 653 335 q 378 189 499 189 q 180 262 257 189 q 103 450 103 335 q 180 638 103 565 q 378 711 257 711 q 576 638 499 711 m 467 352 q 483 370 467 352 q 499 450 499 388 q 467 548 499 513 q 378 583 435 583 q 289 548 321 583 q 257 450 257 513 q 289 352 257 388 q 378 317 321 317 q 467 352 435 317 m 275 671 l 157 822 l 38 722 l 167 581 l 275 671 m 485 226 l 593 317 l 722 175 l 603 75 l 485 226 m 167 317 l 275 226 l 157 75 l 38 175 l 167 317 z "},"¥":{"ha":972,"x_min":3,"x_max":969,"o":"m 839 769 l 572 372 l 572 340 l 721 340 l 700 215 l 572 215 l 572 175 q 580 137 572 147 q 613 122 588 126 l 685 110 l 685 0 l 283 0 l 283 110 l 356 122 q 388 137 381 126 q 396 175 396 147 l 396 215 l 247 215 l 268 340 l 396 340 l 396 372 l 133 769 q 103 813 117 801 q 64 828 89 825 l 3 835 l 3 944 l 415 944 l 415 836 l 367 828 q 321 801 321 821 q 333 769 321 794 l 494 528 l 663 769 q 672 799 672 788 q 662 817 672 811 q 624 826 651 822 l 575 835 l 575 944 l 969 944 l 969 835 l 908 828 q 868 812 879 822 q 839 769 857 801 z "},"¦":{"ha":417,"x_min":129,"x_max":288,"o":"m 129 1097 l 288 1097 l 288 560 l 129 560 l 129 1097 m 129 204 l 288 204 l 288 -333 l 129 -333 l 129 204 z "},"§":{"ha":719,"x_min":40,"x_max":679,"o":"m 182 43 l 194 -65 q 341 -99 282 -99 q 437 -72 400 -99 q 474 -5 474 -46 q 453 62 474 36 q 376 110 432 88 l 235 169 q 103 260 146 208 q 61 385 61 311 q 82 493 61 460 q 168 582 103 526 q 71 790 71 657 q 147 953 71 892 q 353 1014 222 1014 q 626 982 485 1014 l 608 785 l 490 785 l 474 878 q 349 893 417 893 q 246 804 246 893 q 268 728 246 757 q 346 678 290 699 l 464 633 q 522 610 501 618 q 578 580 543 601 q 631 536 613 558 q 679 408 679 479 q 654 293 679 336 q 564 200 629 250 q 649 8 649 136 q 559 -160 649 -96 q 320 -225 469 -225 q 40 -161 171 -225 l 61 43 l 182 43 m 282 524 q 236 429 236 476 q 256 356 236 382 q 326 310 276 329 l 426 269 l 449 260 q 504 375 504 311 q 481 435 504 413 q 401 479 457 458 l 282 524 z "},"¨":{"ha":760,"x_min":132,"x_max":626,"o":"m 235 969 q 265 969 235 969 q 311 947 294 969 q 328 876 328 924 q 303 808 328 828 q 229 788 279 788 q 156 806 179 788 q 132 873 132 824 q 153 946 132 922 q 235 969 175 969 m 533 969 q 563 969 533 969 q 610 947 593 969 q 626 876 626 924 q 602 808 626 828 q 528 788 578 788 q 454 806 478 788 q 431 873 431 824 q 452 946 431 922 q 533 969 474 969 z "},"©":{"ha":1156,"x_min":50,"x_max":1106,"o":"m 578 -14 q 469 -14 578 -14 q 205 138 360 -14 q 50 507 50 290 q 205 883 50 724 q 578 1042 360 1042 q 951 883 796 1042 q 1106 507 1106 724 q 951 138 1106 290 q 578 -14 796 -14 m 577 944 q 493 944 577 944 q 285 813 408 944 q 161 507 161 681 q 285 208 161 333 q 578 83 408 83 q 871 208 747 83 q 994 507 994 333 q 870 813 994 681 q 577 944 746 944 m 785 264 q 561 211 679 211 q 375 282 443 211 q 307 490 307 353 q 383 713 307 626 q 583 800 460 800 q 783 750 707 800 l 774 594 l 681 594 l 663 675 q 569 689 625 689 q 497 668 514 689 q 464 494 464 621 q 496 370 464 418 q 586 322 528 322 q 767 357 644 322 l 785 264 z "},"ª":{"ha":460,"x_min":28,"x_max":432,"o":"m 47 403 l 47 515 l 418 515 l 418 403 l 47 403 m 375 900 l 375 710 q 378 687 375 693 q 394 679 382 681 l 432 674 l 432 601 l 278 601 l 272 660 q 156 593 217 593 q 62 624 96 593 q 28 707 28 656 q 62 791 28 758 q 157 832 96 824 l 267 851 l 267 892 q 201 932 267 932 q 131 921 175 932 l 119 868 l 54 868 l 43 985 q 208 1014 135 1014 q 328 986 281 1014 q 375 900 375 958 m 267 781 l 176 764 q 139 720 139 757 q 174 683 139 683 q 267 736 210 683 l 267 781 z "},"«":{"ha":744,"x_min":54,"x_max":656,"o":"m 290 54 l 54 336 l 290 618 q 317 592 299 608 q 353 540 353 561 q 342 500 353 518 l 239 336 l 342 172 q 353 138 353 157 q 345 108 353 119 q 315 76 338 96 q 290 54 293 57 m 593 54 l 357 336 l 593 618 q 619 592 601 608 q 656 540 656 561 q 644 500 656 518 l 542 336 l 644 172 q 656 138 656 157 q 648 108 656 119 q 618 76 640 96 q 593 54 596 57 z "},"¬":{"ha":740,"x_min":53,"x_max":688,"o":"m 688 168 l 564 168 l 564 368 l 53 368 l 53 506 l 688 506 l 688 168 z "},"®":{"ha":715,"x_min":72,"x_max":643,"o":"m 322 900 l 322 810 l 353 810 q 385 821 375 810 q 394 861 394 832 q 347 900 394 900 l 322 900 m 322 763 l 322 685 q 324 672 322 675 q 335 668 325 669 l 358 665 l 358 626 l 225 626 l 225 665 l 247 668 q 260 685 260 669 l 260 888 q 247 904 260 900 l 225 908 l 225 946 l 356 946 q 461 867 461 946 q 439 798 461 819 q 392 774 417 776 q 414 758 407 769 l 453 694 q 486 669 467 669 q 497 670 489 669 q 507 671 506 671 l 503 632 q 456 622 489 622 q 399 660 424 622 l 347 749 q 328 763 339 763 l 322 763 m 358 499 q 298 499 358 499 q 155 581 238 499 q 72 784 72 664 q 155 987 72 904 q 358 1069 238 1069 q 560 987 478 1069 q 643 784 643 904 q 560 581 643 664 q 358 499 478 499 m 203 944 q 171 911 203 944 q 139 783 139 878 q 203 623 139 689 q 358 557 267 557 q 513 623 449 557 q 578 783 578 689 q 513 944 578 878 q 358 1011 449 1011 q 203 944 267 1011 z "},"¯":{"ha":522,"x_min":67,"x_max":479,"o":"m 67 836 l 88 971 l 479 971 l 458 836 l 67 836 z "},"°":{"ha":453,"x_min":8,"x_max":444,"o":"m 383 963 q 414 934 383 963 q 444 814 444 906 q 383 665 444 722 q 226 607 322 607 q 69 665 131 607 q 8 814 8 722 q 69 963 8 906 q 226 1021 131 1021 q 383 963 322 1021 m 297 736 q 310 750 297 736 q 322 814 322 764 q 297 892 322 864 q 226 919 272 919 q 156 892 181 919 q 131 814 131 864 q 156 736 131 764 q 226 708 181 708 q 297 736 272 708 z "},"±":{"ha":733,"x_min":60,"x_max":674,"o":"m 60 0 l 60 144 l 674 144 l 674 0 l 60 0 m 438 214 l 288 214 l 288 424 l 60 424 l 60 568 l 288 568 l 288 774 l 438 774 l 438 568 l 674 568 l 674 424 l 438 424 l 438 214 z "},"²":{"ha":507,"x_min":32,"x_max":475,"o":"m 475 499 l 475 388 l 32 388 l 32 407 q 69 561 32 508 q 217 689 113 622 q 314 765 290 733 q 338 833 338 799 q 251 914 338 914 q 153 894 201 914 l 133 811 l 49 811 l 40 969 q 267 1014 163 1014 q 423 967 371 1014 q 475 843 475 921 q 419 703 475 758 q 269 589 364 647 q 200 526 210 553 q 194 499 194 514 l 475 499 z "},"³":{"ha":514,"x_min":25,"x_max":472,"o":"m 143 657 l 138 736 q 314 864 314 771 q 294 902 314 888 q 234 917 275 917 q 157 906 193 917 l 144 843 l 60 843 l 51 986 q 266 1014 172 1014 q 406 975 360 1014 q 451 882 451 936 q 310 714 451 764 q 433 667 393 699 q 472 558 472 635 q 406 426 472 482 q 234 369 339 369 q 25 414 129 369 l 51 501 q 213 467 156 467 q 299 494 271 467 q 328 558 328 522 q 235 649 328 638 l 143 657 z "},"´":{"ha":396,"x_min":31,"x_max":340,"o":"m 238 1065 l 340 958 l 163 803 q 109 783 142 783 q 31 829 76 783 l 238 1065 z "},"µ":{"ha":819,"x_min":96,"x_max":796,"o":"m 97 17 l 96 246 l 96 667 l 263 667 l 263 222 q 364 131 263 131 q 458 156 415 131 q 517 200 501 181 l 517 667 l 683 667 l 683 167 q 742 104 683 104 q 796 113 783 104 l 778 7 q 675 -14 733 -14 q 573 13 617 -14 q 525 99 529 40 q 332 -14 440 -14 q 231 6 276 -14 q 299 -315 242 -133 l 124 -347 q 97 17 97 -229 z "},"¶":{"ha":814,"x_min":21,"x_max":765,"o":"m 351 -228 l 351 403 q 95 468 169 403 q 21 685 21 533 q 92 919 21 838 q 351 1000 164 1000 l 500 1000 l 500 -228 l 351 -228 m 617 -228 l 617 1000 l 765 1000 l 765 -228 l 617 -228 z "},"·":{"ha":349,"x_min":60,"x_max":289,"o":"m 180 514 q 215 514 180 514 q 269 487 250 514 q 289 403 289 460 q 260 322 289 346 q 174 299 232 299 q 88 320 115 299 q 60 400 60 342 q 85 486 60 458 q 180 514 110 514 z "},"¸":{"ha":447,"x_min":85,"x_max":378,"o":"m 168 18 l 265 1 l 265 -79 l 303 -92 q 363 -128 347 -107 q 378 -186 378 -149 q 328 -290 378 -253 q 215 -326 279 -326 q 85 -297 151 -326 l 108 -229 q 208 -249 157 -249 q 256 -196 256 -249 q 214 -153 256 -164 l 135 -135 l 168 18 z "},"¹":{"ha":454,"x_min":60,"x_max":407,"o":"m 301 1006 l 301 526 q 307 490 301 500 q 331 478 313 479 l 407 469 l 407 382 l 68 382 l 68 469 l 142 478 q 167 490 161 479 q 172 526 172 500 l 172 871 l 60 824 l 60 935 l 204 1006 l 301 1006 z "},"º":{"ha":482,"x_min":25,"x_max":457,"o":"m 56 403 l 56 515 l 426 515 l 426 403 l 56 403 m 457 796 q 400 644 457 710 q 226 579 343 579 q 25 796 25 579 q 82 949 25 883 q 256 1014 139 1014 q 457 796 457 1014 m 233 917 q 172 894 189 917 q 147 793 147 869 q 249 676 147 676 q 310 697 293 676 q 335 799 335 721 q 233 917 335 917 z "},"»":{"ha":744,"x_min":89,"x_max":690,"o":"m 690 336 l 454 54 q 433 73 447 61 q 413 92 419 85 q 392 136 392 115 q 403 172 392 157 l 506 336 l 403 500 q 392 535 392 518 q 401 564 392 551 q 428 592 410 576 q 454 618 446 608 l 690 336 m 388 336 l 151 54 q 131 73 144 61 q 110 92 117 85 q 89 136 89 115 q 100 172 89 157 l 203 336 l 100 500 q 89 535 89 518 q 98 564 89 551 q 125 592 107 576 q 151 618 143 608 l 388 336 z "},"¼":{"ha":1246,"x_min":60,"x_max":1204,"o":"m 301 526 q 307 490 301 500 q 331 478 313 479 l 407 469 l 407 382 l 68 382 l 68 469 l 142 478 q 167 490 161 479 q 172 526 172 500 l 172 871 l 60 824 l 60 935 l 204 1006 l 301 1006 l 301 526 m 869 1014 l 1006 1014 l 421 0 l 285 0 l 869 1014 m 1204 135 l 1113 135 l 1113 -4 l 983 -4 l 983 135 l 696 135 l 658 210 l 961 626 l 1047 558 l 831 239 l 983 239 l 983 388 l 1113 388 l 1113 239 l 1204 239 l 1204 135 z "},"½":{"ha":1336,"x_min":60,"x_max":1274,"o":"m 301 526 q 307 490 301 500 q 331 478 313 479 l 407 469 l 407 382 l 68 382 l 68 469 l 142 478 q 167 490 161 479 q 172 526 172 500 l 172 871 l 60 824 l 60 935 l 204 1006 l 301 1006 l 301 526 m 869 1014 l 1006 1014 l 421 0 l 285 0 l 869 1014 m 1274 0 l 831 0 l 831 19 q 853 142 831 90 q 903 219 876 194 q 958 263 931 244 q 1022 304 986 281 q 1068 336 1058 328 q 1100 364 1078 344 q 1136 446 1136 399 q 1050 526 1136 526 q 951 507 1000 526 l 932 424 l 847 424 l 839 582 q 1065 626 961 626 q 1222 580 1169 626 q 1274 452 1274 533 q 1218 315 1274 371 q 1165 268 1189 286 q 1116 233 1142 250 q 1069 202 1090 215 q 1038 182 1047 189 q 1011 159 1029 175 q 993 111 993 143 l 1274 111 l 1274 0 z "},"¾":{"ha":1276,"x_min":50,"x_max":1235,"o":"m 168 657 l 163 736 q 339 864 339 771 q 319 902 339 888 q 259 917 300 917 q 182 906 218 917 l 169 843 l 85 843 l 76 986 q 291 1014 197 1014 q 431 975 385 1014 q 476 882 476 936 q 335 714 476 764 q 458 667 418 699 q 497 558 497 635 q 431 426 497 482 q 259 369 364 369 q 50 414 154 369 l 76 501 q 238 467 181 467 q 324 494 296 467 q 353 558 353 522 q 260 649 353 638 l 168 657 m 900 1014 l 1036 1014 l 451 0 l 315 0 l 900 1014 m 1235 239 l 1235 135 l 1143 135 l 1143 -4 l 1014 -4 l 1014 135 l 726 135 l 689 210 l 992 626 l 1078 558 l 861 239 l 1014 239 l 1014 388 l 1143 388 l 1143 239 l 1235 239 z "},"¿":{"ha":614,"x_min":10,"x_max":564,"o":"m 179 -128 q 292 -231 179 -231 q 418 -201 353 -231 l 432 -112 l 549 -112 l 564 -303 q 287 -347 425 -347 q 79 -286 149 -347 q 10 -135 10 -225 q 40 14 10 -46 q 113 106 69 74 q 199 165 156 139 q 274 224 242 192 q 310 300 307 257 l 317 390 l 450 400 q 457 344 450 399 q 464 244 464 289 q 390 126 464 175 q 322 80 358 106 q 253 29 285 54 q 200 -37 221 4 q 179 -128 179 -78 m 269 596 q 379 688 269 688 q 460 667 433 688 q 486 595 486 647 q 462 517 486 543 q 374 492 438 492 q 290 517 310 492 q 269 596 269 542 z "},"À":{"ha":979,"x_min":3,"x_max":976,"o":"m 114 183 l 403 1000 l 568 1000 l 863 183 q 888 136 875 147 q 929 119 900 125 l 976 110 l 976 0 l 575 0 l 575 107 l 644 119 q 682 149 682 125 q 675 181 682 157 l 632 303 l 321 303 l 282 185 q 275 153 275 164 q 314 119 275 125 l 382 107 l 382 0 l 3 0 l 3 110 l 49 119 q 89 136 76 125 q 114 183 101 147 m 583 439 l 490 706 l 472 776 l 458 708 l 367 439 l 583 439 m 258 1193 l 346 1313 l 583 1107 q 497 1049 543 1049 q 456 1063 478 1049 l 258 1193 z "},"Á":{"ha":979,"x_min":3,"x_max":976,"o":"m 114 183 l 403 1000 l 568 1000 l 863 183 q 888 136 875 147 q 929 119 900 125 l 976 110 l 976 0 l 575 0 l 575 107 l 644 119 q 682 149 682 125 q 675 181 682 157 l 632 303 l 321 303 l 282 185 q 275 153 275 164 q 314 119 275 125 l 382 107 l 382 0 l 3 0 l 3 110 l 49 119 q 89 136 76 125 q 114 183 101 147 m 583 439 l 490 706 l 472 776 l 458 708 l 367 439 l 583 439 m 622 1311 l 710 1192 l 513 1061 q 471 1047 490 1047 q 385 1106 425 1047 l 622 1311 z "},"Â":{"ha":979,"x_min":3,"x_max":976,"o":"m 114 183 l 403 1000 l 568 1000 l 863 183 q 888 136 875 147 q 929 119 900 125 l 976 110 l 976 0 l 575 0 l 575 107 l 644 119 q 682 149 682 125 q 675 181 682 157 l 632 303 l 321 303 l 282 185 q 275 153 275 164 q 314 119 275 125 l 382 107 l 382 0 l 3 0 l 3 110 l 49 119 q 89 136 76 125 q 114 183 101 147 m 583 439 l 490 706 l 472 776 l 458 708 l 367 439 l 583 439 m 411 1275 l 563 1275 l 726 1100 l 644 1033 l 486 1169 l 328 1033 l 246 1100 l 411 1275 z "},"Ã":{"ha":979,"x_min":3,"x_max":976,"o":"m 114 183 l 403 1000 l 568 1000 l 863 183 q 888 136 875 147 q 929 119 900 125 l 976 110 l 976 0 l 575 0 l 575 107 l 644 119 q 682 149 682 125 q 675 181 682 157 l 632 303 l 321 303 l 282 185 q 275 153 275 164 q 314 119 275 125 l 382 107 l 382 0 l 3 0 l 3 110 l 49 119 q 89 136 76 125 q 114 183 101 147 m 583 439 l 490 706 l 472 776 l 458 708 l 367 439 l 583 439 m 576 1056 q 477 1081 539 1056 q 378 1107 415 1107 q 283 1069 340 1107 l 250 1153 q 394 1249 314 1249 q 497 1224 436 1249 q 594 1200 558 1200 q 678 1233 631 1200 l 711 1150 q 576 1056 651 1056 z "},"Ä":{"ha":979,"x_min":3,"x_max":976,"o":"m 114 183 l 403 1000 l 568 1000 l 863 183 q 888 136 875 147 q 929 119 900 125 l 976 110 l 976 0 l 575 0 l 575 107 l 644 119 q 682 149 682 125 q 675 181 682 157 l 632 303 l 321 303 l 282 185 q 275 153 275 164 q 314 119 275 125 l 382 107 l 382 0 l 3 0 l 3 110 l 49 119 q 89 136 76 125 q 114 183 101 147 m 583 439 l 490 706 l 472 776 l 458 708 l 367 439 l 583 439 m 339 1233 q 369 1233 339 1233 q 415 1210 399 1233 q 432 1140 432 1188 q 408 1072 432 1092 q 333 1051 383 1051 q 260 1069 283 1051 q 236 1137 236 1088 q 258 1210 236 1186 q 339 1233 279 1233 m 638 1233 q 667 1233 638 1233 q 714 1210 697 1233 q 731 1140 731 1188 q 706 1072 731 1092 q 632 1051 682 1051 q 558 1069 582 1051 q 535 1137 535 1088 q 556 1210 535 1186 q 638 1233 578 1233 z "},"Å":{"ha":979,"x_min":3,"x_max":976,"o":"m 114 183 l 403 1000 l 568 1000 l 863 183 q 888 136 875 147 q 929 119 900 125 l 976 110 l 976 0 l 575 0 l 575 107 l 644 119 q 682 149 682 125 q 675 181 682 157 l 632 303 l 321 303 l 282 185 q 275 153 275 164 q 314 119 275 125 l 382 107 l 382 0 l 3 0 l 3 110 l 49 119 q 89 136 76 125 q 114 183 101 147 m 583 439 l 490 706 l 472 776 l 458 708 l 367 439 l 583 439 m 599 1278 q 619 1257 599 1278 q 639 1181 639 1236 q 595 1081 639 1125 q 481 1038 551 1038 q 372 1079 411 1038 q 332 1176 332 1121 q 376 1276 332 1232 q 490 1319 419 1319 q 599 1278 560 1319 m 542 1183 q 525 1219 542 1206 q 485 1232 508 1232 q 429 1172 429 1232 q 446 1137 429 1150 q 486 1124 463 1124 q 542 1183 542 1124 z "},"Æ":{"ha":1314,"x_min":3,"x_max":1239,"o":"m 328 896 l 328 1000 l 1213 1000 l 1203 725 l 1079 725 l 1072 815 q 1058 848 1071 840 q 1019 856 1046 856 l 794 856 l 794 592 l 1069 592 l 1069 447 l 794 447 l 794 144 l 1047 144 q 1086 152 1074 144 q 1100 185 1099 160 l 1108 289 l 1229 289 l 1239 0 l 510 0 l 510 111 l 578 124 q 610 138 603 126 q 618 176 618 149 l 618 447 l 382 447 l 283 185 q 276 156 276 168 q 315 119 276 126 l 383 107 l 383 0 l 3 0 l 3 110 l 54 119 q 93 135 81 124 q 119 183 106 147 l 393 890 l 328 896 m 618 592 l 618 817 q 610 858 618 844 q 578 872 603 871 l 542 875 l 436 592 l 618 592 z "},"Ç":{"ha":921,"x_min":54,"x_max":860,"o":"m 822 194 l 860 71 q 729 25 818 50 q 492 -14 590 -14 q 54 489 54 -14 q 165 861 54 714 q 313 974 221 933 q 509 1014 406 1014 q 685 999 613 1014 q 853 935 758 985 l 831 694 l 696 694 l 667 840 q 479 868 579 868 q 322 821 379 868 q 266 688 288 792 q 244 499 244 585 q 314 233 244 329 q 521 136 383 136 q 822 194 658 136 m 428 18 l 525 1 l 525 -79 l 563 -92 q 622 -128 607 -107 q 638 -186 638 -149 q 588 -290 638 -253 q 475 -326 539 -326 q 344 -297 411 -326 l 368 -229 q 468 -249 417 -249 q 515 -196 515 -249 q 474 -153 515 -164 l 394 -135 l 428 18 z "},"È":{"ha":879,"x_min":67,"x_max":804,"o":"m 804 0 l 67 0 l 67 111 l 133 124 q 166 140 158 129 q 174 176 174 150 l 174 831 q 166 871 174 858 q 133 886 158 883 l 67 894 l 67 1000 l 799 1000 l 789 725 l 672 725 l 663 815 q 648 848 660 840 q 610 856 636 856 l 350 856 l 350 592 l 643 592 l 643 447 l 350 447 l 350 144 l 611 144 q 650 152 638 144 q 664 185 663 160 l 674 282 l 794 282 l 804 0 m 244 1193 l 332 1313 l 569 1107 q 483 1049 529 1049 q 442 1063 464 1049 l 244 1193 z "},"É":{"ha":879,"x_min":67,"x_max":804,"o":"m 804 0 l 67 0 l 67 111 l 133 124 q 166 140 158 129 q 174 176 174 150 l 174 831 q 166 871 174 858 q 133 886 158 883 l 67 894 l 67 1000 l 799 1000 l 789 725 l 672 725 l 663 815 q 648 848 660 840 q 610 856 636 856 l 350 856 l 350 592 l 643 592 l 643 447 l 350 447 l 350 144 l 611 144 q 650 152 638 144 q 664 185 663 160 l 674 282 l 794 282 l 804 0 m 608 1311 l 696 1192 l 499 1061 q 457 1047 476 1047 q 371 1106 411 1047 l 608 1311 z "},"Ê":{"ha":879,"x_min":67,"x_max":804,"o":"m 804 0 l 67 0 l 67 111 l 133 124 q 166 140 158 129 q 174 176 174 150 l 174 831 q 166 871 174 858 q 133 886 158 883 l 67 894 l 67 1000 l 799 1000 l 789 725 l 672 725 l 663 815 q 648 848 660 840 q 610 856 636 856 l 350 856 l 350 592 l 643 592 l 643 447 l 350 447 l 350 144 l 611 144 q 650 152 638 144 q 664 185 663 160 l 674 282 l 794 282 l 804 0 m 397 1275 l 549 1275 l 713 1100 l 631 1033 l 472 1169 l 314 1033 l 232 1100 l 397 1275 z "},"Ë":{"ha":879,"x_min":67,"x_max":804,"o":"m 804 0 l 67 0 l 67 111 l 133 124 q 166 140 158 129 q 174 176 174 150 l 174 831 q 166 871 174 858 q 133 886 158 883 l 67 894 l 67 1000 l 799 1000 l 789 725 l 672 725 l 663 815 q 648 848 660 840 q 610 856 636 856 l 350 856 l 350 592 l 643 592 l 643 447 l 350 447 l 350 144 l 611 144 q 650 152 638 144 q 664 185 663 160 l 674 282 l 794 282 l 804 0 m 328 1233 q 358 1233 328 1233 q 404 1210 388 1233 q 421 1140 421 1188 q 397 1072 421 1092 q 322 1051 372 1051 q 249 1069 272 1051 q 225 1137 225 1088 q 247 1210 225 1186 q 328 1233 268 1233 m 626 1233 q 656 1233 626 1233 q 703 1210 686 1233 q 719 1140 719 1188 q 695 1072 719 1092 q 621 1051 671 1051 q 547 1069 571 1051 q 524 1137 524 1088 q 545 1210 524 1186 q 626 1233 567 1233 z "},"Ì":{"ha":524,"x_min":33,"x_max":457,"o":"m 457 110 l 457 0 l 67 0 l 67 110 l 133 122 q 166 138 158 128 q 174 175 174 149 l 174 825 q 166 862 174 851 q 133 878 158 872 l 67 890 l 67 1000 l 457 1000 l 457 890 l 390 878 q 358 862 365 872 q 350 825 350 851 l 350 175 q 358 138 350 149 q 390 122 365 128 l 457 110 m 33 1193 l 121 1313 l 358 1107 q 272 1049 318 1049 q 231 1063 253 1049 l 33 1193 z "},"Í":{"ha":524,"x_min":67,"x_max":485,"o":"m 457 110 l 457 0 l 67 0 l 67 110 l 133 122 q 166 138 158 128 q 174 175 174 149 l 174 825 q 166 862 174 851 q 133 878 158 872 l 67 890 l 67 1000 l 457 1000 l 457 890 l 390 878 q 358 862 365 872 q 350 825 350 851 l 350 175 q 358 138 350 149 q 390 122 365 128 l 457 110 m 397 1311 l 485 1192 l 288 1061 q 246 1047 265 1047 q 160 1106 200 1047 l 397 1311 z "},"Î":{"ha":524,"x_min":21,"x_max":501,"o":"m 457 110 l 457 0 l 67 0 l 67 110 l 133 122 q 166 138 158 128 q 174 175 174 149 l 174 825 q 166 862 174 851 q 133 878 158 872 l 67 890 l 67 1000 l 457 1000 l 457 890 l 390 878 q 358 862 365 872 q 350 825 350 851 l 350 175 q 358 138 350 149 q 390 122 365 128 l 457 110 m 186 1275 l 338 1275 l 501 1100 l 419 1033 l 261 1169 l 103 1033 l 21 1100 l 186 1275 z "},"Ï":{"ha":524,"x_min":13,"x_max":507,"o":"m 457 110 l 457 0 l 67 0 l 67 110 l 133 122 q 166 138 158 128 q 174 175 174 149 l 174 825 q 166 862 174 851 q 133 878 158 872 l 67 890 l 67 1000 l 457 1000 l 457 890 l 390 878 q 358 862 365 872 q 350 825 350 851 l 350 175 q 358 138 350 149 q 390 122 365 128 l 457 110 m 115 1233 q 145 1233 115 1233 q 192 1210 175 1233 q 208 1140 208 1188 q 184 1072 208 1092 q 110 1051 160 1051 q 36 1069 60 1051 q 13 1137 13 1088 q 34 1210 13 1186 q 115 1233 56 1233 m 414 1233 q 444 1233 414 1233 q 490 1210 474 1233 q 507 1140 507 1188 q 483 1072 507 1092 q 408 1051 458 1051 q 335 1069 358 1051 q 311 1137 311 1088 q 333 1210 311 1186 q 414 1233 354 1233 z "},"Ð":{"ha":1010,"x_min":67,"x_max":956,"o":"m 490 142 q 699 229 633 142 q 765 512 765 317 q 701 783 765 707 q 490 858 636 858 l 350 858 l 350 142 l 490 142 m 67 1000 l 504 1000 q 849 875 742 1000 q 956 517 956 750 q 843 142 956 285 q 504 0 731 0 l 67 0 l 67 111 l 133 124 q 166 140 158 129 q 174 179 174 151 l 174 831 q 166 871 174 858 q 133 886 158 883 l 67 894 l 67 1000 m 67 422 l 67 572 l 582 572 l 582 422 l 67 422 z "},"Ñ":{"ha":1114,"x_min":67,"x_max":1065,"o":"m 68 1000 l 357 1000 l 783 318 l 783 826 q 776 867 783 854 q 744 882 769 879 l 679 890 l 679 1000 l 1065 1000 l 1065 890 l 1000 882 q 967 867 975 879 q 960 826 960 854 l 960 0 l 776 0 l 350 682 l 350 175 q 358 136 350 147 q 390 122 365 125 l 457 110 l 457 0 l 67 0 l 67 110 l 133 122 q 166 137 158 126 q 174 175 174 147 l 174 826 q 166 867 174 854 q 133 882 158 879 l 68 890 l 68 1000 m 661 1054 q 562 1080 624 1054 q 463 1106 500 1106 q 368 1068 425 1106 l 335 1151 q 479 1247 399 1247 q 582 1223 521 1247 q 679 1199 643 1199 q 763 1232 715 1199 l 796 1149 q 661 1054 736 1054 z "},"Ò":{"ha":1029,"x_min":54,"x_max":975,"o":"m 864 144 q 709 28 807 71 q 482 -14 611 -14 q 157 124 260 -14 q 54 500 54 261 q 167 856 54 710 q 320 972 222 929 q 547 1014 418 1014 q 872 876 769 1014 q 975 515 975 739 q 864 144 975 290 m 785 508 q 710 774 785 679 q 506 869 636 869 q 324 821 376 869 q 265 688 286 786 q 244 492 244 590 q 319 226 244 321 q 524 131 393 131 q 706 179 656 131 q 763 313 742 214 q 785 508 785 411 m 288 1193 l 375 1313 l 613 1107 q 526 1049 572 1049 q 485 1063 507 1049 l 288 1193 z "},"Ó":{"ha":1029,"x_min":54,"x_max":975,"o":"m 864 144 q 709 28 807 71 q 482 -14 611 -14 q 157 124 260 -14 q 54 500 54 261 q 167 856 54 710 q 320 972 222 929 q 547 1014 418 1014 q 872 876 769 1014 q 975 515 975 739 q 864 144 975 290 m 785 508 q 710 774 785 679 q 506 869 636 869 q 324 821 376 869 q 265 688 286 786 q 244 492 244 590 q 319 226 244 321 q 524 131 393 131 q 706 179 656 131 q 763 313 742 214 q 785 508 785 411 m 651 1311 l 739 1192 l 542 1061 q 500 1047 519 1047 q 414 1106 454 1047 l 651 1311 z "},"Ô":{"ha":1029,"x_min":54,"x_max":975,"o":"m 864 144 q 709 28 807 71 q 482 -14 611 -14 q 157 124 260 -14 q 54 500 54 261 q 167 856 54 710 q 320 972 222 929 q 547 1014 418 1014 q 872 876 769 1014 q 975 515 975 739 q 864 144 975 290 m 785 508 q 710 774 785 679 q 506 869 636 869 q 324 821 376 869 q 265 688 286 786 q 244 492 244 590 q 319 226 244 321 q 524 131 393 131 q 706 179 656 131 q 763 313 742 214 q 785 508 785 411 m 440 1275 l 592 1275 l 756 1100 l 674 1033 l 515 1169 l 357 1033 l 275 1100 l 440 1275 z "},"Õ":{"ha":1029,"x_min":54,"x_max":975,"o":"m 864 144 q 709 28 807 71 q 482 -14 611 -14 q 157 124 260 -14 q 54 500 54 261 q 167 856 54 710 q 320 972 222 929 q 547 1014 418 1014 q 872 876 769 1014 q 975 515 975 739 q 864 144 975 290 m 785 508 q 710 774 785 679 q 506 869 636 869 q 324 821 376 869 q 265 688 286 786 q 244 492 244 590 q 319 226 244 321 q 524 131 393 131 q 706 179 656 131 q 763 313 742 214 q 785 508 785 411 m 596 1056 q 497 1081 558 1056 q 397 1107 435 1107 q 303 1069 358 1107 l 269 1153 q 414 1249 333 1249 q 517 1224 456 1249 q 614 1200 578 1200 q 697 1233 650 1200 l 731 1150 q 596 1056 671 1056 z "},"Ö":{"ha":1029,"x_min":54,"x_max":975,"o":"m 864 144 q 709 28 807 71 q 482 -14 611 -14 q 157 124 260 -14 q 54 500 54 261 q 167 856 54 710 q 320 972 222 929 q 547 1014 418 1014 q 872 876 769 1014 q 975 515 975 739 q 864 144 975 290 m 785 508 q 710 774 785 679 q 506 869 636 869 q 324 821 376 869 q 265 688 286 786 q 244 492 244 590 q 319 226 244 321 q 524 131 393 131 q 706 179 656 131 q 763 313 742 214 q 785 508 785 411 m 358 1233 q 388 1233 358 1233 q 435 1210 418 1233 q 451 1140 451 1188 q 427 1072 451 1092 q 353 1051 403 1051 q 279 1069 303 1051 q 256 1137 256 1088 q 277 1210 256 1186 q 358 1233 299 1233 m 657 1233 q 687 1233 657 1233 q 733 1210 717 1233 q 750 1140 750 1188 q 726 1072 750 1092 q 651 1051 701 1051 q 578 1069 601 1051 q 554 1137 554 1088 q 576 1210 554 1186 q 657 1233 597 1233 z "},"×":{"ha":689,"x_min":54,"x_max":635,"o":"m 151 32 l 54 143 l 242 328 l 54 518 l 156 619 l 343 428 l 533 615 l 635 515 l 444 325 l 629 138 l 529 36 l 343 224 l 151 32 z "},"Ø":{"ha":996,"x_min":54,"x_max":975,"o":"m 296 -85 l 178 -28 l 219 63 q 54 500 54 185 q 167 856 54 710 q 320 972 222 929 q 547 1014 418 1014 q 653 1004 597 1014 l 694 1093 l 813 1036 l 776 958 q 975 500 975 843 q 864 144 975 290 q 709 28 807 71 q 482 -14 611 -14 q 336 4 406 -14 l 296 -85 m 785 508 q 699 789 785 694 l 406 156 q 532 131 460 131 q 706 179 656 131 q 763 313 742 214 q 785 508 785 411 m 497 869 q 324 821 376 869 q 265 688 286 786 q 244 492 244 590 q 304 246 244 336 l 586 857 q 497 869 544 869 z "},"Ù":{"ha":1007,"x_min":25,"x_max":982,"o":"m 875 825 l 875 322 q 852 193 875 251 q 792 97 829 135 q 703 33 754 60 q 489 -14 608 -14 q 223 73 314 -14 q 132 322 132 160 l 132 825 q 124 863 132 853 q 92 878 117 874 l 25 890 l 25 1000 l 415 1000 l 415 890 l 349 878 q 316 864 324 875 q 308 825 308 853 l 308 344 q 372 181 308 229 q 528 132 435 132 q 663 165 621 132 q 704 356 704 199 l 704 825 q 697 863 704 853 q 664 878 689 874 l 597 890 l 597 1000 l 982 1000 l 982 890 l 915 878 q 883 864 890 875 q 875 825 875 853 m 276 1193 l 364 1313 l 601 1107 q 515 1049 561 1049 q 474 1063 496 1049 l 276 1193 z "},"Ú":{"ha":1007,"x_min":25,"x_max":982,"o":"m 875 825 l 875 322 q 852 193 875 251 q 792 97 829 135 q 703 33 754 60 q 489 -14 608 -14 q 223 73 314 -14 q 132 322 132 160 l 132 825 q 124 863 132 853 q 92 878 117 874 l 25 890 l 25 1000 l 415 1000 l 415 890 l 349 878 q 316 864 324 875 q 308 825 308 853 l 308 344 q 372 181 308 229 q 528 132 435 132 q 663 165 621 132 q 704 356 704 199 l 704 825 q 697 863 704 853 q 664 878 689 874 l 597 890 l 597 1000 l 982 1000 l 982 890 l 915 878 q 883 864 890 875 q 875 825 875 853 m 640 1311 l 728 1192 l 531 1061 q 489 1047 508 1047 q 403 1106 443 1047 l 640 1311 z "},"Û":{"ha":1007,"x_min":25,"x_max":982,"o":"m 875 825 l 875 322 q 852 193 875 251 q 792 97 829 135 q 703 33 754 60 q 489 -14 608 -14 q 223 73 314 -14 q 132 322 132 160 l 132 825 q 124 863 132 853 q 92 878 117 874 l 25 890 l 25 1000 l 415 1000 l 415 890 l 349 878 q 316 864 324 875 q 308 825 308 853 l 308 344 q 372 181 308 229 q 528 132 435 132 q 663 165 621 132 q 704 356 704 199 l 704 825 q 697 863 704 853 q 664 878 689 874 l 597 890 l 597 1000 l 982 1000 l 982 890 l 915 878 q 883 864 890 875 q 875 825 875 853 m 429 1275 l 581 1275 l 744 1100 l 663 1033 l 504 1169 l 346 1033 l 264 1100 l 429 1275 z "},"Ü":{"ha":1007,"x_min":25,"x_max":982,"o":"m 875 825 l 875 322 q 852 193 875 251 q 792 97 829 135 q 703 33 754 60 q 489 -14 608 -14 q 223 73 314 -14 q 132 322 132 160 l 132 825 q 124 863 132 853 q 92 878 117 874 l 25 890 l 25 1000 l 415 1000 l 415 890 l 349 878 q 316 864 324 875 q 308 825 308 853 l 308 344 q 372 181 308 229 q 528 132 435 132 q 663 165 621 132 q 704 356 704 199 l 704 825 q 697 863 704 853 q 664 878 689 874 l 597 890 l 597 1000 l 982 1000 l 982 890 l 915 878 q 883 864 890 875 q 875 825 875 853 m 358 1233 q 388 1233 358 1233 q 435 1210 418 1233 q 451 1140 451 1188 q 427 1072 451 1092 q 353 1051 403 1051 q 279 1069 303 1051 q 256 1137 256 1088 q 277 1210 256 1186 q 358 1233 299 1233 m 657 1233 q 687 1233 657 1233 q 733 1210 717 1233 q 750 1140 750 1188 q 726 1072 750 1092 q 651 1051 701 1051 q 578 1069 601 1051 q 554 1137 554 1088 q 576 1210 554 1186 q 657 1233 597 1233 z "},"Ý":{"ha":972,"x_min":3,"x_max":969,"o":"m 839 825 l 572 331 l 572 175 q 580 137 572 147 q 613 122 588 126 l 685 110 l 685 0 l 283 0 l 283 110 l 356 122 q 388 137 381 126 q 396 175 396 147 l 396 344 l 133 825 q 103 868 117 856 q 64 883 89 881 l 3 890 l 3 1000 l 415 1000 l 415 892 l 367 883 q 321 857 321 876 q 333 825 321 850 l 501 500 l 663 825 q 672 855 672 843 q 662 872 672 867 q 624 882 651 878 l 575 890 l 575 1000 l 969 1000 l 969 890 l 908 883 q 868 867 879 878 q 839 825 857 857 m 624 1311 l 711 1192 l 514 1061 q 472 1047 492 1047 q 386 1106 426 1047 l 624 1311 z "},"Þ":{"ha":793,"x_min":67,"x_max":776,"o":"m 457 110 l 457 0 l 67 0 l 67 110 l 136 122 q 169 136 161 125 q 176 175 176 147 l 176 825 q 169 863 176 853 q 136 878 161 874 l 67 890 l 67 1000 l 457 1000 l 457 890 l 390 878 q 358 864 365 875 q 350 825 350 853 l 350 821 l 450 821 q 692 767 608 821 q 776 570 776 713 q 669 339 776 428 q 421 250 561 250 l 350 250 l 350 175 q 358 137 350 147 q 390 122 365 126 l 457 110 m 350 379 l 417 379 q 547 406 513 379 q 592 568 592 438 q 438 694 592 694 l 350 694 l 350 379 z "},"ß":{"ha":881,"x_min":42,"x_max":856,"o":"m 469 965 q 353 938 389 965 q 318 842 318 910 l 318 0 l 47 0 l 47 103 l 119 111 q 146 123 140 113 q 151 164 151 133 l 151 560 l 42 560 l 64 668 l 151 681 l 151 764 q 245 1013 151 929 q 508 1097 339 1097 q 699 1041 628 1097 q 769 869 769 985 q 745 749 769 799 q 687 675 721 700 q 619 631 653 650 q 536 529 536 583 q 546 480 536 493 q 560 460 556 467 q 581 445 565 454 q 604 433 597 436 q 635 420 611 431 q 668 406 658 410 q 813 318 771 358 q 856 201 856 278 q 781 44 856 103 q 597 -14 707 -14 q 381 35 486 -14 l 389 207 l 481 207 l 492 126 q 589 99 544 99 q 689 181 689 99 q 659 240 689 217 q 546 295 629 263 q 419 376 463 328 q 376 494 376 425 q 399 599 376 564 q 454 651 422 633 q 519 689 486 669 q 574 751 551 708 q 597 860 597 793 q 469 965 597 965 z "},"à":{"ha":756,"x_min":56,"x_max":725,"o":"m 624 488 l 624 151 q 654 113 624 115 l 725 103 l 725 0 l 476 0 l 465 82 q 263 -14 369 -14 q 106 36 156 -14 q 56 172 56 86 q 109 311 56 257 q 264 379 163 365 l 457 404 l 457 485 q 336 572 457 572 q 232 550 282 572 l 215 458 l 106 458 l 93 629 q 238 676 190 664 q 344 688 285 688 q 544 638 464 688 q 624 488 624 589 m 457 294 l 304 269 q 226 181 226 256 q 304 111 226 111 q 392 138 343 111 q 457 186 440 165 l 457 294 m 133 944 l 236 1051 l 443 815 q 365 769 397 769 q 311 789 332 769 l 133 944 z "},"á":{"ha":756,"x_min":56,"x_max":725,"o":"m 624 488 l 624 151 q 654 113 624 115 l 725 103 l 725 0 l 476 0 l 465 82 q 263 -14 369 -14 q 106 36 156 -14 q 56 172 56 86 q 109 311 56 257 q 264 379 163 365 l 457 404 l 457 485 q 336 572 457 572 q 232 550 282 572 l 215 458 l 106 458 l 93 629 q 238 676 190 664 q 344 688 285 688 q 544 638 464 688 q 624 488 624 589 m 457 294 l 304 269 q 226 181 226 256 q 304 111 226 111 q 392 138 343 111 q 457 186 440 165 l 457 294 m 488 1051 l 590 944 l 413 789 q 359 769 392 769 q 281 815 326 769 l 488 1051 z "},"â":{"ha":756,"x_min":56,"x_max":725,"o":"m 624 488 l 624 151 q 654 113 624 115 l 725 103 l 725 0 l 476 0 l 465 82 q 263 -14 369 -14 q 106 36 156 -14 q 56 172 56 86 q 109 311 56 257 q 264 379 163 365 l 457 404 l 457 485 q 336 572 457 572 q 232 550 282 572 l 215 458 l 106 458 l 93 629 q 238 676 190 664 q 344 688 285 688 q 544 638 464 688 q 624 488 624 589 m 457 294 l 304 269 q 226 181 226 256 q 304 111 226 111 q 392 138 343 111 q 457 186 440 165 l 457 294 m 288 1032 l 439 1032 l 582 829 l 500 763 l 363 926 l 225 763 l 143 829 l 288 1032 z "},"ã":{"ha":756,"x_min":56,"x_max":725,"o":"m 624 488 l 624 151 q 654 113 624 115 l 725 103 l 725 0 l 476 0 l 465 82 q 263 -14 369 -14 q 106 36 156 -14 q 56 172 56 86 q 109 311 56 257 q 264 379 163 365 l 457 404 l 457 485 q 336 572 457 572 q 232 550 282 572 l 215 458 l 106 458 l 93 629 q 238 676 190 664 q 344 688 285 688 q 544 638 464 688 q 624 488 624 589 m 457 294 l 304 269 q 226 181 226 256 q 304 111 226 111 q 392 138 343 111 q 457 186 440 165 l 457 294 m 433 778 q 334 803 396 778 q 235 829 272 829 q 140 792 197 829 l 107 875 q 251 971 171 971 q 354 947 293 971 q 451 922 415 922 q 535 956 488 922 l 568 872 q 433 778 508 778 z "},"ä":{"ha":756,"x_min":56,"x_max":725,"o":"m 624 488 l 624 151 q 654 113 624 115 l 725 103 l 725 0 l 476 0 l 465 82 q 263 -14 369 -14 q 106 36 156 -14 q 56 172 56 86 q 109 311 56 257 q 264 379 163 365 l 457 404 l 457 485 q 336 572 457 572 q 232 550 282 572 l 215 458 l 106 458 l 93 629 q 238 676 190 664 q 344 688 285 688 q 544 638 464 688 q 624 488 624 589 m 457 294 l 304 269 q 226 181 226 256 q 304 111 226 111 q 392 138 343 111 q 457 186 440 165 l 457 294 m 217 956 q 247 956 217 956 q 293 933 276 956 q 310 862 310 910 q 285 794 310 814 q 211 774 261 774 q 138 792 161 774 q 114 859 114 810 q 135 932 114 908 q 217 956 157 956 m 515 956 q 545 956 515 956 q 592 933 575 956 q 608 862 608 910 q 584 794 608 814 q 510 774 560 774 q 436 792 460 774 q 413 859 413 810 q 434 932 413 908 q 515 956 456 956 z "},"å":{"ha":756,"x_min":56,"x_max":725,"o":"m 624 488 l 624 151 q 654 113 624 115 l 725 103 l 725 0 l 476 0 l 465 82 q 263 -14 369 -14 q 106 36 156 -14 q 56 172 56 86 q 109 311 56 257 q 264 379 163 365 l 457 404 l 457 485 q 336 572 457 572 q 232 550 282 572 l 215 458 l 106 458 l 93 629 q 238 676 190 664 q 344 688 285 688 q 544 638 464 688 q 624 488 624 589 m 457 294 l 304 269 q 226 181 226 256 q 304 111 226 111 q 392 138 343 111 q 457 186 440 165 l 457 294 m 476 1014 q 495 993 476 1014 q 515 917 515 972 q 472 817 515 861 q 358 774 428 774 q 248 815 288 774 q 208 913 208 857 q 252 1012 208 968 q 366 1056 296 1056 q 476 1014 436 1056 m 418 919 q 401 955 418 942 q 361 968 385 968 q 306 908 306 968 q 322 873 306 886 q 363 860 339 860 q 418 919 418 860 z "},"æ":{"ha":1106,"x_min":56,"x_max":1054,"o":"m 254 -14 q 106 36 156 -14 q 56 172 56 86 q 109 311 56 257 q 264 379 163 365 l 457 404 l 457 485 q 336 572 457 572 q 232 550 282 572 l 215 458 l 106 458 l 93 629 q 238 676 190 664 q 344 688 285 688 q 539 638 461 688 q 617 488 617 589 l 617 140 l 508 122 q 394 28 471 69 q 254 -14 318 -14 m 457 294 l 304 269 q 226 181 226 256 q 304 111 226 111 q 392 138 343 111 q 457 186 440 165 l 457 294 m 1054 325 l 626 294 q 796 110 638 110 q 1025 150 883 110 l 1051 50 q 757 -14 888 -14 q 489 132 563 -14 l 522 561 q 775 688 610 688 q 997 598 940 688 q 1054 325 1054 508 m 624 404 l 892 426 q 774 564 889 564 q 663 533 690 564 q 624 404 636 501 z "},"ç":{"ha":679,"x_min":47,"x_max":625,"o":"m 603 151 l 625 49 q 451 -7 501 0 q 367 -14 400 -14 q 128 70 210 -14 q 47 318 47 154 q 138 585 47 482 q 385 688 229 688 q 515 670 451 688 q 615 629 579 653 l 603 444 l 493 444 l 469 546 q 361 564 433 564 q 265 531 289 564 q 225 324 225 472 q 266 169 225 228 q 380 110 307 110 q 603 151 453 110 m 303 18 l 400 1 l 400 -79 l 438 -92 q 497 -128 482 -107 q 513 -186 513 -149 q 463 -290 513 -253 q 350 -326 414 -326 q 219 -297 286 -326 l 243 -229 q 343 -249 292 -249 q 390 -196 390 -249 q 349 -153 390 -164 l 269 -135 l 303 18 z "},"è":{"ha":704,"x_min":47,"x_max":653,"o":"m 653 325 l 225 294 q 394 110 236 110 q 624 150 483 110 l 650 50 q 343 -14 486 -14 q 124 78 200 -14 q 47 329 47 169 q 135 588 47 489 q 381 688 222 688 q 596 598 539 688 q 653 325 653 508 m 222 404 l 490 426 q 372 564 488 564 q 262 533 289 564 q 222 404 235 501 m 122 944 l 225 1051 l 432 815 q 353 769 386 769 q 300 789 321 769 l 122 944 z "},"é":{"ha":704,"x_min":47,"x_max":653,"o":"m 653 325 l 225 294 q 394 110 236 110 q 624 150 483 110 l 650 50 q 343 -14 486 -14 q 124 78 200 -14 q 47 329 47 169 q 135 588 47 489 q 381 688 222 688 q 596 598 539 688 q 653 325 653 508 m 222 404 l 490 426 q 372 564 488 564 q 262 533 289 564 q 222 404 235 501 m 485 1051 l 588 944 l 410 789 q 356 769 389 769 q 278 815 324 769 l 485 1051 z "},"ê":{"ha":704,"x_min":47,"x_max":653,"o":"m 653 325 l 225 294 q 394 110 236 110 q 624 150 483 110 l 650 50 q 343 -14 486 -14 q 124 78 200 -14 q 47 329 47 169 q 135 588 47 489 q 381 688 222 688 q 596 598 539 688 q 653 325 653 508 m 222 404 l 490 426 q 372 564 488 564 q 262 533 289 564 q 222 404 235 501 m 282 1039 l 433 1039 l 576 836 l 494 769 l 357 933 l 219 769 l 138 836 l 282 1039 z "},"ë":{"ha":704,"x_min":47,"x_max":653,"o":"m 653 325 l 225 294 q 394 110 236 110 q 624 150 483 110 l 650 50 q 343 -14 486 -14 q 124 78 200 -14 q 47 329 47 169 q 135 588 47 489 q 381 688 222 688 q 596 598 539 688 q 653 325 653 508 m 222 404 l 490 426 q 372 564 488 564 q 262 533 289 564 q 222 404 235 501 m 206 956 q 235 956 206 956 q 282 933 265 956 q 299 862 299 910 q 274 794 299 814 q 200 774 250 774 q 126 792 150 774 q 103 859 103 810 q 124 932 103 908 q 206 956 146 956 m 504 956 q 534 956 504 956 q 581 933 564 956 q 597 862 597 910 q 573 794 597 814 q 499 774 549 774 q 425 792 449 774 q 401 859 401 810 q 423 932 401 908 q 504 956 444 956 z "},"ì":{"ha":446,"x_min":-19,"x_max":411,"o":"m 310 151 q 340 113 310 115 l 411 103 l 411 0 l 42 0 l 42 103 l 113 113 q 143 151 143 115 l 143 524 q 113 563 143 560 l 42 571 l 42 674 l 310 674 l 310 151 m -19 944 l 83 1051 l 290 815 q 212 769 244 769 q 158 789 179 769 l -19 944 z "},"í":{"ha":446,"x_min":42,"x_max":411,"o":"m 310 151 q 340 113 310 115 l 411 103 l 411 0 l 42 0 l 42 103 l 113 113 q 143 151 143 115 l 143 524 q 113 563 143 560 l 42 571 l 42 674 l 310 674 l 310 151 m 301 1051 l 404 944 l 226 789 q 173 769 206 769 q 94 815 140 769 l 301 1051 z "},"î":{"ha":425,"x_min":-33,"x_max":406,"o":"m 304 674 l 304 151 q 335 113 304 115 l 406 103 l 406 0 l 36 0 l 36 103 l 107 113 q 138 151 138 115 l 138 524 q 107 563 138 560 l 36 571 l 36 674 l 304 674 m 111 1032 l 263 1032 l 406 829 l 324 763 l 186 926 l 49 763 l -33 829 l 111 1032 z "},"ï":{"ha":446,"x_min":-54,"x_max":440,"o":"m 310 151 q 340 113 310 115 l 411 103 l 411 0 l 42 0 l 42 103 l 113 113 q 143 151 143 115 l 143 524 q 113 563 143 560 l 42 571 l 42 674 l 310 674 l 310 151 m 49 956 q 78 956 49 956 q 125 933 108 956 q 142 862 142 910 q 117 794 142 814 q 43 774 93 774 q -31 792 -7 774 q -54 859 -54 810 q -33 932 -54 908 q 49 956 -11 956 m 347 956 q 377 956 347 956 q 424 933 407 956 q 440 862 440 910 q 416 794 440 814 q 342 774 392 774 q 268 792 292 774 q 244 859 244 810 q 266 932 244 908 q 347 956 288 956 z "},"ð":{"ha":718,"x_min":13,"x_max":671,"o":"m 332 561 q 235 524 275 561 q 201 447 213 504 q 189 335 189 389 q 227 171 189 229 q 338 113 265 113 q 440 149 411 113 q 488 334 488 201 q 458 514 488 467 q 332 561 429 561 m 551 1006 l 193 782 l 133 878 l 492 1099 l 551 1006 m 671 397 q 581 100 671 214 q 307 -14 492 -14 q 84 81 156 -14 q 13 340 13 176 q 103 572 13 465 q 212 656 144 624 q 360 688 279 688 q 430 671 396 688 q 474 633 464 654 q 149 1008 415 860 l 213 1107 q 481 913 375 1031 q 628 669 586 796 q 671 397 671 543 z "},"ñ":{"ha":872,"x_min":42,"x_max":840,"o":"m 840 0 l 572 0 l 572 442 q 542 524 572 496 q 460 553 513 553 q 310 488 375 553 l 310 151 q 340 113 310 115 l 411 103 l 411 0 l 42 0 l 42 103 l 113 113 q 143 151 143 115 l 143 522 q 113 561 143 558 l 42 571 l 42 674 l 276 674 l 288 581 q 385 656 328 625 q 503 688 442 688 q 682 628 625 688 q 739 481 739 568 l 739 151 q 769 113 739 115 l 840 103 l 840 0 m 528 792 q 428 817 490 792 q 329 843 367 843 q 235 806 292 843 l 201 889 q 346 985 265 985 q 449 960 388 985 q 546 936 510 936 q 629 969 582 936 l 663 886 q 528 792 603 792 z "},"ò":{"ha":782,"x_min":47,"x_max":735,"o":"m 735 336 q 651 100 735 206 q 536 17 610 49 q 368 -14 463 -14 q 125 81 203 -14 q 47 336 47 175 q 131 572 47 467 q 245 656 172 625 q 413 688 318 688 q 657 593 579 688 q 735 336 735 499 m 557 343 q 510 505 557 446 q 385 564 464 564 q 272 531 306 564 q 237 449 249 508 q 225 331 225 390 q 271 168 225 226 q 396 110 317 110 q 508 143 475 110 q 544 224 532 165 q 557 343 557 283 m 164 944 l 267 1051 l 474 815 q 395 769 428 769 q 342 789 363 769 l 164 944 z "},"ó":{"ha":782,"x_min":47,"x_max":735,"o":"m 735 336 q 651 100 735 206 q 536 17 610 49 q 368 -14 463 -14 q 125 81 203 -14 q 47 336 47 175 q 131 572 47 467 q 245 656 172 625 q 413 688 318 688 q 657 593 579 688 q 735 336 735 499 m 557 343 q 510 505 557 446 q 385 564 464 564 q 272 531 306 564 q 237 449 249 508 q 225 331 225 390 q 271 168 225 226 q 396 110 317 110 q 508 143 475 110 q 544 224 532 165 q 557 343 557 283 m 526 1051 l 629 944 l 451 789 q 398 769 431 769 q 319 815 365 769 l 526 1051 z "},"ô":{"ha":782,"x_min":47,"x_max":735,"o":"m 735 336 q 651 100 735 206 q 536 17 610 49 q 368 -14 463 -14 q 125 81 203 -14 q 47 336 47 175 q 131 572 47 467 q 245 656 172 625 q 413 688 318 688 q 657 593 579 688 q 735 336 735 499 m 557 343 q 510 505 557 446 q 385 564 464 564 q 272 531 306 564 q 237 449 249 508 q 225 331 225 390 q 271 168 225 226 q 396 110 317 110 q 508 143 475 110 q 544 224 532 165 q 557 343 557 283 m 318 999 l 469 999 l 613 796 l 531 729 l 393 893 l 256 729 l 174 796 l 318 999 z "},"õ":{"ha":782,"x_min":47,"x_max":735,"o":"m 735 336 q 651 100 735 206 q 536 17 610 49 q 368 -14 463 -14 q 125 81 203 -14 q 47 336 47 175 q 131 572 47 467 q 245 656 172 625 q 413 688 318 688 q 657 593 579 688 q 735 336 735 499 m 557 343 q 510 505 557 446 q 385 564 464 564 q 272 531 306 564 q 237 449 249 508 q 225 331 225 390 q 271 168 225 226 q 396 110 317 110 q 508 143 475 110 q 544 224 532 165 q 557 343 557 283 m 485 778 q 385 803 447 778 q 285 829 324 829 q 192 792 247 829 l 158 875 q 303 971 222 971 q 406 947 344 971 q 503 922 467 922 q 586 956 539 922 l 619 872 q 485 778 560 778 z "},"ö":{"ha":782,"x_min":47,"x_max":735,"o":"m 735 336 q 651 100 735 206 q 536 17 610 49 q 368 -14 463 -14 q 125 81 203 -14 q 47 336 47 175 q 131 572 47 467 q 245 656 172 625 q 413 688 318 688 q 657 593 579 688 q 735 336 735 499 m 557 343 q 510 505 557 446 q 385 564 464 564 q 272 531 306 564 q 237 449 249 508 q 225 331 225 390 q 271 168 225 226 q 396 110 317 110 q 508 143 475 110 q 544 224 532 165 q 557 343 557 283 m 247 956 q 277 956 247 956 q 324 933 307 956 q 340 862 340 910 q 316 794 340 814 q 242 774 292 774 q 168 792 192 774 q 144 859 144 810 q 166 932 144 908 q 247 956 188 956 m 546 956 q 576 956 546 956 q 622 933 606 956 q 639 862 639 910 q 615 794 639 814 q 540 774 590 774 q 467 792 490 774 q 443 859 443 810 q 465 932 443 908 q 546 956 486 956 z "},"÷":{"ha":725,"x_min":56,"x_max":669,"o":"m 463 572 q 358 483 463 483 q 282 503 307 483 q 257 573 257 522 q 280 649 257 624 q 365 674 303 674 q 444 649 426 674 q 463 572 463 625 m 463 89 q 358 0 463 0 q 282 19 307 0 q 257 90 257 39 q 280 165 257 140 q 365 190 303 190 q 444 166 426 190 q 463 89 463 142 m 56 269 l 56 404 l 669 404 l 669 269 l 56 269 z "},"ø":{"ha":754,"x_min":47,"x_max":735,"o":"m 226 -83 l 115 -31 l 154 51 q 47 336 47 139 q 131 572 47 467 q 245 656 172 625 q 413 688 318 688 q 457 685 429 688 l 490 754 l 601 701 l 578 653 q 735 336 735 576 q 651 100 735 206 q 536 17 610 49 q 387 -14 463 -14 q 265 -1 311 -14 l 226 -83 m 557 343 q 508 507 557 450 l 325 125 q 401 110 360 110 q 508 143 475 110 q 544 224 532 165 q 557 343 557 283 m 379 564 q 272 531 306 564 q 237 449 249 508 q 225 330 225 390 q 239 228 225 269 l 399 563 q 379 564 393 564 z "},"ù":{"ha":842,"x_min":17,"x_max":807,"o":"m 539 199 l 539 522 q 508 561 539 558 l 438 571 l 438 674 l 706 674 l 706 151 q 736 113 706 115 l 807 103 l 807 0 l 572 0 l 561 93 q 471 19 526 53 q 354 -14 415 -14 q 179 40 240 -14 q 118 192 118 93 l 118 522 q 88 561 118 558 l 17 571 l 17 674 l 285 674 l 285 233 q 386 117 285 117 q 485 149 438 117 q 539 199 532 181 m 140 944 l 243 1051 l 450 815 q 372 769 404 769 q 318 789 339 769 l 140 944 z "},"ú":{"ha":843,"x_min":18,"x_max":808,"o":"m 540 199 l 540 522 q 510 561 540 558 l 439 571 l 439 674 l 707 674 l 707 151 q 738 113 707 115 l 808 103 l 808 0 l 574 0 l 563 93 q 472 19 528 53 q 356 -14 417 -14 q 181 40 242 -14 q 119 192 119 93 l 119 522 q 89 561 119 558 l 18 571 l 18 674 l 286 674 l 286 233 q 388 117 286 117 q 486 149 439 117 q 540 199 533 181 m 504 1051 l 607 944 l 429 789 q 376 769 408 769 q 297 815 343 769 l 504 1051 z "},"û":{"ha":843,"x_min":18,"x_max":808,"o":"m 540 199 l 540 522 q 510 561 540 558 l 439 571 l 439 674 l 707 674 l 707 151 q 738 113 707 115 l 808 103 l 808 0 l 574 0 l 563 93 q 472 19 528 53 q 356 -14 417 -14 q 181 40 242 -14 q 119 192 119 93 l 119 522 q 89 561 119 558 l 18 571 l 18 674 l 286 674 l 286 233 q 388 117 286 117 q 486 149 439 117 q 540 199 533 181 m 332 1039 l 483 1039 l 626 836 l 544 769 l 407 933 l 269 769 l 188 836 l 332 1039 z "},"ü":{"ha":843,"x_min":18,"x_max":808,"o":"m 540 199 l 540 522 q 510 561 540 558 l 439 571 l 439 674 l 707 674 l 707 151 q 738 113 707 115 l 808 103 l 808 0 l 574 0 l 563 93 q 472 19 528 53 q 356 -14 417 -14 q 181 40 242 -14 q 119 192 119 93 l 119 522 q 89 561 119 558 l 18 571 l 18 674 l 286 674 l 286 233 q 388 117 286 117 q 486 149 439 117 q 540 199 533 181 m 253 956 q 283 956 253 956 q 329 933 313 956 q 346 862 346 910 q 322 794 346 814 q 247 774 297 774 q 174 792 197 774 q 150 859 150 810 q 172 932 150 908 q 253 956 193 956 m 551 956 q 581 956 551 956 q 628 933 611 956 q 644 862 644 910 q 620 794 644 814 q 546 774 596 774 q 472 792 496 774 q 449 859 449 810 q 470 932 449 908 q 551 956 492 956 z "},"ý":{"ha":783,"x_min":3,"x_max":781,"o":"m 675 511 l 415 -167 q 185 -347 346 -347 q 39 -325 99 -347 l 21 -203 q 147 -218 86 -218 q 290 -97 246 -218 l 314 -29 l 107 511 q 85 552 96 542 q 60 564 74 563 l 3 572 l 3 674 l 346 674 l 346 572 l 285 564 q 265 546 265 560 q 275 511 265 536 l 403 160 l 525 511 q 535 550 535 538 q 517 564 535 563 l 456 572 l 456 674 l 781 674 l 781 572 l 724 564 q 695 549 704 561 q 675 511 686 538 m 503 1051 l 606 944 l 428 789 q 374 769 407 769 q 296 815 342 769 l 503 1051 z "},"þ":{"ha":774,"x_min":-3,"x_max":726,"o":"m 265 1083 l 265 599 q 444 688 354 688 q 651 596 576 688 q 726 347 726 504 q 627 88 726 190 q 376 -14 528 -14 q 265 10 318 -14 l 265 -182 q 296 -221 265 -218 l 382 -231 l 382 -333 l -3 -333 l -3 -231 l 68 -221 q 99 -182 99 -218 l 99 933 q 68 972 99 969 l -3 981 l -3 1083 l 265 1083 m 265 483 l 265 154 q 322 125 283 140 q 394 110 361 110 q 503 146 468 110 q 549 346 549 194 q 404 564 549 564 q 325 536 369 564 q 265 483 281 508 z "},"ÿ":{"ha":783,"x_min":3,"x_max":781,"o":"m 675 511 l 415 -167 q 185 -347 346 -347 q 39 -325 99 -347 l 21 -203 q 147 -218 86 -218 q 290 -97 246 -218 l 314 -29 l 107 511 q 85 552 96 542 q 60 564 74 563 l 3 572 l 3 674 l 346 674 l 346 572 l 285 564 q 265 546 265 560 q 275 511 265 536 l 403 160 l 525 511 q 535 550 535 538 q 517 564 535 563 l 456 572 l 456 674 l 781 674 l 781 572 l 724 564 q 695 549 704 561 q 675 511 686 538 m 229 956 q 259 956 229 956 q 306 933 289 956 q 322 862 322 910 q 298 794 322 814 q 224 774 274 774 q 150 792 174 774 q 126 859 126 810 q 148 932 126 908 q 229 956 169 956 m 528 956 q 558 956 528 956 q 604 933 588 956 q 621 862 621 910 q 597 794 621 814 q 522 774 572 774 q 449 792 472 774 q 425 859 425 810 q 447 932 425 908 q 528 956 468 956 z "},"Ā":{"ha":979,"x_min":3,"x_max":976,"o":"m 114 183 l 403 1000 l 568 1000 l 863 183 q 888 136 875 147 q 929 119 900 125 l 976 110 l 976 0 l 575 0 l 575 107 l 644 119 q 682 149 682 125 q 675 181 682 157 l 632 303 l 321 303 l 282 185 q 275 153 275 164 q 314 119 275 125 l 382 107 l 382 0 l 3 0 l 3 110 l 49 119 q 89 136 76 125 q 114 183 101 147 m 583 439 l 490 706 l 472 776 l 458 708 l 367 439 l 583 439 m 285 1100 l 306 1235 l 697 1235 l 676 1100 l 285 1100 z "},"ā":{"ha":756,"x_min":56,"x_max":725,"o":"m 624 488 l 624 151 q 654 113 624 115 l 725 103 l 725 0 l 476 0 l 465 82 q 263 -14 369 -14 q 106 36 156 -14 q 56 172 56 86 q 109 311 56 257 q 264 379 163 365 l 457 404 l 457 485 q 336 572 457 572 q 232 550 282 572 l 215 458 l 106 458 l 93 629 q 238 676 190 664 q 344 688 285 688 q 544 638 464 688 q 624 488 624 589 m 457 294 l 304 269 q 226 181 226 256 q 304 111 226 111 q 392 138 343 111 q 457 186 440 165 l 457 294 m 161 836 l 182 971 l 574 971 l 553 836 l 161 836 z "},"Ă":{"ha":979,"x_min":3,"x_max":976,"o":"m 114 183 l 403 1000 l 568 1000 l 863 183 q 888 136 875 147 q 929 119 900 125 l 976 110 l 976 0 l 575 0 l 575 107 l 644 119 q 682 149 682 125 q 675 181 682 157 l 632 303 l 321 303 l 282 185 q 275 153 275 164 q 314 119 275 125 l 382 107 l 382 0 l 3 0 l 3 110 l 49 119 q 89 136 76 125 q 114 183 101 147 m 583 439 l 490 706 l 472 776 l 458 708 l 367 439 l 583 439 m 628 1268 l 710 1242 q 628 1110 685 1161 q 485 1060 571 1060 q 340 1110 399 1060 q 256 1242 282 1161 l 344 1268 q 486 1179 399 1179 q 628 1268 574 1179 z "},"ă":{"ha":756,"x_min":56,"x_max":725,"o":"m 624 488 l 624 151 q 654 113 624 115 l 725 103 l 725 0 l 476 0 l 465 82 q 263 -14 369 -14 q 106 36 156 -14 q 56 172 56 86 q 109 311 56 257 q 264 379 163 365 l 457 404 l 457 485 q 336 572 457 572 q 232 550 282 572 l 215 458 l 106 458 l 93 629 q 238 676 190 664 q 344 688 285 688 q 544 638 464 688 q 624 488 624 589 m 457 294 l 304 269 q 226 181 226 256 q 304 111 226 111 q 392 138 343 111 q 457 186 440 165 l 457 294 m 504 1004 l 586 978 q 504 847 561 897 q 361 796 447 796 q 217 847 275 796 q 132 978 158 897 l 221 1004 q 363 915 275 915 q 504 1004 450 915 z "},"Ą":{"ha":979,"x_min":3,"x_max":981,"o":"m 114 183 l 403 1000 l 568 1000 l 863 183 q 888 136 875 147 q 929 119 900 125 l 976 110 l 976 0 l 575 0 l 575 107 l 644 119 q 682 149 682 125 q 675 181 682 157 l 632 303 l 321 303 l 282 185 q 275 153 275 164 q 314 119 275 125 l 382 107 l 382 0 l 3 0 l 3 110 l 49 119 q 89 136 76 125 q 114 183 101 147 m 583 439 l 490 706 l 472 776 l 458 708 l 367 439 l 583 439 m 686 -185 q 686 -161 686 -185 q 699 -117 686 -136 q 719 -87 713 -97 q 745 -63 726 -78 q 770 -43 764 -49 q 801 -21 776 -37 q 832 0 826 -4 l 976 0 q 879 -69 943 -15 q 813 -162 813 -121 q 826 -199 813 -183 q 867 -215 840 -215 q 957 -197 893 -215 l 981 -278 l 960 -287 q 826 -319 889 -319 q 725 -277 764 -319 q 686 -185 686 -235 z "},"ą":{"ha":756,"x_min":56,"x_max":729,"o":"m 624 488 l 624 151 q 654 113 624 115 l 725 103 l 725 0 l 476 0 l 465 82 q 263 -14 369 -14 q 106 36 156 -14 q 56 172 56 86 q 109 311 56 257 q 264 379 163 365 l 457 404 l 457 485 q 336 572 457 572 q 232 550 282 572 l 215 458 l 106 458 l 93 629 q 238 676 190 664 q 344 688 285 688 q 544 638 464 688 q 624 488 624 589 m 457 294 l 304 269 q 226 181 226 256 q 304 111 226 111 q 392 138 343 111 q 457 186 440 165 l 457 294 m 435 -185 q 435 -161 435 -185 q 448 -117 435 -136 q 468 -87 461 -97 q 494 -63 475 -78 q 519 -43 513 -49 q 550 -21 525 -37 q 581 0 575 -4 l 725 0 q 628 -69 692 -15 q 561 -162 561 -121 q 575 -199 561 -183 q 615 -215 589 -215 q 706 -197 642 -215 l 729 -278 l 708 -287 q 575 -319 638 -319 q 474 -277 513 -319 q 435 -185 435 -235 z "},"Ć":{"ha":921,"x_min":54,"x_max":860,"o":"m 822 194 l 860 71 q 729 25 818 50 q 492 -14 590 -14 q 54 489 54 -14 q 165 861 54 714 q 313 974 221 933 q 509 1014 406 1014 q 685 999 613 1014 q 853 935 758 985 l 831 694 l 696 694 l 667 840 q 479 868 579 868 q 322 821 379 868 q 266 688 288 792 q 244 499 244 585 q 314 233 244 329 q 521 136 383 136 q 822 194 658 136 m 594 1311 l 682 1192 l 485 1061 q 443 1047 463 1047 q 357 1106 397 1047 l 594 1311 z "},"ć":{"ha":679,"x_min":47,"x_max":625,"o":"m 603 151 l 625 49 q 451 -7 501 0 q 367 -14 400 -14 q 128 70 210 -14 q 47 318 47 154 q 138 585 47 482 q 385 688 229 688 q 515 670 451 688 q 615 629 579 653 l 603 444 l 493 444 l 469 546 q 361 564 433 564 q 265 531 289 564 q 225 324 225 472 q 266 169 225 228 q 380 110 307 110 q 603 151 453 110 m 461 1050 l 564 943 l 386 788 q 333 768 365 768 q 254 814 300 768 l 461 1050 z "},"Ĉ":{"ha":921,"x_min":54,"x_max":860,"o":"m 822 194 l 860 71 q 729 25 818 50 q 492 -14 590 -14 q 54 489 54 -14 q 165 861 54 714 q 313 974 221 933 q 509 1014 406 1014 q 685 999 613 1014 q 853 935 758 985 l 831 694 l 696 694 l 667 840 q 479 868 579 868 q 322 821 379 868 q 266 688 288 792 q 244 499 244 585 q 314 233 244 329 q 521 136 383 136 q 822 194 658 136 m 413 1275 l 564 1275 l 728 1100 l 646 1033 l 488 1169 l 329 1033 l 247 1100 l 413 1275 z "},"ĉ":{"ha":679,"x_min":47,"x_max":625,"o":"m 603 151 l 625 49 q 451 -7 501 0 q 367 -14 400 -14 q 128 70 210 -14 q 47 318 47 154 q 138 585 47 482 q 385 688 229 688 q 515 670 451 688 q 615 629 579 653 l 603 444 l 493 444 l 469 546 q 361 564 433 564 q 265 531 289 564 q 225 324 225 472 q 266 169 225 228 q 380 110 307 110 q 603 151 453 110 m 275 1032 l 426 1032 l 569 829 l 488 763 l 350 926 l 213 763 l 131 829 l 275 1032 z "},"Ċ":{"ha":921,"x_min":54,"x_max":860,"o":"m 822 194 l 860 71 q 729 25 818 50 q 492 -14 590 -14 q 54 489 54 -14 q 165 861 54 714 q 313 974 221 933 q 509 1014 406 1014 q 685 999 613 1014 q 853 935 758 985 l 831 694 l 696 694 l 667 840 q 479 868 579 868 q 322 821 379 868 q 266 688 288 792 q 244 499 244 585 q 314 233 244 329 q 521 136 383 136 q 822 194 658 136 m 466 1281 q 501 1281 466 1281 q 556 1253 536 1281 q 575 1169 575 1226 q 547 1089 575 1113 q 460 1065 518 1065 q 374 1087 401 1065 q 346 1167 346 1108 q 371 1253 346 1225 q 466 1281 396 1281 z "},"ċ":{"ha":679,"x_min":47,"x_max":625,"o":"m 603 151 l 625 49 q 451 -7 501 0 q 367 -14 400 -14 q 128 70 210 -14 q 47 318 47 154 q 138 585 47 482 q 385 688 229 688 q 515 670 451 688 q 615 629 579 653 l 603 444 l 493 444 l 469 546 q 361 564 433 564 q 265 531 289 564 q 225 324 225 472 q 266 169 225 228 q 380 110 307 110 q 603 151 453 110 m 358 989 q 393 989 358 989 q 447 962 428 989 q 467 878 467 935 q 438 797 467 821 q 351 774 410 774 q 265 795 293 774 q 238 875 238 817 q 263 961 238 933 q 358 989 288 989 z "},"Č":{"ha":921,"x_min":54,"x_max":860,"o":"m 822 194 l 860 71 q 729 25 818 50 q 492 -14 590 -14 q 54 489 54 -14 q 165 861 54 714 q 313 974 221 933 q 509 1014 406 1014 q 685 999 613 1014 q 853 935 758 985 l 831 694 l 696 694 l 667 840 q 479 868 579 868 q 322 821 379 868 q 266 688 288 792 q 244 499 244 585 q 314 233 244 329 q 521 136 383 136 q 822 194 658 136 m 563 1047 l 411 1047 l 246 1222 l 328 1289 l 486 1153 l 644 1289 l 726 1222 l 563 1047 z "},"č":{"ha":679,"x_min":47,"x_max":625,"o":"m 603 151 l 625 49 q 451 -7 501 0 q 367 -14 400 -14 q 128 70 210 -14 q 47 318 47 154 q 138 585 47 482 q 385 688 229 688 q 515 670 451 688 q 615 629 579 653 l 603 444 l 493 444 l 469 546 q 361 564 433 564 q 265 531 289 564 q 225 324 225 472 q 266 169 225 228 q 380 110 307 110 q 603 151 453 110 m 426 778 l 275 778 l 131 981 l 213 1047 l 350 883 l 488 1047 l 569 981 l 426 778 z "},"Ď":{"ha":1010,"x_min":67,"x_max":956,"o":"m 490 142 q 699 229 633 142 q 765 512 765 317 q 701 783 765 707 q 490 858 636 858 l 350 858 l 350 142 l 490 142 m 67 1000 l 504 1000 q 849 875 742 1000 q 956 517 956 750 q 843 142 956 285 q 504 0 731 0 l 67 0 l 67 111 l 133 124 q 166 140 158 129 q 174 179 174 151 l 174 831 q 166 871 174 858 q 133 886 158 883 l 67 894 l 67 1000 m 485 1047 l 333 1047 l 168 1222 l 250 1289 l 408 1153 l 567 1289 l 649 1222 l 485 1047 z "},"ď":{"ha":944,"x_min":39,"x_max":940,"o":"m 940 958 q 894 828 940 888 q 789 742 849 768 l 743 789 q 806 839 779 811 q 833 888 833 867 q 818 883 825 883 q 752 909 775 883 q 729 972 729 935 q 831 1060 729 1060 q 913 1031 886 1060 q 940 958 940 1003 m 499 190 l 499 525 q 378 564 453 564 q 263 531 303 564 q 228 451 240 514 q 217 335 217 388 q 360 110 217 110 q 439 135 401 110 q 499 190 476 161 m 382 1083 l 665 1083 l 665 151 q 696 113 665 115 l 767 103 l 767 0 l 518 0 l 507 82 q 319 -14 411 -14 q 114 74 189 -14 q 39 315 39 161 q 133 578 39 468 q 390 688 228 688 q 499 669 422 688 l 499 933 q 468 972 499 969 l 382 981 l 382 1083 z "},"Đ":{"ha":1010,"x_min":67,"x_max":956,"o":"m 490 142 q 699 229 633 142 q 765 512 765 317 q 701 783 765 707 q 490 858 636 858 l 350 858 l 350 142 l 490 142 m 67 1000 l 504 1000 q 849 875 742 1000 q 956 517 956 750 q 843 142 956 285 q 504 0 731 0 l 67 0 l 67 111 l 133 124 q 166 140 158 129 q 174 179 174 151 l 174 831 q 166 871 174 858 q 133 886 158 883 l 67 894 l 67 1000 m 67 422 l 67 572 l 582 572 l 582 422 l 67 422 z "},"đ":{"ha":814,"x_min":39,"x_max":767,"o":"m 499 190 l 499 525 q 378 564 453 564 q 263 531 303 564 q 228 451 240 514 q 217 335 217 388 q 360 110 217 110 q 439 135 401 110 q 499 190 476 161 m 382 1083 l 665 1083 l 665 151 q 696 113 665 115 l 767 103 l 767 0 l 518 0 l 507 82 q 319 -14 411 -14 q 114 74 189 -14 q 39 315 39 161 q 133 578 39 468 q 390 688 228 688 q 499 669 422 688 l 499 933 q 468 972 499 969 l 382 981 l 382 1083 m 751 907 l 751 779 l 206 779 l 206 907 l 751 907 z "},"Ē":{"ha":879,"x_min":67,"x_max":804,"o":"m 804 0 l 67 0 l 67 111 l 133 124 q 166 140 158 129 q 174 176 174 150 l 174 831 q 166 871 174 858 q 133 886 158 883 l 67 894 l 67 1000 l 799 1000 l 789 725 l 672 725 l 663 815 q 648 848 660 840 q 610 856 636 856 l 350 856 l 350 592 l 643 592 l 643 447 l 350 447 l 350 144 l 611 144 q 650 152 638 144 q 664 185 663 160 l 674 282 l 794 282 l 804 0 m 271 1100 l 292 1235 l 683 1235 l 663 1100 l 271 1100 z "},"ē":{"ha":704,"x_min":47,"x_max":653,"o":"m 653 325 l 225 294 q 394 110 236 110 q 624 150 483 110 l 650 50 q 343 -14 486 -14 q 124 78 200 -14 q 47 329 47 169 q 135 588 47 489 q 381 688 222 688 q 596 598 539 688 q 653 325 653 508 m 222 404 l 490 426 q 372 564 488 564 q 262 533 289 564 q 222 404 235 501 m 156 843 l 176 978 l 568 978 l 547 843 l 156 843 z "},"Ĕ":{"ha":879,"x_min":67,"x_max":804,"o":"m 804 0 l 67 0 l 67 111 l 133 124 q 166 140 158 129 q 174 176 174 150 l 174 831 q 166 871 174 858 q 133 886 158 883 l 67 894 l 67 1000 l 799 1000 l 789 725 l 672 725 l 663 815 q 648 848 660 840 q 610 856 636 856 l 350 856 l 350 592 l 643 592 l 643 447 l 350 447 l 350 144 l 611 144 q 650 152 638 144 q 664 185 663 160 l 674 282 l 794 282 l 804 0 m 614 1268 l 696 1242 q 614 1110 671 1161 q 471 1060 557 1060 q 326 1110 385 1060 q 242 1242 268 1161 l 331 1268 q 472 1179 385 1179 q 614 1268 560 1179 z "},"ĕ":{"ha":704,"x_min":47,"x_max":653,"o":"m 653 325 l 225 294 q 394 110 236 110 q 624 150 483 110 l 650 50 q 343 -14 486 -14 q 124 78 200 -14 q 47 329 47 169 q 135 588 47 489 q 381 688 222 688 q 596 598 539 688 q 653 325 653 508 m 222 404 l 490 426 q 372 564 488 564 q 262 533 289 564 q 222 404 235 501 m 499 1011 l 581 985 q 499 853 556 904 q 356 803 442 803 q 211 853 269 803 q 126 985 153 904 l 215 1011 q 357 922 269 922 q 499 1011 444 922 z "},"Ė":{"ha":879,"x_min":67,"x_max":804,"o":"m 804 0 l 67 0 l 67 111 l 133 124 q 166 140 158 129 q 174 176 174 150 l 174 831 q 166 871 174 858 q 133 886 158 883 l 67 894 l 67 1000 l 799 1000 l 789 725 l 672 725 l 663 815 q 648 848 660 840 q 610 856 636 856 l 350 856 l 350 592 l 643 592 l 643 447 l 350 447 l 350 144 l 611 144 q 650 152 638 144 q 664 185 663 160 l 674 282 l 794 282 l 804 0 m 480 1281 q 515 1281 480 1281 q 569 1253 550 1281 q 589 1169 589 1226 q 560 1089 589 1113 q 474 1065 532 1065 q 388 1087 415 1065 q 360 1167 360 1108 q 385 1253 360 1225 q 480 1281 410 1281 z "},"ė":{"ha":704,"x_min":47,"x_max":653,"o":"m 653 325 l 225 294 q 394 110 236 110 q 624 150 483 110 l 650 50 q 343 -14 486 -14 q 124 78 200 -14 q 47 329 47 169 q 135 588 47 489 q 381 688 222 688 q 596 598 539 688 q 653 325 653 508 m 222 404 l 490 426 q 372 564 488 564 q 262 533 289 564 q 222 404 235 501 m 365 996 q 400 996 365 996 q 454 969 435 996 q 474 885 474 942 q 445 804 474 828 q 358 781 417 781 q 272 802 300 781 q 244 882 244 824 q 269 968 244 940 q 365 996 294 996 z "},"Ę":{"ha":879,"x_min":67,"x_max":808,"o":"m 804 0 l 67 0 l 67 111 l 133 124 q 166 140 158 129 q 174 176 174 150 l 174 831 q 166 871 174 858 q 133 886 158 883 l 67 894 l 67 1000 l 799 1000 l 789 725 l 672 725 l 663 815 q 648 848 660 840 q 610 856 636 856 l 350 856 l 350 592 l 643 592 l 643 447 l 350 447 l 350 144 l 611 144 q 650 152 638 144 q 664 185 663 160 l 674 282 l 794 282 l 804 0 m 514 -185 q 514 -161 514 -185 q 527 -117 514 -136 q 547 -87 540 -97 q 573 -63 554 -78 q 598 -43 592 -49 q 629 -21 604 -37 q 660 0 654 -4 l 804 0 q 707 -69 771 -15 q 640 -162 640 -121 q 654 -199 640 -183 q 695 -215 668 -215 q 785 -197 722 -215 l 808 -278 l 786 -287 q 654 -319 717 -319 q 553 -277 592 -319 q 514 -185 514 -235 z "},"ę":{"ha":704,"x_min":47,"x_max":653,"o":"m 281 -185 q 281 -161 281 -185 q 294 -117 281 -136 q 314 -87 307 -97 q 340 -63 321 -78 q 365 -43 358 -49 q 396 -21 371 -37 q 426 0 421 -4 l 650 50 q 474 -69 529 -21 q 407 -162 407 -121 q 421 -199 407 -183 q 462 -215 435 -215 q 551 -197 489 -215 l 575 -278 l 553 -287 q 421 -319 483 -319 q 319 -277 358 -319 q 281 -185 281 -235 m 653 325 l 225 294 q 394 110 236 110 q 624 150 483 110 l 650 50 q 343 -14 486 -14 q 124 78 200 -14 q 47 329 47 169 q 135 588 47 489 q 381 688 222 688 q 596 598 539 688 q 653 325 653 508 m 222 404 l 490 426 q 372 564 488 564 q 262 533 289 564 q 222 404 235 501 z "},"Ě":{"ha":879,"x_min":67,"x_max":804,"o":"m 804 0 l 67 0 l 67 111 l 133 124 q 166 140 158 129 q 174 176 174 150 l 174 831 q 166 871 174 858 q 133 886 158 883 l 67 894 l 67 1000 l 799 1000 l 789 725 l 672 725 l 663 815 q 648 848 660 840 q 610 856 636 856 l 350 856 l 350 592 l 643 592 l 643 447 l 350 447 l 350 144 l 611 144 q 650 152 638 144 q 664 185 663 160 l 674 282 l 794 282 l 804 0 m 547 1047 l 396 1047 l 231 1222 l 313 1289 l 471 1153 l 629 1289 l 711 1222 l 547 1047 z "},"ě":{"ha":704,"x_min":47,"x_max":653,"o":"m 653 325 l 225 294 q 394 110 236 110 q 624 150 483 110 l 650 50 q 343 -14 486 -14 q 124 78 200 -14 q 47 329 47 169 q 135 588 47 489 q 381 688 222 688 q 596 598 539 688 q 653 325 653 508 m 222 404 l 490 426 q 372 564 488 564 q 262 533 289 564 q 222 404 235 501 m 433 785 l 282 785 l 138 988 l 219 1054 l 357 890 l 494 1054 l 576 988 l 433 785 z "},"Ĝ":{"ha":1003,"x_min":54,"x_max":942,"o":"m 244 499 q 312 235 244 336 q 514 133 379 133 q 685 161 608 133 l 685 294 q 677 332 685 321 q 644 347 669 343 l 572 360 l 572 469 l 942 469 l 942 360 l 894 350 q 863 335 868 344 q 857 297 857 326 l 857 71 q 493 -14 654 -14 q 160 114 265 -14 q 54 489 54 242 q 165 861 54 714 q 313 974 221 933 q 511 1014 406 1014 q 694 999 617 1014 q 869 935 771 985 l 847 694 l 713 694 l 683 833 q 486 868 593 868 q 322 821 379 868 q 266 689 288 792 q 244 499 244 586 m 413 1275 l 564 1275 l 728 1100 l 646 1033 l 488 1169 l 329 1033 l 247 1100 l 413 1275 z "},"ĝ":{"ha":742,"x_min":49,"x_max":703,"o":"m 703 718 l 703 617 q 617 579 667 588 q 657 435 657 519 q 567 247 657 321 q 342 172 478 172 q 307 174 322 172 l 292 132 q 289 119 289 126 q 325 100 289 106 q 433 85 361 94 q 543 69 506 75 q 663 17 625 56 q 700 -94 700 -22 q 603 -273 700 -199 q 351 -347 506 -347 q 49 -265 151 -347 l 81 -86 l 189 -86 l 189 -181 q 365 -219 267 -219 q 508 -201 463 -219 q 553 -129 553 -183 q 463 -72 553 -82 q 242 -42 322 -57 q 136 85 136 -22 l 208 193 q 54 426 54 265 q 133 609 54 531 q 375 688 213 688 l 431 688 q 580 692 539 688 q 703 718 621 696 m 229 440 q 229 402 229 440 q 262 324 229 364 q 363 285 294 285 q 456 324 431 285 q 482 447 482 363 q 346 579 482 579 q 249 540 276 579 q 229 440 229 515 m 300 1032 l 451 1032 l 594 829 l 513 763 l 375 926 l 238 763 l 156 829 l 300 1032 z "},"Ğ":{"ha":1003,"x_min":54,"x_max":942,"o":"m 244 499 q 312 235 244 336 q 514 133 379 133 q 685 161 608 133 l 685 294 q 677 332 685 321 q 644 347 669 343 l 572 360 l 572 469 l 942 469 l 942 360 l 894 350 q 863 335 868 344 q 857 297 857 326 l 857 71 q 493 -14 654 -14 q 160 114 265 -14 q 54 489 54 242 q 165 861 54 714 q 313 974 221 933 q 511 1014 406 1014 q 694 999 617 1014 q 869 935 771 985 l 847 694 l 713 694 l 683 833 q 486 868 593 868 q 322 821 379 868 q 266 689 288 792 q 244 499 244 586 m 629 1268 l 711 1242 q 629 1110 686 1161 q 486 1060 572 1060 q 342 1110 400 1060 q 257 1242 283 1161 l 346 1268 q 488 1179 400 1179 q 629 1268 575 1179 z "},"ğ":{"ha":742,"x_min":49,"x_max":703,"o":"m 703 718 l 703 617 q 617 579 667 588 q 657 435 657 519 q 567 247 657 321 q 342 172 478 172 q 307 174 322 172 l 292 132 q 289 119 289 126 q 325 100 289 106 q 433 85 361 94 q 543 69 506 75 q 663 17 625 56 q 700 -94 700 -22 q 603 -273 700 -199 q 351 -347 506 -347 q 49 -265 151 -347 l 81 -86 l 189 -86 l 189 -181 q 365 -219 267 -219 q 508 -201 463 -219 q 553 -129 553 -183 q 463 -72 553 -82 q 242 -42 322 -57 q 136 85 136 -22 l 208 193 q 54 426 54 265 q 133 609 54 531 q 375 688 213 688 l 431 688 q 580 692 539 688 q 703 718 621 696 m 229 440 q 229 402 229 440 q 262 324 229 364 q 363 285 294 285 q 456 324 431 285 q 482 447 482 363 q 346 579 482 579 q 249 540 276 579 q 229 440 229 515 m 517 1004 l 599 978 q 517 847 574 897 q 374 796 460 796 q 229 847 288 796 q 144 978 171 897 l 233 1004 q 375 915 288 915 q 517 1004 463 915 z "},"Ġ":{"ha":1003,"x_min":54,"x_max":942,"o":"m 244 499 q 312 235 244 336 q 514 133 379 133 q 685 161 608 133 l 685 294 q 677 332 685 321 q 644 347 669 343 l 572 360 l 572 469 l 942 469 l 942 360 l 894 350 q 863 335 868 344 q 857 297 857 326 l 857 71 q 493 -14 654 -14 q 160 114 265 -14 q 54 489 54 242 q 165 861 54 714 q 313 974 221 933 q 511 1014 406 1014 q 694 999 617 1014 q 869 935 771 985 l 847 694 l 713 694 l 683 833 q 486 868 593 868 q 322 821 379 868 q 266 689 288 792 q 244 499 244 586 m 495 1281 q 530 1281 495 1281 q 585 1253 565 1281 q 604 1169 604 1226 q 576 1089 604 1113 q 489 1065 547 1065 q 403 1087 431 1065 q 375 1167 375 1108 q 400 1253 375 1225 q 495 1281 425 1281 z "},"ġ":{"ha":742,"x_min":49,"x_max":703,"o":"m 703 718 l 703 617 q 617 579 667 588 q 657 435 657 519 q 567 247 657 321 q 342 172 478 172 q 307 174 322 172 l 292 132 q 289 119 289 126 q 325 100 289 106 q 433 85 361 94 q 543 69 506 75 q 663 17 625 56 q 700 -94 700 -22 q 603 -273 700 -199 q 351 -347 506 -347 q 49 -265 151 -347 l 81 -86 l 189 -86 l 189 -181 q 365 -219 267 -219 q 508 -201 463 -219 q 553 -129 553 -183 q 463 -72 553 -82 q 242 -42 322 -57 q 136 85 136 -22 l 208 193 q 54 426 54 265 q 133 609 54 531 q 375 688 213 688 l 431 688 q 580 692 539 688 q 703 718 621 696 m 229 440 q 229 402 229 440 q 262 324 229 364 q 363 285 294 285 q 456 324 431 285 q 482 447 482 363 q 346 579 482 579 q 249 540 276 579 q 229 440 229 515 m 383 989 q 418 989 383 989 q 472 962 453 989 q 492 878 492 935 q 463 797 492 821 q 376 774 435 774 q 290 795 318 774 q 263 875 263 817 q 288 961 263 933 q 383 989 313 989 z "},"Ģ":{"ha":1003,"x_min":54,"x_max":942,"o":"m 244 499 q 312 235 244 336 q 514 133 379 133 q 685 161 608 133 l 685 294 q 677 332 685 321 q 644 347 669 343 l 572 360 l 572 469 l 942 469 l 942 360 l 894 350 q 863 335 868 344 q 857 297 857 326 l 857 71 q 493 -14 654 -14 q 160 114 265 -14 q 54 489 54 242 q 165 861 54 714 q 313 974 221 933 q 511 1014 406 1014 q 694 999 617 1014 q 869 935 771 985 l 847 694 l 713 694 l 683 833 q 486 868 593 868 q 322 821 379 868 q 266 689 288 792 q 244 499 244 586 m 603 -146 q 557 -276 603 -217 q 451 -362 511 -336 l 406 -315 q 469 -265 442 -293 q 496 -217 496 -237 q 481 -221 489 -221 q 415 -195 438 -221 q 392 -132 392 -169 q 493 -44 392 -44 q 576 -73 549 -44 q 603 -146 603 -101 z "},"ģ":{"ha":742,"x_min":49,"x_max":703,"o":"m 274 847 q 317 969 274 914 q 415 1049 360 1025 l 457 1004 q 399 959 424 985 q 374 913 374 933 q 388 917 382 917 q 449 893 428 917 q 471 835 471 869 q 376 753 471 753 q 299 780 325 753 q 274 847 274 807 m 703 718 l 703 617 q 617 579 667 588 q 657 435 657 519 q 567 247 657 321 q 342 172 478 172 q 307 174 322 172 l 292 132 q 289 119 289 126 q 325 100 289 106 q 433 85 361 94 q 543 69 506 75 q 663 17 625 56 q 700 -94 700 -22 q 603 -273 700 -199 q 351 -347 506 -347 q 49 -265 151 -347 l 81 -86 l 189 -86 l 189 -181 q 365 -219 267 -219 q 508 -201 463 -219 q 553 -129 553 -183 q 463 -72 553 -82 q 242 -42 322 -57 q 136 85 136 -22 l 208 193 q 54 426 54 265 q 133 609 54 531 q 375 688 213 688 l 431 688 q 580 692 539 688 q 703 718 621 696 m 229 440 q 229 402 229 440 q 262 324 229 364 q 363 285 294 285 q 456 324 431 285 q 482 447 482 363 q 346 579 482 579 q 249 540 276 579 q 229 440 229 515 z "},"Ĥ":{"ha":1100,"x_min":67,"x_max":1033,"o":"m 926 825 l 926 175 q 934 138 926 149 q 967 122 942 128 l 1033 110 l 1033 0 l 636 0 l 636 110 l 710 122 q 742 137 735 126 q 750 175 750 147 l 750 453 l 350 453 l 350 175 q 358 137 350 147 q 390 122 365 126 l 464 110 l 464 0 l 67 0 l 67 110 l 133 122 q 166 138 158 128 q 174 175 174 149 l 174 825 q 166 862 174 851 q 133 878 158 872 l 67 890 l 67 1000 l 464 1000 l 464 890 l 390 878 q 358 863 365 874 q 350 825 350 853 l 350 594 l 750 594 l 750 825 q 742 863 750 853 q 710 878 735 874 l 636 890 l 636 1000 l 1033 1000 l 1033 890 l 967 878 q 934 862 942 872 q 926 825 926 851 m 475 1272 l 626 1272 l 790 1097 l 708 1031 l 550 1167 l 392 1031 l 310 1097 l 475 1272 z "},"ĥ":{"ha":871,"x_min":42,"x_max":840,"o":"m 143 151 l 143 933 q 113 972 143 969 l 42 981 l 42 1083 l 310 1083 l 310 603 q 513 688 400 688 q 682 628 625 688 q 739 481 739 568 l 739 151 q 769 113 739 115 l 840 103 l 840 0 l 572 0 l 572 442 q 542 524 572 496 q 460 553 513 553 q 310 488 375 553 l 310 151 q 340 113 310 115 l 411 103 l 411 0 l 42 0 l 42 103 l 113 113 q 143 151 143 115 m 397 1344 l 549 1344 l 713 1169 l 631 1103 l 472 1239 l 314 1103 l 232 1169 l 397 1344 z "},"Ħ":{"ha":1100,"x_min":67,"x_max":1033,"o":"m 78 678 l 78 803 l 1022 803 l 1022 678 l 78 678 m 926 825 l 926 175 q 934 138 926 149 q 967 122 942 128 l 1033 110 l 1033 0 l 636 0 l 636 110 l 710 122 q 742 137 735 126 q 750 175 750 147 l 750 453 l 350 453 l 350 175 q 358 137 350 147 q 390 122 365 126 l 464 110 l 464 0 l 67 0 l 67 110 l 133 122 q 166 138 158 128 q 174 175 174 149 l 174 825 q 166 862 174 851 q 133 878 158 872 l 67 890 l 67 1000 l 464 1000 l 464 890 l 390 878 q 358 863 365 874 q 350 825 350 853 l 350 594 l 750 594 l 750 825 q 742 863 750 853 q 710 878 735 874 l 636 890 l 636 1000 l 1033 1000 l 1033 890 l 967 878 q 934 862 942 872 q 926 825 926 851 z "},"ħ":{"ha":871,"x_min":42,"x_max":840,"o":"m 592 907 l 592 782 l 46 782 l 46 907 l 592 907 m 143 151 l 143 933 q 113 972 143 969 l 42 981 l 42 1083 l 310 1083 l 310 603 q 513 688 400 688 q 682 628 625 688 q 739 481 739 568 l 739 151 q 769 113 739 115 l 840 103 l 840 0 l 572 0 l 572 442 q 542 524 572 496 q 460 553 513 553 q 310 488 375 553 l 310 151 q 340 113 310 115 l 411 103 l 411 0 l 42 0 l 42 103 l 113 113 q 143 151 143 115 z "},"Ĩ":{"ha":524,"x_min":26,"x_max":488,"o":"m 457 110 l 457 0 l 67 0 l 67 110 l 133 122 q 166 138 158 128 q 174 175 174 149 l 174 825 q 166 862 174 851 q 133 878 158 872 l 67 890 l 67 1000 l 457 1000 l 457 890 l 390 878 q 358 862 365 872 q 350 825 350 851 l 350 175 q 358 138 350 149 q 390 122 365 128 l 457 110 m 353 1056 q 253 1081 315 1056 q 154 1107 192 1107 q 60 1069 117 1107 l 26 1153 q 171 1249 90 1249 q 274 1224 213 1249 q 371 1200 335 1200 q 454 1233 407 1200 l 488 1150 q 353 1056 428 1056 z "},"ĩ":{"ha":425,"x_min":-49,"x_max":413,"o":"m 304 674 l 304 151 q 335 113 304 115 l 406 103 l 406 0 l 36 0 l 36 103 l 107 113 q 138 151 138 115 l 138 524 q 107 563 138 560 l 36 571 l 36 674 l 304 674 m 278 792 q 178 817 240 792 q 79 843 117 843 q -15 806 42 843 l -49 889 q 96 985 15 985 q 199 960 138 985 q 296 936 260 936 q 379 969 332 936 l 413 886 q 278 792 353 792 z "},"ī":{"ha":425,"x_min":-15,"x_max":406,"o":"m 304 151 q 335 113 304 115 l 406 103 l 406 0 l 36 0 l 36 103 l 107 113 q 138 151 138 115 l 138 524 q 107 563 138 560 l 36 571 l 36 674 l 304 674 l 304 151 m -15 836 l 6 971 l 397 971 l 376 836 l -15 836 z "},"Ĭ":{"ha":524,"x_min":31,"x_max":485,"o":"m 457 110 l 457 0 l 67 0 l 67 110 l 133 122 q 166 138 158 128 q 174 175 174 149 l 174 825 q 166 862 174 851 q 133 878 158 872 l 67 890 l 67 1000 l 457 1000 l 457 890 l 390 878 q 358 862 365 872 q 350 825 350 851 l 350 175 q 358 138 350 149 q 390 122 365 128 l 457 110 m 403 1268 l 485 1242 q 403 1110 460 1161 q 260 1060 346 1060 q 115 1110 174 1060 q 31 1242 57 1161 l 119 1268 q 261 1179 174 1179 q 403 1268 349 1179 z "},"Į":{"ha":524,"x_min":67,"x_max":461,"o":"m 457 110 l 457 0 l 67 0 l 67 110 l 133 122 q 166 138 158 128 q 174 175 174 149 l 174 825 q 166 862 174 851 q 133 878 158 872 l 67 890 l 67 1000 l 457 1000 l 457 890 l 390 878 q 358 862 365 872 q 350 825 350 851 l 350 175 q 358 138 350 149 q 390 122 365 128 l 457 110 m 167 -185 q 167 -161 167 -185 q 180 -117 167 -136 q 200 -87 193 -97 q 226 -63 207 -78 q 251 -43 244 -49 q 282 -21 257 -37 q 313 0 307 -4 l 457 0 q 360 -69 424 -15 q 293 -162 293 -121 q 307 -199 293 -183 q 347 -215 321 -215 q 438 -197 374 -215 l 461 -278 l 440 -287 q 307 -319 369 -319 q 206 -277 244 -319 q 167 -185 167 -235 z "},"į":{"ha":446,"x_min":42,"x_max":415,"o":"m 317 896 q 207 804 317 804 q 126 824 153 804 q 100 897 100 844 q 124 974 100 949 q 213 1000 149 1000 q 297 975 276 1000 q 317 896 317 950 m 310 674 l 310 151 q 340 113 310 115 l 411 103 l 411 0 l 42 0 l 42 103 l 113 113 q 143 151 143 115 l 143 524 q 113 563 143 560 l 42 571 l 42 674 l 310 674 m 121 -185 q 121 -161 121 -185 q 134 -117 121 -136 q 154 -87 147 -97 q 180 -63 161 -78 q 205 -43 199 -49 q 236 -21 211 -37 q 267 0 261 -4 l 411 0 q 314 -69 378 -15 q 247 -162 247 -121 q 261 -199 247 -183 q 301 -215 275 -215 q 392 -197 328 -215 l 415 -278 l 394 -287 q 261 -319 324 -319 q 160 -277 199 -319 q 121 -185 121 -235 z "},"İ":{"ha":524,"x_min":67,"x_max":457,"o":"m 457 110 l 457 0 l 67 0 l 67 110 l 133 122 q 166 138 158 128 q 174 175 174 149 l 174 825 q 166 862 174 851 q 133 878 158 872 l 67 890 l 67 1000 l 457 1000 l 457 890 l 390 878 q 358 862 365 872 q 350 825 350 851 l 350 175 q 358 138 350 149 q 390 122 365 128 l 457 110 m 269 1253 q 304 1253 269 1253 q 358 1226 339 1253 q 378 1142 378 1199 q 349 1061 378 1085 q 263 1038 321 1038 q 176 1059 204 1038 q 149 1139 149 1081 q 174 1225 149 1197 q 269 1253 199 1253 z "},"ı":{"ha":425,"x_min":36,"x_max":406,"o":"m 304 674 l 304 151 q 335 113 304 115 l 406 103 l 406 0 l 36 0 l 36 103 l 107 113 q 138 151 138 115 l 138 524 q 107 563 138 560 l 36 571 l 36 674 l 304 674 z "},"Ĳ":{"ha":1008,"x_min":67,"x_max":971,"o":"m 457 110 l 457 0 l 67 0 l 67 110 l 133 122 q 166 138 158 128 q 174 175 174 149 l 174 825 q 166 862 174 851 q 133 878 158 872 l 67 890 l 67 1000 l 457 1000 l 457 890 l 390 878 q 358 862 365 872 q 350 825 350 851 l 350 175 q 358 138 350 149 q 390 122 365 128 l 457 110 m 558 -217 l 475 -104 q 649 43 611 -19 q 688 249 688 106 l 688 825 q 680 862 688 851 q 647 878 672 872 l 581 890 l 581 1000 l 971 1000 l 971 890 l 904 878 q 872 862 879 872 q 864 825 864 851 l 864 206 q 860 96 864 140 q 840 13 856 51 q 806 -51 824 -26 q 747 -106 788 -76 q 558 -217 686 -151 z "},"ĳ":{"ha":856,"x_min":42,"x_max":756,"o":"m 317 896 q 207 804 317 804 q 126 824 153 804 q 100 897 100 844 q 124 974 100 949 q 213 1000 149 1000 q 297 975 276 1000 q 317 896 317 950 m 310 674 l 310 151 q 340 113 310 115 l 411 103 l 411 0 l 42 0 l 42 103 l 113 113 q 143 151 143 115 l 143 524 q 113 563 143 560 l 42 571 l 42 674 l 310 674 m 749 674 l 749 10 q 701 -199 749 -135 q 481 -347 653 -262 l 406 -271 q 524 -183 490 -217 q 569 -100 557 -149 q 582 47 582 -51 l 582 524 q 551 563 582 560 l 481 571 l 481 674 l 749 674 m 756 896 q 646 804 756 804 q 565 824 592 804 q 539 897 539 844 q 563 974 539 949 q 651 1000 588 1000 q 735 975 715 1000 q 756 896 756 950 z "},"Ĵ":{"ha":485,"x_min":-49,"x_max":501,"o":"m 35 -217 l -49 -104 q 126 43 88 -19 q 164 249 164 106 l 164 825 q 156 862 164 851 q 124 878 149 872 l 57 890 l 57 1000 l 447 1000 l 447 890 l 381 878 q 348 862 356 872 q 340 825 340 851 l 340 206 q 336 96 340 140 q 316 13 332 51 q 282 -51 300 -26 q 224 -106 264 -76 q 35 -217 163 -151 m 186 1275 l 338 1275 l 501 1100 l 419 1033 l 261 1169 l 103 1033 l 21 1100 l 186 1275 z "},"ĵ":{"ha":410,"x_min":-40,"x_max":406,"o":"m 303 674 l 303 10 q 255 -199 303 -135 q 35 -347 207 -262 l -40 -271 q 78 -183 44 -217 q 124 -100 111 -149 q 136 47 136 -51 l 136 524 q 106 563 136 560 l 35 571 l 35 674 l 303 674 m 111 1032 l 263 1032 l 406 829 l 324 763 l 186 926 l 49 763 l -33 829 l 111 1032 z "},"Ķ":{"ha":968,"x_min":67,"x_max":965,"o":"m 781 835 l 526 557 l 761 233 q 834 151 806 171 q 898 131 863 131 q 965 144 933 131 l 954 17 q 832 -14 904 -14 q 712 23 760 -14 q 614 135 664 60 l 350 525 l 350 175 q 358 137 350 147 q 390 122 365 126 l 463 110 l 463 0 l 67 0 l 67 110 l 133 122 q 166 138 158 128 q 174 175 174 149 l 174 825 q 166 862 174 851 q 133 878 158 872 l 67 890 l 67 1000 l 463 1000 l 463 890 l 390 878 q 358 863 365 874 q 350 825 350 853 l 350 569 l 681 939 q 818 1000 733 1000 l 908 1000 l 908 878 q 858 876 875 878 q 781 835 815 872 m 592 -146 q 546 -276 592 -217 q 440 -362 500 -336 l 394 -315 q 458 -265 431 -293 q 485 -217 485 -237 q 469 -221 478 -221 q 403 -195 426 -221 q 381 -132 381 -169 q 482 -44 381 -44 q 565 -73 538 -44 q 592 -146 592 -101 z "},"ķ":{"ha":817,"x_min":42,"x_max":807,"o":"m 310 1083 l 310 410 l 496 600 q 572 659 540 644 q 654 674 604 674 l 733 674 l 733 561 l 700 561 q 628 539 654 561 q 594 510 619 532 l 479 407 l 479 397 l 626 196 q 744 121 682 121 q 807 131 783 121 l 785 8 q 668 -14 731 -14 q 514 82 582 -14 l 310 372 l 310 151 q 316 124 310 132 q 340 113 322 115 l 400 103 l 400 0 l 42 0 l 42 103 l 113 113 q 143 151 143 115 l 143 933 q 113 972 143 969 l 42 981 l 42 1083 l 310 1083 m 526 -146 q 481 -276 526 -217 q 375 -362 435 -336 l 329 -315 q 392 -265 365 -293 q 419 -217 419 -237 q 404 -221 414 -221 q 338 -195 361 -221 q 315 -132 315 -169 q 417 -44 315 -44 q 499 -73 472 -44 q 526 -146 526 -101 z "},"ĸ":{"ha":800,"x_min":46,"x_max":790,"o":"m 314 503 l 314 368 l 521 600 q 597 659 565 644 q 679 674 629 674 l 758 674 l 758 561 l 725 561 q 668 550 689 561 q 619 510 647 539 l 483 365 l 483 356 l 624 196 q 728 121 689 121 q 790 131 767 121 l 768 8 q 672 -14 725 -14 q 511 82 588 -14 l 314 331 l 314 164 q 319 124 314 135 q 346 111 325 114 l 415 101 l 415 0 l 46 0 l 46 103 l 115 111 q 142 123 136 113 q 147 164 147 133 l 147 503 q 142 544 147 533 q 115 556 136 554 l 46 564 l 46 667 l 415 667 l 415 565 l 346 556 q 319 543 325 553 q 314 503 314 533 z "},"Ĺ":{"ha":774,"x_min":67,"x_max":757,"o":"m 757 0 l 67 0 l 67 110 l 133 122 q 166 138 158 128 q 174 175 174 149 l 174 825 q 166 862 174 851 q 133 878 158 872 l 67 890 l 67 1000 l 467 1000 l 467 890 l 390 878 q 358 863 365 874 q 350 825 350 853 l 350 144 l 565 144 q 604 152 592 144 q 618 185 617 160 l 628 282 l 747 282 l 757 0 m 410 1311 l 497 1192 l 300 1061 q 258 1047 278 1047 q 172 1106 213 1047 l 410 1311 z "},"ĺ":{"ha":446,"x_min":42,"x_max":411,"o":"m 310 1083 l 310 151 q 340 113 310 115 l 411 103 l 411 0 l 42 0 l 42 103 l 113 113 q 143 151 143 115 l 143 933 q 113 972 143 969 l 42 981 l 42 1083 l 310 1083 m 324 1394 l 411 1275 l 214 1144 q 172 1131 192 1131 q 86 1189 126 1131 l 324 1394 z "},"Ļ":{"ha":774,"x_min":67,"x_max":757,"o":"m 757 0 l 67 0 l 67 110 l 133 122 q 166 138 158 128 q 174 175 174 149 l 174 825 q 166 862 174 851 q 133 878 158 872 l 67 890 l 67 1000 l 467 1000 l 467 890 l 390 878 q 358 863 365 874 q 350 825 350 853 l 350 144 l 565 144 q 604 152 592 144 q 618 185 617 160 l 628 282 l 747 282 l 757 0 m 494 -146 q 449 -276 494 -217 q 343 -362 403 -336 l 297 -315 q 360 -265 333 -293 q 388 -217 388 -237 q 372 -221 381 -221 q 306 -195 329 -221 q 283 -132 283 -169 q 385 -44 283 -44 q 467 -73 440 -44 q 494 -146 494 -101 z "},"ļ":{"ha":446,"x_min":42,"x_max":411,"o":"m 310 1083 l 310 151 q 340 113 310 115 l 411 103 l 411 0 l 42 0 l 42 103 l 113 113 q 143 151 143 115 l 143 933 q 113 972 143 969 l 42 981 l 42 1083 l 310 1083 m 336 -146 q 290 -276 336 -217 q 185 -362 244 -336 l 139 -315 q 202 -265 175 -293 q 229 -217 229 -237 q 214 -221 222 -221 q 148 -195 171 -221 q 125 -132 125 -169 q 226 -44 125 -44 q 309 -73 282 -44 q 336 -146 336 -101 z "},"Ľ":{"ha":774,"x_min":67,"x_max":757,"o":"m 747 958 q 701 828 747 888 q 596 742 656 768 l 550 789 q 613 839 586 811 q 640 888 640 867 q 625 883 632 883 q 559 909 582 883 q 536 972 536 935 q 638 1060 536 1060 q 720 1031 693 1060 q 747 958 747 1003 m 757 0 l 67 0 l 67 110 l 133 122 q 166 138 158 128 q 174 175 174 149 l 174 825 q 166 862 174 851 q 133 878 158 872 l 67 890 l 67 1000 l 467 1000 l 467 890 l 390 878 q 358 863 365 874 q 350 825 350 853 l 350 144 l 565 144 q 604 152 592 144 q 618 185 617 160 l 628 282 l 747 282 l 757 0 z "},"ľ":{"ha":589,"x_min":42,"x_max":589,"o":"m 589 958 q 543 828 589 888 q 438 742 497 768 l 392 789 q 455 839 428 811 q 482 888 482 867 q 467 883 474 883 q 401 909 424 883 q 378 972 378 935 q 479 1060 378 1060 q 562 1031 535 1060 q 589 958 589 1003 m 310 1083 l 310 151 q 340 113 310 115 l 411 103 l 411 0 l 42 0 l 42 103 l 113 113 q 143 151 143 115 l 143 933 q 113 972 143 969 l 42 981 l 42 1083 l 310 1083 z "},"Ŀ":{"ha":774,"x_min":67,"x_max":757,"o":"m 757 0 l 67 0 l 67 110 l 133 122 q 166 138 158 128 q 174 175 174 149 l 174 825 q 166 862 174 851 q 133 878 158 872 l 67 890 l 67 1000 l 467 1000 l 467 890 l 390 878 q 358 863 365 874 q 350 825 350 853 l 350 144 l 565 144 q 604 152 592 144 q 618 185 617 160 l 628 282 l 747 282 l 757 0 m 559 628 q 594 628 559 628 q 649 601 629 628 q 668 517 668 574 q 640 436 668 460 q 553 413 611 413 q 467 434 494 413 q 439 514 439 456 q 464 600 439 572 q 559 628 489 628 z "},"ŀ":{"ha":614,"x_min":42,"x_max":626,"o":"m 310 1083 l 310 151 q 340 113 310 115 l 411 103 l 411 0 l 42 0 l 42 103 l 113 113 q 143 151 143 115 l 143 933 q 113 972 143 969 l 42 981 l 42 1083 l 310 1083 m 517 651 q 552 651 517 651 q 607 624 588 651 q 626 540 626 597 q 598 460 626 483 q 511 436 569 436 q 425 458 453 436 q 397 538 397 479 q 422 624 397 596 q 517 651 447 651 z "},"Ł":{"ha":774,"x_min":67,"x_max":757,"o":"m 71 308 l 71 447 l 543 719 l 543 582 l 71 308 m 757 0 l 67 0 l 67 110 l 133 122 q 166 138 158 128 q 174 175 174 149 l 174 825 q 166 862 174 851 q 133 878 158 872 l 67 890 l 67 1000 l 467 1000 l 467 890 l 390 878 q 358 863 365 874 q 350 825 350 853 l 350 144 l 565 144 q 604 152 592 144 q 618 185 617 160 l 628 282 l 747 282 l 757 0 z "},"ł":{"ha":446,"x_min":42,"x_max":411,"o":"m 49 388 l 49 519 l 399 722 l 399 589 l 49 388 m 310 1083 l 310 151 q 340 113 310 115 l 411 103 l 411 0 l 42 0 l 42 103 l 113 113 q 143 151 143 115 l 143 933 q 113 972 143 969 l 42 981 l 42 1083 l 310 1083 z "},"Ń":{"ha":1114,"x_min":67,"x_max":1065,"o":"m 68 1000 l 357 1000 l 783 318 l 783 826 q 776 867 783 854 q 744 882 769 879 l 679 890 l 679 1000 l 1065 1000 l 1065 890 l 1000 882 q 967 867 975 879 q 960 826 960 854 l 960 0 l 776 0 l 350 682 l 350 175 q 358 136 350 147 q 390 122 365 125 l 457 110 l 457 0 l 67 0 l 67 110 l 133 122 q 166 137 158 126 q 174 175 174 147 l 174 826 q 166 867 174 854 q 133 882 158 879 l 68 890 l 68 1000 m 703 1311 l 790 1192 l 593 1061 q 551 1047 571 1047 q 465 1106 506 1047 l 703 1311 z "},"ń":{"ha":871,"x_min":42,"x_max":840,"o":"m 840 0 l 572 0 l 572 442 q 542 524 572 496 q 460 553 513 553 q 310 488 375 553 l 310 151 q 340 113 310 115 l 411 103 l 411 0 l 42 0 l 42 103 l 113 113 q 143 151 143 115 l 143 522 q 113 561 143 558 l 42 571 l 42 674 l 276 674 l 288 581 q 385 656 328 625 q 503 688 442 688 q 682 628 625 688 q 739 481 739 568 l 739 151 q 769 113 739 115 l 840 103 l 840 0 m 494 1065 l 597 958 l 419 803 q 366 783 399 783 q 288 829 333 783 l 494 1065 z "},"Ņ":{"ha":1114,"x_min":67,"x_max":1065,"o":"m 68 1000 l 357 1000 l 783 318 l 783 826 q 776 867 783 854 q 744 882 769 879 l 679 890 l 679 1000 l 1065 1000 l 1065 890 l 1000 882 q 967 867 975 879 q 960 826 960 854 l 960 0 l 776 0 l 350 682 l 350 175 q 358 136 350 147 q 390 122 365 125 l 457 110 l 457 0 l 67 0 l 67 110 l 133 122 q 166 137 158 126 q 174 175 174 147 l 174 826 q 166 867 174 854 q 133 882 158 879 l 68 890 l 68 1000 m 679 -146 q 633 -276 679 -217 q 528 -362 588 -336 l 482 -315 q 545 -265 518 -293 q 572 -217 572 -237 q 557 -221 565 -221 q 491 -195 514 -221 q 468 -132 468 -169 q 569 -44 468 -44 q 652 -73 625 -44 q 679 -146 679 -101 z "},"ņ":{"ha":871,"x_min":42,"x_max":840,"o":"m 840 0 l 572 0 l 572 442 q 542 524 572 496 q 460 553 513 553 q 310 488 375 553 l 310 151 q 340 113 310 115 l 411 103 l 411 0 l 42 0 l 42 103 l 113 113 q 143 151 143 115 l 143 522 q 113 561 143 558 l 42 571 l 42 674 l 276 674 l 288 581 q 385 656 328 625 q 503 688 442 688 q 682 628 625 688 q 739 481 739 568 l 739 151 q 769 113 739 115 l 840 103 l 840 0 m 551 -146 q 506 -276 551 -217 q 400 -362 460 -336 l 354 -315 q 417 -265 390 -293 q 444 -217 444 -237 q 429 -221 439 -221 q 363 -195 386 -221 q 340 -132 340 -169 q 442 -44 340 -44 q 524 -73 497 -44 q 551 -146 551 -101 z "},"Ň":{"ha":1114,"x_min":67,"x_max":1065,"o":"m 68 1000 l 357 1000 l 783 318 l 783 826 q 776 867 783 854 q 744 882 769 879 l 679 890 l 679 1000 l 1065 1000 l 1065 890 l 1000 882 q 967 867 975 879 q 960 826 960 854 l 960 0 l 776 0 l 350 682 l 350 175 q 358 136 350 147 q 390 122 365 125 l 457 110 l 457 0 l 67 0 l 67 110 l 133 122 q 166 137 158 126 q 174 175 174 147 l 174 826 q 166 867 174 854 q 133 882 158 879 l 68 890 l 68 1000 m 642 1047 l 490 1047 l 325 1222 l 407 1289 l 565 1153 l 724 1289 l 806 1222 l 642 1047 z "},"ň":{"ha":871,"x_min":42,"x_max":840,"o":"m 840 0 l 572 0 l 572 442 q 542 524 572 496 q 460 553 513 553 q 310 488 375 553 l 310 151 q 340 113 310 115 l 411 103 l 411 0 l 42 0 l 42 103 l 113 113 q 143 151 143 115 l 143 522 q 113 561 143 558 l 42 571 l 42 674 l 276 674 l 288 581 q 385 656 328 625 q 503 688 442 688 q 682 628 625 688 q 739 481 739 568 l 739 151 q 769 113 739 115 l 840 103 l 840 0 m 497 778 l 346 778 l 201 981 l 283 1047 l 421 883 l 558 1047 l 640 981 l 497 778 z "},"ŉ":{"ha":871,"x_min":15,"x_max":840,"o":"m 226 958 q 181 828 226 888 q 75 742 135 768 l 29 789 q 92 839 65 811 q 119 888 119 867 q 104 883 111 883 q 38 909 61 883 q 15 972 15 935 q 117 1060 15 1060 q 199 1031 172 1060 q 226 958 226 1003 m 840 0 l 572 0 l 572 442 q 542 524 572 496 q 460 553 513 553 q 310 488 375 553 l 310 151 q 340 113 310 115 l 411 103 l 411 0 l 42 0 l 42 103 l 113 113 q 143 151 143 115 l 143 522 q 113 561 143 558 l 42 571 l 42 674 l 276 674 l 288 581 q 385 656 328 625 q 503 688 442 688 q 682 628 625 688 q 739 481 739 568 l 739 151 q 769 113 739 115 l 840 103 l 840 0 z "},"Ŋ":{"ha":1053,"x_min":64,"x_max":942,"o":"m 764 213 l 764 692 q 716 824 764 779 q 590 868 668 868 q 449 831 513 868 q 350 735 386 794 l 350 185 q 356 140 350 151 q 383 124 363 128 l 465 108 l 465 0 l 64 0 l 64 110 l 139 124 q 167 140 161 128 q 174 185 174 151 l 174 825 q 165 866 174 853 q 132 882 157 879 l 68 890 l 68 1000 l 336 1000 l 351 871 q 484 977 417 940 q 649 1014 551 1014 q 867 942 792 1014 q 942 751 942 869 l 942 179 q 923 31 942 93 q 860 -77 904 -31 q 762 -157 815 -124 q 621 -228 708 -190 l 549 -115 q 724 19 683 -49 q 764 213 764 86 z "},"ŋ":{"ha":871,"x_min":42,"x_max":739,"o":"m 572 22 l 572 442 q 542 524 572 496 q 460 553 513 553 q 310 488 375 553 l 310 151 q 340 113 310 115 l 411 103 l 411 0 l 42 0 l 42 103 l 113 113 q 143 151 143 115 l 143 522 q 113 561 143 558 l 42 571 l 42 674 l 276 674 l 288 581 q 385 656 328 625 q 503 688 442 688 q 682 628 625 688 q 739 481 739 568 l 739 18 q 695 -209 739 -137 q 497 -354 651 -281 l 401 -278 q 540 -156 507 -212 q 572 22 572 -99 z "},"Ō":{"ha":1029,"x_min":54,"x_max":975,"o":"m 864 144 q 709 28 807 71 q 482 -14 611 -14 q 157 124 260 -14 q 54 500 54 261 q 167 856 54 710 q 320 972 222 929 q 547 1014 418 1014 q 872 876 769 1014 q 975 515 975 739 q 864 144 975 290 m 785 508 q 710 774 785 679 q 506 869 636 869 q 324 821 376 869 q 265 688 286 786 q 244 492 244 590 q 319 226 244 321 q 524 131 393 131 q 706 179 656 131 q 763 313 742 214 q 785 508 785 411 m 314 1100 l 335 1235 l 726 1235 l 706 1100 l 314 1100 z "},"ō":{"ha":782,"x_min":47,"x_max":735,"o":"m 735 336 q 651 100 735 206 q 536 17 610 49 q 368 -14 463 -14 q 125 81 203 -14 q 47 336 47 175 q 131 572 47 467 q 245 656 172 625 q 413 688 318 688 q 657 593 579 688 q 735 336 735 499 m 557 343 q 510 505 557 446 q 385 564 464 564 q 272 531 306 564 q 237 449 249 508 q 225 331 225 390 q 271 168 225 226 q 396 110 317 110 q 508 143 475 110 q 544 224 532 165 q 557 343 557 283 m 192 803 l 213 938 l 604 938 l 583 803 l 192 803 z "},"Ŏ":{"ha":1029,"x_min":54,"x_max":975,"o":"m 864 144 q 709 28 807 71 q 482 -14 611 -14 q 157 124 260 -14 q 54 500 54 261 q 167 856 54 710 q 320 972 222 929 q 547 1014 418 1014 q 872 876 769 1014 q 975 515 975 739 q 864 144 975 290 m 785 508 q 710 774 785 679 q 506 869 636 869 q 324 821 376 869 q 265 688 286 786 q 244 492 244 590 q 319 226 244 321 q 524 131 393 131 q 706 179 656 131 q 763 313 742 214 q 785 508 785 411 m 657 1268 l 739 1242 q 657 1110 714 1161 q 514 1060 600 1060 q 369 1110 428 1060 q 285 1242 311 1161 l 374 1268 q 515 1179 428 1179 q 657 1268 603 1179 z "},"ŏ":{"ha":782,"x_min":47,"x_max":735,"o":"m 735 336 q 651 100 735 206 q 536 17 610 49 q 368 -14 463 -14 q 125 81 203 -14 q 47 336 47 175 q 131 572 47 467 q 245 656 172 625 q 413 688 318 688 q 657 593 579 688 q 735 336 735 499 m 557 343 q 510 505 557 446 q 385 564 464 564 q 272 531 306 564 q 237 449 249 508 q 225 331 225 390 q 271 168 225 226 q 396 110 317 110 q 508 143 475 110 q 544 224 532 165 q 557 343 557 283 m 535 971 l 617 944 q 535 813 592 864 q 392 763 478 763 q 247 813 306 763 q 163 944 189 864 l 251 971 q 393 882 306 882 q 535 971 481 882 z "},"Ő":{"ha":1029,"x_min":54,"x_max":975,"o":"m 864 144 q 709 28 807 71 q 482 -14 611 -14 q 157 124 260 -14 q 54 500 54 261 q 167 856 54 710 q 320 972 222 929 q 547 1014 418 1014 q 872 876 769 1014 q 975 515 975 739 q 864 144 975 290 m 785 508 q 710 774 785 679 q 506 869 636 869 q 324 821 376 869 q 265 688 286 786 q 244 492 244 590 q 319 226 244 321 q 524 131 393 131 q 706 179 656 131 q 763 313 742 214 q 785 508 785 411 m 460 1328 l 585 1247 l 447 1056 q 388 1024 424 1024 q 342 1034 361 1024 q 314 1050 322 1044 l 460 1328 m 717 1328 l 842 1247 l 706 1056 q 648 1024 682 1024 q 571 1050 614 1024 l 717 1328 z "},"ő":{"ha":782,"x_min":47,"x_max":735,"o":"m 735 336 q 651 100 735 206 q 536 17 610 49 q 368 -14 463 -14 q 125 81 203 -14 q 47 336 47 175 q 131 572 47 467 q 245 656 172 625 q 413 688 318 688 q 657 593 579 688 q 735 336 735 499 m 557 343 q 510 505 557 446 q 385 564 464 564 q 272 531 306 564 q 237 449 249 508 q 225 331 225 390 q 271 168 225 226 q 396 110 317 110 q 508 143 475 110 q 544 224 532 165 q 557 343 557 283 m 338 1031 l 463 950 l 325 758 q 265 726 301 726 q 219 737 239 726 q 192 753 200 747 l 338 1031 m 594 1031 l 719 950 l 583 758 q 526 726 560 726 q 449 753 492 726 l 594 1031 z "},"Œ":{"ha":1483,"x_min":54,"x_max":1408,"o":"m 1408 0 l 778 0 l 778 101 q 482 -14 669 -14 q 157 124 260 -14 q 54 500 54 261 q 167 856 54 710 q 320 972 222 929 q 554 1014 418 1014 q 778 931 690 1014 l 778 1000 l 1403 1000 l 1393 725 l 1276 725 l 1267 815 q 1252 848 1264 840 q 1214 856 1240 856 l 954 856 l 954 592 l 1247 592 l 1247 447 l 954 447 l 954 144 l 1215 144 q 1254 152 1242 144 q 1268 185 1267 160 l 1278 282 l 1399 282 l 1408 0 m 778 525 q 704 778 778 688 q 503 869 631 869 q 324 821 376 869 q 265 688 286 786 q 244 492 244 590 q 319 226 244 321 q 522 131 393 131 q 699 179 650 131 q 754 303 733 213 q 778 490 775 394 l 778 525 z "},"œ":{"ha":1214,"x_min":47,"x_max":1163,"o":"m 1163 325 l 735 294 q 904 110 746 110 q 1133 150 992 110 l 1160 50 q 865 -14 996 -14 q 624 101 697 -14 q 371 -14 539 -14 q 125 81 203 -14 q 47 336 47 175 q 131 572 47 467 q 245 656 172 625 q 413 688 318 688 q 642 575 575 688 q 888 688 728 688 q 1106 598 1049 688 q 1163 325 1163 508 m 557 343 q 510 505 557 446 q 385 564 464 564 q 272 531 306 564 q 237 449 249 508 q 225 331 225 390 q 271 168 225 226 q 396 110 317 110 q 508 143 475 110 q 544 224 532 165 q 557 343 557 283 m 732 404 l 1000 426 q 882 564 997 564 q 770 533 797 564 q 732 404 743 501 z "},"Ŕ":{"ha":932,"x_min":67,"x_max":929,"o":"m 350 861 l 350 565 l 446 565 q 554 588 526 565 q 596 736 596 622 q 433 861 596 861 l 350 861 m 350 426 l 350 175 q 358 136 350 147 q 392 122 367 125 l 469 111 l 469 0 l 67 0 l 67 110 l 133 122 q 166 136 158 125 q 174 175 174 147 l 174 825 q 166 863 174 853 q 133 878 158 874 l 67 890 l 67 1000 l 454 1000 q 701 943 615 1000 q 786 750 786 886 q 763 615 786 672 q 701 525 739 557 q 564 458 635 469 q 638 407 611 451 l 757 211 q 865 131 806 131 q 929 142 907 131 l 915 17 q 785 -14 860 -14 q 615 103 685 -14 l 450 378 q 389 426 418 426 l 350 426 m 540 1311 l 628 1192 l 431 1061 q 389 1047 408 1047 q 303 1106 343 1047 l 540 1311 z "},"ŕ":{"ha":619,"x_min":42,"x_max":607,"o":"m 276 674 l 290 568 q 372 649 315 611 q 490 688 428 688 q 607 654 551 688 l 596 463 l 486 463 l 471 549 q 435 554 463 554 q 349 505 389 554 q 310 414 310 456 l 310 151 q 340 113 310 115 l 429 103 l 429 0 l 42 0 l 42 103 l 113 113 q 143 151 143 115 l 143 522 q 113 561 143 558 l 42 571 l 42 674 l 276 674 m 410 1065 l 513 958 l 335 803 q 281 783 314 783 q 203 829 249 783 l 410 1065 z "},"Ŗ":{"ha":932,"x_min":67,"x_max":929,"o":"m 350 861 l 350 565 l 446 565 q 554 588 526 565 q 596 736 596 622 q 433 861 596 861 l 350 861 m 350 426 l 350 175 q 358 136 350 147 q 392 122 367 125 l 469 111 l 469 0 l 67 0 l 67 110 l 133 122 q 166 136 158 125 q 174 175 174 147 l 174 825 q 166 863 174 853 q 133 878 158 874 l 67 890 l 67 1000 l 454 1000 q 701 943 615 1000 q 786 750 786 886 q 763 615 786 672 q 701 525 739 557 q 564 458 635 469 q 638 407 611 451 l 757 211 q 865 131 806 131 q 929 142 907 131 l 915 17 q 785 -14 860 -14 q 615 103 685 -14 l 450 378 q 389 426 418 426 l 350 426 m 626 -146 q 581 -276 626 -217 q 475 -362 535 -336 l 429 -315 q 492 -265 465 -293 q 519 -217 519 -237 q 504 -221 514 -221 q 438 -195 461 -221 q 415 -132 415 -169 q 517 -44 415 -44 q 599 -73 572 -44 q 626 -146 626 -101 z "},"ŗ":{"ha":619,"x_min":42,"x_max":607,"o":"m 276 674 l 290 568 q 372 649 315 611 q 490 688 428 688 q 607 654 551 688 l 596 463 l 486 463 l 471 549 q 435 554 463 554 q 349 505 389 554 q 310 414 310 456 l 310 151 q 340 113 310 115 l 429 103 l 429 0 l 42 0 l 42 103 l 113 113 q 143 151 143 115 l 143 522 q 113 561 143 558 l 42 571 l 42 674 l 276 674 m 333 -146 q 288 -276 333 -217 q 182 -362 242 -336 l 136 -315 q 199 -265 172 -293 q 226 -217 226 -237 q 211 -221 219 -221 q 145 -195 168 -221 q 122 -132 122 -169 q 224 -44 122 -44 q 306 -73 279 -44 q 333 -146 333 -101 z "},"Ř":{"ha":932,"x_min":67,"x_max":929,"o":"m 350 861 l 350 565 l 446 565 q 554 588 526 565 q 596 736 596 622 q 433 861 596 861 l 350 861 m 350 426 l 350 175 q 358 136 350 147 q 392 122 367 125 l 469 111 l 469 0 l 67 0 l 67 110 l 133 122 q 166 136 158 125 q 174 175 174 147 l 174 825 q 166 863 174 853 q 133 878 158 874 l 67 890 l 67 1000 l 454 1000 q 701 943 615 1000 q 786 750 786 886 q 763 615 786 672 q 701 525 739 557 q 564 458 635 469 q 638 407 611 451 l 757 211 q 865 131 806 131 q 929 142 907 131 l 915 17 q 785 -14 860 -14 q 615 103 685 -14 l 450 378 q 389 426 418 426 l 350 426 m 486 1047 l 335 1047 l 169 1222 l 251 1289 l 410 1153 l 568 1289 l 650 1222 l 486 1047 z "},"ř":{"ha":619,"x_min":42,"x_max":607,"o":"m 276 674 l 290 568 q 372 649 315 611 q 490 688 428 688 q 607 654 551 688 l 596 463 l 486 463 l 471 549 q 435 554 463 554 q 349 505 389 554 q 310 414 310 456 l 310 151 q 340 113 310 115 l 429 103 l 429 0 l 42 0 l 42 103 l 113 113 q 143 151 143 115 l 143 522 q 113 561 143 558 l 42 571 l 42 674 l 276 674 m 413 778 l 261 778 l 117 981 l 199 1047 l 336 883 l 474 1047 l 556 981 l 413 778 z "},"Ś":{"ha":806,"x_min":60,"x_max":751,"o":"m 215 288 l 233 161 q 392 119 310 119 q 524 155 475 119 q 572 249 572 190 q 544 340 572 308 q 429 404 515 372 l 260 468 q 67 749 67 542 q 153 940 67 868 q 388 1013 239 1013 q 708 975 538 1013 l 689 746 l 554 746 l 533 856 q 383 883 464 883 q 250 765 250 883 q 378 613 250 660 l 496 571 q 672 478 606 532 q 751 279 751 411 q 652 67 751 147 q 369 -14 553 -14 q 156 17 243 -14 q 60 50 125 26 l 76 288 l 215 288 m 546 1311 l 633 1192 l 436 1061 q 394 1047 414 1047 q 308 1106 349 1047 l 546 1311 z "},"ś":{"ha":633,"x_min":53,"x_max":585,"o":"m 319 688 q 558 643 393 688 l 550 474 l 440 474 l 424 557 q 310 576 378 576 q 221 511 221 576 q 256 452 221 475 q 385 398 290 429 q 532 323 479 367 q 585 201 585 279 q 503 44 585 103 q 298 -14 421 -14 q 53 36 175 -14 l 65 210 l 178 210 l 190 118 q 294 99 242 99 q 382 119 347 99 q 417 178 417 140 q 383 237 417 217 q 275 283 350 257 q 103 371 151 324 q 56 506 56 418 q 131 640 56 593 q 319 688 206 688 m 392 1065 l 494 958 l 317 803 q 263 783 296 783 q 185 829 231 783 l 392 1065 z "},"Ŝ":{"ha":806,"x_min":60,"x_max":751,"o":"m 215 288 l 233 161 q 392 119 310 119 q 524 155 475 119 q 572 249 572 190 q 544 340 572 308 q 429 404 515 372 l 260 468 q 67 749 67 542 q 153 940 67 868 q 388 1013 239 1013 q 708 975 538 1013 l 689 746 l 554 746 l 533 856 q 383 883 464 883 q 250 765 250 883 q 378 613 250 660 l 496 571 q 672 478 606 532 q 751 279 751 411 q 652 67 751 147 q 369 -14 553 -14 q 156 17 243 -14 q 60 50 125 26 l 76 288 l 215 288 m 335 1275 l 486 1275 l 650 1100 l 568 1033 l 410 1169 l 251 1033 l 169 1100 l 335 1275 z "},"Ş":{"ha":806,"x_min":60,"x_max":751,"o":"m 215 288 l 233 161 q 392 119 310 119 q 524 155 475 119 q 572 249 572 190 q 544 340 572 308 q 429 404 515 372 l 260 468 q 67 749 67 542 q 153 940 67 868 q 388 1013 239 1013 q 708 975 538 1013 l 689 746 l 554 746 l 533 856 q 383 883 464 883 q 250 765 250 883 q 378 613 250 660 l 496 571 q 672 478 606 532 q 751 279 751 411 q 652 67 751 147 q 369 -14 553 -14 q 156 17 243 -14 q 60 50 125 26 l 76 288 l 215 288 m 306 18 l 403 1 l 403 -79 l 440 -92 q 500 -128 485 -107 q 515 -186 515 -149 q 466 -290 515 -253 q 353 -326 417 -326 q 222 -297 289 -326 l 246 -229 q 346 -249 294 -249 q 393 -196 393 -249 q 351 -153 393 -164 l 272 -135 l 306 18 z "},"ş":{"ha":633,"x_min":53,"x_max":585,"o":"m 319 688 q 558 643 393 688 l 550 474 l 440 474 l 424 557 q 310 576 378 576 q 221 511 221 576 q 256 452 221 475 q 385 398 290 429 q 532 323 479 367 q 585 201 585 279 q 503 44 585 103 q 298 -14 421 -14 q 53 36 175 -14 l 65 210 l 178 210 l 190 118 q 294 99 242 99 q 382 119 347 99 q 417 178 417 140 q 383 237 417 217 q 275 283 350 257 q 103 371 151 324 q 56 506 56 418 q 131 640 56 593 q 319 688 206 688 m 226 18 l 324 1 l 324 -79 l 361 -92 q 421 -128 406 -107 q 436 -186 436 -149 q 387 -290 436 -253 q 274 -326 338 -326 q 143 -297 210 -326 l 167 -229 q 267 -249 215 -249 q 314 -196 314 -249 q 272 -153 314 -164 l 193 -135 l 226 18 z "},"Š":{"ha":806,"x_min":60,"x_max":751,"o":"m 215 288 l 233 161 q 392 119 310 119 q 524 155 475 119 q 572 249 572 190 q 544 340 572 308 q 429 404 515 372 l 260 468 q 67 749 67 542 q 153 940 67 868 q 388 1013 239 1013 q 708 975 538 1013 l 689 746 l 554 746 l 533 856 q 383 883 464 883 q 250 765 250 883 q 378 613 250 660 l 496 571 q 672 478 606 532 q 751 279 751 411 q 652 67 751 147 q 369 -14 553 -14 q 156 17 243 -14 q 60 50 125 26 l 76 288 l 215 288 m 485 1047 l 333 1047 l 168 1222 l 250 1289 l 408 1153 l 567 1289 l 649 1222 l 485 1047 z "},"š":{"ha":633,"x_min":53,"x_max":585,"o":"m 319 688 q 558 643 393 688 l 550 474 l 440 474 l 424 557 q 310 576 378 576 q 221 511 221 576 q 256 452 221 475 q 385 398 290 429 q 532 323 479 367 q 585 201 585 279 q 503 44 585 103 q 298 -14 421 -14 q 53 36 175 -14 l 65 210 l 178 210 l 190 118 q 294 99 242 99 q 382 119 347 99 q 417 178 417 140 q 383 237 417 217 q 275 283 350 257 q 103 371 151 324 q 56 506 56 418 q 131 640 56 593 q 319 688 206 688 m 394 778 l 243 778 l 99 981 l 181 1047 l 318 883 l 456 1047 l 538 981 l 394 778 z "},"Ţ":{"ha":871,"x_min":17,"x_max":854,"o":"m 665 861 l 524 861 l 524 175 q 531 137 524 147 q 564 122 539 126 l 636 110 l 636 0 l 235 0 l 235 110 l 307 122 q 340 137 332 126 q 347 175 347 147 l 347 861 l 204 861 q 167 853 178 861 q 153 821 156 846 l 143 726 l 26 726 l 17 1000 l 854 1000 l 844 726 l 728 726 l 718 821 q 703 853 715 846 q 665 861 692 861 m 544 -146 q 499 -276 544 -217 q 393 -362 453 -336 l 347 -315 q 410 -265 383 -293 q 438 -217 438 -237 q 422 -221 431 -221 q 356 -195 379 -221 q 333 -132 333 -169 q 435 -44 333 -44 q 517 -73 490 -44 q 544 -146 544 -101 z "},"ţ":{"ha":494,"x_min":32,"x_max":478,"o":"m 281 676 l 449 692 l 449 563 l 281 563 l 281 278 q 298 147 281 189 q 367 106 315 106 q 478 119 418 106 l 463 15 q 304 -14 408 -14 q 161 31 208 -14 q 117 161 124 67 q 114 257 114 197 l 114 563 l 32 563 l 32 660 l 114 671 l 114 781 l 281 818 l 281 676 m 381 -146 q 335 -276 381 -217 q 229 -362 289 -336 l 183 -315 q 247 -265 219 -293 q 274 -217 274 -237 q 258 -221 267 -221 q 192 -195 215 -221 q 169 -132 169 -169 q 271 -44 169 -44 q 353 -73 326 -44 q 381 -146 381 -101 z "},"Ť":{"ha":871,"x_min":17,"x_max":854,"o":"m 665 861 l 524 861 l 524 175 q 531 137 524 147 q 564 122 539 126 l 636 110 l 636 0 l 235 0 l 235 110 l 307 122 q 340 137 332 126 q 347 175 347 147 l 347 861 l 204 861 q 167 853 178 861 q 153 821 156 846 l 143 726 l 26 726 l 17 1000 l 854 1000 l 844 726 l 728 726 l 718 821 q 703 853 715 846 q 665 861 692 861 m 510 1047 l 358 1047 l 193 1222 l 275 1289 l 433 1153 l 592 1289 l 674 1222 l 510 1047 z "},"ť":{"ha":582,"x_min":32,"x_max":565,"o":"m 565 958 q 519 828 565 888 q 414 742 474 768 l 368 789 q 431 839 404 811 q 458 888 458 867 q 443 883 450 883 q 377 909 400 883 q 354 972 354 935 q 456 1060 354 1060 q 538 1031 511 1060 q 565 958 565 1003 m 281 676 l 449 692 l 449 563 l 281 563 l 281 278 q 298 147 281 189 q 367 106 315 106 q 478 119 418 106 l 463 15 q 304 -14 408 -14 q 161 31 208 -14 q 117 161 124 67 q 114 257 114 197 l 114 563 l 32 563 l 32 660 l 114 671 l 114 781 l 281 818 l 281 676 z "},"Ŧ":{"ha":871,"x_min":17,"x_max":854,"o":"m 149 422 l 149 572 l 721 572 l 721 422 l 149 422 m 665 861 l 524 861 l 524 175 q 531 137 524 147 q 564 122 539 126 l 636 110 l 636 0 l 235 0 l 235 110 l 307 122 q 340 137 332 126 q 347 175 347 147 l 347 861 l 204 861 q 167 853 178 861 q 153 821 156 846 l 143 726 l 26 726 l 17 1000 l 854 1000 l 844 726 l 728 726 l 718 821 q 703 853 715 846 q 665 861 692 861 z "},"ŧ":{"ha":494,"x_min":32,"x_max":478,"o":"m 439 428 l 439 304 l 33 304 l 33 428 l 439 428 m 281 676 l 449 692 l 449 563 l 281 563 l 281 278 q 298 147 281 189 q 367 106 315 106 q 478 119 418 106 l 463 15 q 304 -14 408 -14 q 161 31 208 -14 q 117 161 124 67 q 114 257 114 197 l 114 563 l 32 563 l 32 660 l 114 671 l 114 781 l 281 818 l 281 676 z "},"Ũ":{"ha":1007,"x_min":25,"x_max":982,"o":"m 875 825 l 875 322 q 852 193 875 251 q 792 97 829 135 q 703 33 754 60 q 489 -14 608 -14 q 223 73 314 -14 q 132 322 132 160 l 132 825 q 124 863 132 853 q 92 878 117 874 l 25 890 l 25 1000 l 415 1000 l 415 890 l 349 878 q 316 864 324 875 q 308 825 308 853 l 308 344 q 372 181 308 229 q 528 132 435 132 q 663 165 621 132 q 704 356 704 199 l 704 825 q 697 863 704 853 q 664 878 689 874 l 597 890 l 597 1000 l 982 1000 l 982 890 l 915 878 q 883 864 890 875 q 875 825 875 853 m 596 1056 q 497 1081 558 1056 q 397 1107 435 1107 q 303 1069 360 1107 l 269 1153 q 414 1249 333 1249 q 517 1224 456 1249 q 614 1200 578 1200 q 697 1233 650 1200 l 731 1150 q 596 1056 671 1056 z "},"ũ":{"ha":843,"x_min":18,"x_max":808,"o":"m 540 199 l 540 522 q 510 561 540 558 l 439 571 l 439 674 l 707 674 l 707 151 q 738 113 707 115 l 808 103 l 808 0 l 574 0 l 563 93 q 472 19 528 53 q 356 -14 417 -14 q 181 40 242 -14 q 119 192 119 93 l 119 522 q 89 561 119 558 l 18 571 l 18 674 l 286 674 l 286 233 q 388 117 286 117 q 486 149 439 117 q 540 199 533 181 m 490 778 q 391 803 453 778 q 291 829 329 829 q 197 792 253 829 l 164 875 q 308 971 228 971 q 411 947 350 971 q 508 922 472 922 q 592 956 544 922 l 625 872 q 490 778 565 778 z "},"Ū":{"ha":1007,"x_min":25,"x_max":982,"o":"m 875 825 l 875 322 q 852 193 875 251 q 792 97 829 135 q 703 33 754 60 q 489 -14 608 -14 q 223 73 314 -14 q 132 322 132 160 l 132 825 q 124 863 132 853 q 92 878 117 874 l 25 890 l 25 1000 l 415 1000 l 415 890 l 349 878 q 316 864 324 875 q 308 825 308 853 l 308 344 q 372 181 308 229 q 528 132 435 132 q 663 165 621 132 q 704 356 704 199 l 704 825 q 697 863 704 853 q 664 878 689 874 l 597 890 l 597 1000 l 982 1000 l 982 890 l 915 878 q 883 864 890 875 q 875 825 875 853 m 303 1100 l 324 1235 l 715 1235 l 694 1100 l 303 1100 z "},"ū":{"ha":843,"x_min":18,"x_max":808,"o":"m 540 199 l 540 522 q 510 561 540 558 l 439 571 l 439 674 l 707 674 l 707 151 q 738 113 707 115 l 808 103 l 808 0 l 574 0 l 563 93 q 472 19 528 53 q 356 -14 417 -14 q 181 40 242 -14 q 119 192 119 93 l 119 522 q 89 561 119 558 l 18 571 l 18 674 l 286 674 l 286 233 q 388 117 286 117 q 486 149 439 117 q 540 199 533 181 m 206 843 l 226 978 l 618 978 l 597 843 l 206 843 z "},"Ŭ":{"ha":1007,"x_min":25,"x_max":982,"o":"m 875 825 l 875 322 q 852 193 875 251 q 792 97 829 135 q 703 33 754 60 q 489 -14 608 -14 q 223 73 314 -14 q 132 322 132 160 l 132 825 q 124 863 132 853 q 92 878 117 874 l 25 890 l 25 1000 l 415 1000 l 415 890 l 349 878 q 316 864 324 875 q 308 825 308 853 l 308 344 q 372 181 308 229 q 528 132 435 132 q 663 165 621 132 q 704 356 704 199 l 704 825 q 697 863 704 853 q 664 878 689 874 l 597 890 l 597 1000 l 982 1000 l 982 890 l 915 878 q 883 864 890 875 q 875 825 875 853 m 646 1268 l 728 1242 q 646 1110 703 1161 q 503 1060 589 1060 q 358 1110 417 1060 q 274 1242 300 1161 l 363 1268 q 504 1179 417 1179 q 646 1268 592 1179 z "},"ŭ":{"ha":843,"x_min":18,"x_max":808,"o":"m 540 199 l 540 522 q 510 561 540 558 l 439 571 l 439 674 l 707 674 l 707 151 q 738 113 707 115 l 808 103 l 808 0 l 574 0 l 563 93 q 472 19 528 53 q 356 -14 417 -14 q 181 40 242 -14 q 119 192 119 93 l 119 522 q 89 561 119 558 l 18 571 l 18 674 l 286 674 l 286 233 q 388 117 286 117 q 486 149 439 117 q 540 199 533 181 m 549 1011 l 631 985 q 549 853 606 904 q 406 803 492 803 q 261 853 319 803 q 176 985 203 904 l 265 1011 q 407 922 319 922 q 549 1011 494 922 z "},"Ů":{"ha":1007,"x_min":25,"x_max":982,"o":"m 875 825 l 875 322 q 852 193 875 251 q 792 97 829 135 q 703 33 754 60 q 489 -14 608 -14 q 223 73 314 -14 q 132 322 132 160 l 132 825 q 124 863 132 853 q 92 878 117 874 l 25 890 l 25 1000 l 415 1000 l 415 890 l 349 878 q 316 864 324 875 q 308 825 308 853 l 308 344 q 372 181 308 229 q 528 132 435 132 q 663 165 621 132 q 704 356 704 199 l 704 825 q 697 863 704 853 q 664 878 689 874 l 597 890 l 597 1000 l 982 1000 l 982 890 l 915 878 q 883 864 890 875 q 875 825 875 853 m 617 1278 q 637 1257 617 1278 q 657 1181 657 1236 q 613 1081 657 1125 q 499 1038 569 1038 q 390 1079 429 1038 q 350 1176 350 1121 q 394 1276 350 1232 q 508 1319 438 1319 q 617 1278 578 1319 m 560 1183 q 543 1219 560 1206 q 503 1232 526 1232 q 447 1172 447 1232 q 464 1137 447 1150 q 504 1124 481 1124 q 560 1183 560 1124 z "},"ů":{"ha":843,"x_min":18,"x_max":808,"o":"m 540 199 l 540 522 q 510 561 540 558 l 439 571 l 439 674 l 707 674 l 707 151 q 738 113 707 115 l 808 103 l 808 0 l 574 0 l 563 93 q 472 19 528 53 q 356 -14 417 -14 q 181 40 242 -14 q 119 192 119 93 l 119 522 q 89 561 119 558 l 18 571 l 18 674 l 286 674 l 286 233 q 388 117 286 117 q 486 149 439 117 q 540 199 533 181 m 512 1000 q 532 979 512 1000 q 551 903 551 958 q 508 803 551 847 q 394 760 464 760 q 284 801 324 760 q 244 899 244 843 q 288 998 244 954 q 402 1042 332 1042 q 512 1000 472 1042 m 454 906 q 438 941 454 928 q 397 954 421 954 q 342 894 342 954 q 358 859 342 872 q 399 846 375 846 q 454 906 454 846 z "},"Ű":{"ha":1007,"x_min":25,"x_max":982,"o":"m 875 825 l 875 322 q 852 193 875 251 q 792 97 829 135 q 703 33 754 60 q 489 -14 608 -14 q 223 73 314 -14 q 132 322 132 160 l 132 825 q 124 863 132 853 q 92 878 117 874 l 25 890 l 25 1000 l 415 1000 l 415 890 l 349 878 q 316 864 324 875 q 308 825 308 853 l 308 344 q 372 181 308 229 q 528 132 435 132 q 663 165 621 132 q 704 356 704 199 l 704 825 q 697 863 704 853 q 664 878 689 874 l 597 890 l 597 1000 l 982 1000 l 982 890 l 915 878 q 883 864 890 875 q 875 825 875 853 m 449 1328 l 574 1247 l 436 1056 q 379 1024 413 1024 q 303 1050 346 1024 l 449 1328 m 706 1328 l 831 1247 l 694 1056 q 637 1024 671 1024 q 560 1050 603 1024 l 706 1328 z "},"ű":{"ha":843,"x_min":18,"x_max":808,"o":"m 540 199 l 540 522 q 510 561 540 558 l 439 571 l 439 674 l 707 674 l 707 151 q 738 113 707 115 l 808 103 l 808 0 l 574 0 l 563 93 q 472 19 528 53 q 356 -14 417 -14 q 181 40 242 -14 q 119 192 119 93 l 119 522 q 89 561 119 558 l 18 571 l 18 674 l 286 674 l 286 233 q 388 117 286 117 q 486 149 439 117 q 540 199 533 181 m 351 1071 l 476 990 l 339 799 q 282 767 315 767 q 206 793 249 767 l 351 1071 m 608 1071 l 733 990 l 597 799 q 540 767 574 767 q 463 793 506 767 l 608 1071 z "},"Ų":{"ha":1007,"x_min":25,"x_max":982,"o":"m 875 825 l 875 322 q 852 193 875 251 q 792 97 829 135 q 703 33 754 60 q 489 -14 608 -14 q 223 73 314 -14 q 132 322 132 160 l 132 825 q 124 863 132 853 q 92 878 117 874 l 25 890 l 25 1000 l 415 1000 l 415 890 l 349 878 q 316 864 324 875 q 308 825 308 853 l 308 344 q 372 181 308 229 q 528 132 435 132 q 663 165 621 132 q 704 356 704 199 l 704 825 q 697 863 704 853 q 664 878 689 874 l 597 890 l 597 1000 l 982 1000 l 982 890 l 915 878 q 883 864 890 875 q 875 825 875 853 m 321 -185 q 321 -161 321 -185 q 334 -117 321 -136 q 354 -87 347 -97 q 380 -63 361 -78 q 405 -43 399 -49 q 436 -21 411 -37 q 467 0 461 -4 l 611 0 q 514 -69 578 -15 q 447 -162 447 -121 q 461 -199 447 -183 q 501 -215 475 -215 q 592 -197 528 -215 l 615 -278 l 594 -287 q 461 -319 524 -319 q 360 -277 399 -319 q 321 -185 321 -235 z "},"ų":{"ha":843,"x_min":18,"x_max":813,"o":"m 540 199 l 540 522 q 510 561 540 558 l 439 571 l 439 674 l 707 674 l 707 151 q 738 113 707 115 l 808 103 l 808 0 l 574 0 l 563 93 q 472 19 528 53 q 356 -14 417 -14 q 181 40 242 -14 q 119 192 119 93 l 119 522 q 89 561 119 558 l 18 571 l 18 674 l 286 674 l 286 233 q 388 117 286 117 q 486 149 439 117 q 540 199 533 181 m 518 -185 q 518 -161 518 -185 q 531 -117 518 -136 q 551 -87 544 -97 q 577 -63 558 -78 q 602 -43 596 -49 q 633 -21 608 -37 q 664 0 658 -4 l 808 0 q 711 -69 775 -15 q 644 -162 644 -121 q 658 -199 644 -183 q 699 -215 672 -215 q 789 -197 725 -215 l 813 -278 l 792 -287 q 658 -319 721 -319 q 557 -277 596 -319 q 518 -185 518 -235 z "},"Ŵ":{"ha":1363,"x_min":3,"x_max":1360,"o":"m 706 551 l 693 621 l 682 551 l 529 0 l 344 0 l 126 825 q 100 869 118 858 q 50 885 82 881 l 3 890 l 3 1000 l 419 1000 l 419 892 l 347 883 q 307 853 307 879 q 311 825 307 842 l 438 331 l 450 258 l 464 329 l 615 883 l 796 883 l 951 328 l 964 258 l 976 331 l 1096 825 q 1099 846 1099 842 q 1051 883 1099 878 l 985 892 l 985 1000 l 1360 1000 l 1360 890 l 1318 885 q 1276 871 1289 882 q 1256 825 1264 860 l 1047 0 l 863 0 l 706 551 m 618 1275 l 769 1275 l 933 1100 l 851 1033 l 693 1169 l 535 1033 l 453 1100 l 618 1275 z "},"ŵ":{"ha":1075,"x_min":1,"x_max":1071,"o":"m 747 247 l 819 511 q 826 546 826 536 q 808 564 826 560 l 749 572 l 749 674 l 1071 674 l 1071 572 l 1014 564 q 985 549 994 561 q 967 511 975 538 l 804 0 l 643 0 l 547 313 l 535 371 l 522 313 l 422 0 l 267 0 l 106 511 q 88 549 97 538 q 58 564 78 561 l 1 572 l 1 674 l 340 674 l 340 572 l 281 564 q 261 548 261 560 q 269 511 261 536 l 343 247 l 356 185 l 368 247 l 469 596 l 621 596 l 722 247 l 735 185 l 747 247 m 461 1032 l 613 1032 l 756 829 l 674 763 l 536 926 l 399 763 l 317 829 l 461 1032 z "},"Ŷ":{"ha":972,"x_min":3,"x_max":969,"o":"m 839 825 l 572 331 l 572 175 q 580 137 572 147 q 613 122 588 126 l 685 110 l 685 0 l 283 0 l 283 110 l 356 122 q 388 137 381 126 q 396 175 396 147 l 396 344 l 133 825 q 103 868 117 856 q 64 883 89 881 l 3 890 l 3 1000 l 415 1000 l 415 892 l 367 883 q 321 857 321 876 q 333 825 321 850 l 501 500 l 663 825 q 672 855 672 843 q 662 872 672 867 q 624 882 651 878 l 575 890 l 575 1000 l 969 1000 l 969 890 l 908 883 q 868 867 879 878 q 839 825 857 857 m 413 1275 l 564 1275 l 728 1100 l 646 1033 l 488 1169 l 329 1033 l 247 1100 l 413 1275 z "},"ŷ":{"ha":783,"x_min":3,"x_max":781,"o":"m 675 511 l 415 -167 q 185 -347 346 -347 q 39 -325 99 -347 l 21 -203 q 147 -218 86 -218 q 290 -97 246 -218 l 314 -29 l 107 511 q 85 552 96 542 q 60 564 74 563 l 3 572 l 3 674 l 346 674 l 346 572 l 285 564 q 265 546 265 560 q 275 511 265 536 l 403 160 l 525 511 q 535 550 535 538 q 517 564 535 563 l 456 572 l 456 674 l 781 674 l 781 572 l 724 564 q 695 549 704 561 q 675 511 686 538 m 325 1039 l 476 1039 l 619 836 l 538 769 l 400 933 l 263 769 l 181 836 l 325 1039 z "},"Ÿ":{"ha":972,"x_min":3,"x_max":969,"o":"m 839 825 l 572 331 l 572 175 q 580 137 572 147 q 613 122 588 126 l 685 110 l 685 0 l 283 0 l 283 110 l 356 122 q 388 137 381 126 q 396 175 396 147 l 396 344 l 133 825 q 103 868 117 856 q 64 883 89 881 l 3 890 l 3 1000 l 415 1000 l 415 892 l 367 883 q 321 857 321 876 q 333 825 321 850 l 501 500 l 663 825 q 672 855 672 843 q 662 872 672 867 q 624 882 651 878 l 575 890 l 575 1000 l 969 1000 l 969 890 l 908 883 q 868 867 879 878 q 839 825 857 857 m 339 1233 q 369 1233 339 1233 q 415 1210 399 1233 q 432 1140 432 1188 q 408 1072 432 1092 q 333 1051 383 1051 q 260 1069 283 1051 q 236 1137 236 1088 q 258 1210 236 1186 q 339 1233 279 1233 m 638 1233 q 667 1233 638 1233 q 714 1210 697 1233 q 731 1140 731 1188 q 706 1072 731 1092 q 632 1051 682 1051 q 558 1069 582 1051 q 535 1137 535 1088 q 556 1210 535 1186 q 638 1233 578 1233 z "},"Ź":{"ha":860,"x_min":60,"x_max":806,"o":"m 557 860 l 275 860 q 236 852 249 860 q 222 819 224 844 l 213 722 l 92 722 l 82 1000 l 778 1000 l 778 867 l 281 144 l 613 144 q 651 152 639 144 q 665 185 664 160 l 675 282 l 796 282 l 806 0 l 60 0 l 60 138 l 557 860 m 568 1311 l 656 1192 l 458 1061 q 417 1047 436 1047 q 331 1106 371 1047 l 568 1311 z "},"ź":{"ha":713,"x_min":39,"x_max":668,"o":"m 439 557 l 211 557 q 172 526 175 557 l 161 446 l 58 446 l 49 674 l 651 674 l 651 582 l 251 119 l 506 119 q 544 150 542 119 l 556 236 l 658 236 l 668 0 l 39 0 l 39 94 l 439 557 m 381 1065 l 483 958 l 306 803 q 252 783 285 783 q 174 829 219 783 l 381 1065 z "},"Ż":{"ha":860,"x_min":60,"x_max":806,"o":"m 557 860 l 275 860 q 236 852 249 860 q 222 819 224 844 l 213 722 l 92 722 l 82 1000 l 778 1000 l 778 867 l 281 144 l 613 144 q 651 152 639 144 q 665 185 664 160 l 675 282 l 796 282 l 806 0 l 60 0 l 60 138 l 557 860 m 440 1281 q 475 1281 440 1281 q 529 1253 510 1281 q 549 1169 549 1226 q 520 1089 549 1113 q 433 1065 492 1065 q 347 1087 375 1065 q 319 1167 319 1108 q 344 1253 319 1225 q 440 1281 369 1281 z "},"ż":{"ha":713,"x_min":39,"x_max":668,"o":"m 439 557 l 211 557 q 172 526 175 557 l 161 446 l 58 446 l 49 674 l 651 674 l 651 582 l 251 119 l 506 119 q 544 150 542 119 l 556 236 l 658 236 l 668 0 l 39 0 l 39 94 l 439 557 m 355 989 q 390 989 355 989 q 444 962 425 989 q 464 878 464 935 q 435 797 464 821 q 349 774 407 774 q 263 795 290 774 q 235 875 235 817 q 260 961 235 933 q 355 989 285 989 z "},"Ž":{"ha":860,"x_min":60,"x_max":806,"o":"m 557 860 l 275 860 q 236 852 249 860 q 222 819 224 844 l 213 722 l 92 722 l 82 1000 l 778 1000 l 778 867 l 281 144 l 613 144 q 651 152 639 144 q 665 185 664 160 l 675 282 l 796 282 l 806 0 l 60 0 l 60 138 l 557 860 m 507 1047 l 356 1047 l 190 1222 l 272 1289 l 431 1153 l 589 1289 l 671 1222 l 507 1047 z "},"ž":{"ha":713,"x_min":39,"x_max":668,"o":"m 439 557 l 211 557 q 172 526 175 557 l 161 446 l 58 446 l 49 674 l 651 674 l 651 582 l 251 119 l 506 119 q 544 150 542 119 l 556 236 l 658 236 l 668 0 l 39 0 l 39 94 l 439 557 m 424 778 l 272 778 l 128 981 l 210 1047 l 347 883 l 485 1047 l 567 981 l 424 778 z "},"ſ":{"ha":506,"x_min":42,"x_max":592,"o":"m 143 151 l 143 814 q 220 1024 143 951 q 429 1097 297 1097 q 592 1064 497 1097 l 535 928 q 386 971 449 971 q 310 882 310 971 l 310 151 q 340 113 310 115 l 436 103 l 436 0 l 42 0 l 42 103 l 113 113 q 143 151 143 115 z "},"ƒ":{"ha":493,"x_min":-43,"x_max":579,"o":"m 46 563 l 143 574 l 143 771 q 216 978 143 907 q 415 1049 289 1049 q 579 1008 504 1049 l 518 878 q 371 917 432 917 q 310 849 310 917 l 310 581 l 488 597 l 474 464 l 310 464 l 310 15 q 255 -196 310 -133 q 31 -308 200 -258 l -43 -217 q 78 -157 49 -183 q 117 -113 107 -131 q 133 -64 128 -96 q 143 82 143 -17 l 143 464 l 46 464 l 46 563 z "},"Ơ":{"ha":1029,"x_min":54,"x_max":1118,"o":"m 963 1018 q 928 928 963 956 q 835 890 894 901 l 842 806 q 965 835 907 814 q 1070 908 1022 857 q 1118 1029 1118 958 q 1108 1106 1118 1069 l 951 1089 l 963 1018 m 864 144 q 709 28 807 71 q 482 -14 611 -14 q 157 124 260 -14 q 54 500 54 261 q 167 856 54 710 q 320 972 222 929 q 547 1014 418 1014 q 872 876 769 1014 q 975 515 975 739 q 864 144 975 290 m 785 508 q 710 774 785 679 q 506 869 636 869 q 324 821 376 869 q 265 688 286 786 q 244 492 244 590 q 319 226 244 321 q 524 131 393 131 q 706 179 656 131 q 763 313 742 214 q 785 508 785 411 z "},"ơ":{"ha":864,"x_min":47,"x_max":899,"o":"m 743 725 q 709 635 743 663 q 615 597 675 608 l 622 513 q 745 542 688 521 q 851 615 803 564 q 899 736 899 665 q 889 813 899 776 l 732 796 l 743 725 m 735 336 q 651 100 735 206 q 536 17 610 49 q 368 -14 463 -14 q 125 81 203 -14 q 47 336 47 175 q 131 572 47 467 q 245 656 172 625 q 413 688 318 688 q 657 593 579 688 q 735 336 735 499 m 557 343 q 510 505 557 446 q 385 564 464 564 q 272 531 306 564 q 237 449 249 508 q 225 331 225 390 q 271 168 225 226 q 396 110 317 110 q 508 143 475 110 q 544 224 532 165 q 557 343 557 283 z "},"Ư":{"ha":1122,"x_min":25,"x_max":1146,"o":"m 990 1074 q 956 984 990 1011 q 863 946 922 957 l 869 861 q 992 891 935 869 q 1098 963 1050 913 q 1146 1085 1146 1014 q 1136 1161 1146 1125 l 979 1144 l 990 1074 m 875 825 l 875 322 q 852 193 875 251 q 792 97 829 135 q 703 33 754 60 q 489 -14 608 -14 q 223 73 314 -14 q 132 322 132 160 l 132 825 q 124 863 132 853 q 92 878 117 874 l 25 890 l 25 1000 l 415 1000 l 415 890 l 349 878 q 316 864 324 875 q 308 825 308 853 l 308 344 q 372 181 308 229 q 528 132 435 132 q 663 165 621 132 q 704 356 704 199 l 704 825 q 697 863 704 853 q 664 878 689 874 l 597 890 l 597 1000 l 982 1000 l 982 890 l 915 878 q 883 864 890 875 q 875 825 875 853 z "},"ư":{"ha":947,"x_min":18,"x_max":964,"o":"m 797 796 q 808 725 808 738 q 774 635 808 663 q 681 597 740 608 l 688 513 q 810 542 753 521 q 916 615 868 564 q 964 736 964 665 q 954 813 964 776 l 797 796 m 540 199 l 540 522 q 510 561 540 558 l 439 571 l 439 674 l 707 674 l 707 151 q 738 113 707 115 l 808 103 l 808 0 l 574 0 l 563 93 q 472 19 528 53 q 356 -14 417 -14 q 181 40 242 -14 q 119 192 119 93 l 119 522 q 89 561 119 558 l 18 571 l 18 674 l 286 674 l 286 233 q 388 117 286 117 q 486 149 439 117 q 540 199 533 181 z "},"ǰ":{"ha":410,"x_min":-40,"x_max":425,"o":"m 303 674 l 303 10 q 255 -199 303 -135 q 35 -347 207 -262 l -40 -271 q 78 -183 44 -217 q 124 -100 111 -149 q 136 47 136 -51 l 136 524 q 106 563 136 560 l 35 571 l 35 674 l 303 674 m 282 778 l 131 778 l -14 981 l 68 1047 l 206 883 l 343 1047 l 425 981 l 282 778 z "},"Ǻ":{"ha":979,"x_min":3,"x_max":976,"o":"m 114 183 l 403 950 l 568 950 l 863 183 q 888 136 875 147 q 929 119 900 125 l 976 110 l 976 0 l 575 0 l 575 107 l 644 119 q 682 149 682 125 q 675 181 682 157 l 626 303 l 326 303 l 282 185 q 275 153 275 164 q 314 119 275 125 l 382 107 l 382 0 l 3 0 l 3 110 l 49 119 q 89 136 76 125 q 114 183 101 147 m 581 439 l 490 671 l 472 742 l 458 674 l 369 439 l 581 439 m 595 970 q 617 992 595 970 q 639 1069 639 1014 q 599 1167 639 1125 q 490 1208 560 1208 q 376 1165 419 1208 q 332 1065 332 1121 q 372 968 332 1010 q 481 926 411 926 q 595 970 551 926 m 542 1072 q 486 1013 542 1013 q 446 1026 463 1013 q 429 1061 429 1039 q 485 1121 429 1121 q 525 1108 508 1121 q 542 1072 542 1094 m 628 1496 l 715 1376 l 518 1246 q 476 1232 496 1232 q 390 1290 431 1232 l 628 1496 z "},"ǻ":{"ha":756,"x_min":56,"x_max":725,"o":"m 624 488 l 624 151 q 654 113 624 115 l 725 103 l 725 0 l 476 0 l 465 82 q 263 -14 369 -14 q 106 36 156 -14 q 56 172 56 86 q 109 311 56 257 q 264 379 163 365 l 457 404 l 457 485 q 336 572 457 572 q 232 550 282 572 l 215 458 l 106 458 l 93 629 q 238 676 190 664 q 344 688 285 688 q 544 638 464 688 q 624 488 624 589 m 457 294 l 304 269 q 226 181 226 256 q 304 111 226 111 q 392 138 343 111 q 457 186 440 165 l 457 294 m 476 1014 q 495 993 476 1014 q 515 917 515 972 q 472 817 515 861 q 358 774 428 774 q 248 815 288 774 q 208 913 208 857 q 252 1012 208 968 q 366 1056 296 1056 q 476 1014 436 1056 m 418 919 q 401 955 418 942 q 361 968 385 968 q 306 908 306 968 q 322 873 306 886 q 363 860 339 860 q 418 919 418 860 m 456 1361 l 543 1242 l 346 1111 q 304 1097 324 1097 q 218 1156 258 1097 l 456 1361 z "},"Ǽ":{"ha":1314,"x_min":3,"x_max":1239,"o":"m 328 1000 l 1213 1000 l 1203 725 l 1079 725 l 1072 815 q 1058 848 1071 840 q 1019 856 1046 856 l 794 856 l 794 592 l 1069 592 l 1069 447 l 794 447 l 794 144 l 1047 144 q 1086 152 1074 144 q 1100 185 1099 160 l 1108 289 l 1229 289 l 1239 0 l 510 0 l 510 111 l 578 124 q 610 138 603 126 q 618 176 618 149 l 618 447 l 382 447 l 283 185 q 276 156 276 168 q 315 119 276 126 l 383 107 l 383 0 l 3 0 l 3 110 l 54 119 q 93 135 81 124 q 119 183 106 147 l 393 890 l 328 896 l 328 1000 m 618 817 q 610 858 618 844 q 578 872 603 871 l 542 875 l 436 592 l 618 592 l 618 817 m 840 1311 l 928 1192 l 731 1061 q 689 1047 708 1047 q 603 1106 643 1047 l 840 1311 z "},"ǽ":{"ha":1117,"x_min":61,"x_max":1060,"o":"m 260 -14 q 111 36 161 -14 q 61 172 61 86 q 115 311 61 257 q 269 379 168 365 l 463 404 l 463 485 q 342 572 463 572 q 238 550 288 572 l 221 458 l 111 458 l 99 629 q 243 676 196 664 q 350 688 290 688 q 544 638 467 688 q 622 488 622 589 l 622 140 l 514 122 q 400 28 476 69 q 260 -14 324 -14 m 463 294 l 310 269 q 232 181 232 256 q 310 111 232 111 q 397 138 349 111 q 463 186 446 165 l 463 294 m 1060 325 l 632 294 q 801 110 643 110 q 1031 150 889 110 l 1057 50 q 763 -14 893 -14 q 494 132 568 -14 l 528 561 q 781 688 615 688 q 1003 598 946 688 q 1060 325 1060 508 m 629 404 l 897 426 q 779 564 894 564 q 669 533 696 564 q 629 404 642 501 m 654 1065 l 757 958 l 579 803 q 526 783 558 783 q 447 829 493 783 l 654 1065 z "},"Ǿ":{"ha":996,"x_min":54,"x_max":975,"o":"m 296 -85 l 178 -28 l 219 63 q 54 500 54 185 q 167 856 54 710 q 320 972 222 929 q 547 1014 418 1014 q 653 1004 597 1014 l 694 1093 l 813 1036 l 776 958 q 975 500 975 843 q 864 144 975 290 q 709 28 807 71 q 482 -14 611 -14 q 336 4 406 -14 l 296 -85 m 785 508 q 699 789 785 694 l 406 156 q 532 131 460 131 q 706 179 656 131 q 763 313 742 214 q 785 508 785 411 m 497 869 q 324 821 376 869 q 265 688 286 786 q 244 492 244 590 q 304 246 244 336 l 586 857 q 497 869 544 869 m 633 1311 l 721 1192 l 524 1061 q 482 1047 501 1047 q 396 1106 436 1047 l 633 1311 z "},"ǿ":{"ha":754,"x_min":47,"x_max":735,"o":"m 226 -83 l 115 -31 l 154 51 q 47 336 47 139 q 131 572 47 467 q 245 656 172 625 q 413 688 318 688 q 457 685 429 688 l 490 754 l 601 701 l 578 653 q 735 336 735 576 q 651 100 735 206 q 536 17 610 49 q 387 -14 463 -14 q 265 -1 311 -14 l 226 -83 m 557 343 q 508 507 557 450 l 325 125 q 401 110 360 110 q 508 143 475 110 q 544 224 532 165 q 557 343 557 283 m 379 564 q 272 531 306 564 q 237 449 249 508 q 225 330 225 390 q 239 228 225 269 l 399 563 q 379 564 393 564 m 449 1065 l 551 958 l 374 803 q 320 783 353 783 q 242 829 288 783 l 449 1065 z "},"Ș":{"ha":806,"x_min":60,"x_max":751,"o":"m 215 288 l 233 161 q 392 119 310 119 q 524 155 475 119 q 572 249 572 190 q 544 340 572 308 q 429 404 515 372 l 260 468 q 67 749 67 542 q 153 940 67 868 q 388 1013 239 1013 q 708 975 538 1013 l 689 746 l 554 746 l 533 856 q 383 883 464 883 q 250 765 250 883 q 378 613 250 660 l 496 571 q 672 478 606 532 q 751 279 751 411 q 652 67 751 147 q 369 -14 553 -14 q 156 17 243 -14 q 60 50 125 26 l 76 288 l 215 288 m 479 -146 q 433 -276 479 -217 q 328 -362 388 -336 l 282 -315 q 345 -265 318 -293 q 372 -217 372 -237 q 357 -221 367 -221 q 291 -195 314 -221 q 268 -132 268 -169 q 369 -44 268 -44 q 452 -73 425 -44 q 479 -146 479 -101 z "},"ș":{"ha":633,"x_min":53,"x_max":585,"o":"m 319 688 q 558 643 393 688 l 550 474 l 440 474 l 424 557 q 310 576 378 576 q 221 511 221 576 q 256 452 221 475 q 385 398 290 429 q 532 323 479 367 q 585 201 585 279 q 503 44 585 103 q 298 -14 421 -14 q 53 36 175 -14 l 65 210 l 178 210 l 190 118 q 294 99 242 99 q 382 119 347 99 q 417 178 417 140 q 383 237 417 217 q 275 283 350 257 q 103 371 151 324 q 56 506 56 418 q 131 640 56 593 q 319 688 206 688 m 400 -146 q 354 -276 400 -217 q 249 -362 308 -336 l 203 -315 q 266 -265 239 -293 q 293 -217 293 -237 q 278 -221 286 -221 q 212 -195 235 -221 q 189 -132 189 -169 q 290 -44 189 -44 q 373 -73 346 -44 q 400 -146 400 -101 z "},"ȷ":{"ha":410,"x_min":-40,"x_max":303,"o":"m 303 674 l 303 10 q 255 -199 303 -135 q 35 -347 207 -262 l -40 -271 q 78 -183 44 -217 q 124 -100 111 -149 q 136 47 136 -51 l 136 524 q 106 563 136 560 l 35 571 l 35 674 l 303 674 z "},"ˆ":{"ha":490,"x_min":26,"x_max":465,"o":"m 171 1032 l 322 1032 l 465 829 l 383 763 l 246 926 l 108 763 l 26 829 l 171 1032 z "},"ˇ":{"ha":490,"x_min":26,"x_max":465,"o":"m 322 778 l 171 778 l 26 981 l 108 1047 l 246 883 l 383 1047 l 465 981 l 322 778 z "},"˘":{"ha":522,"x_min":38,"x_max":492,"o":"m 410 1004 l 492 978 q 410 847 467 897 q 267 796 353 796 q 122 847 181 796 q 38 978 64 897 l 126 1004 q 268 915 181 915 q 410 1004 356 915 z "},"˙":{"ha":349,"x_min":60,"x_max":289,"o":"m 180 986 q 215 986 180 986 q 269 959 250 986 q 289 875 289 932 q 260 794 289 818 q 174 771 232 771 q 88 792 115 771 q 60 872 60 814 q 85 958 60 931 q 180 986 110 986 z "},"˚":{"ha":432,"x_min":63,"x_max":369,"o":"m 330 1014 q 350 993 330 1014 q 369 917 369 972 q 326 817 369 861 q 212 774 282 774 q 102 815 142 774 q 63 913 63 857 q 106 1012 63 968 q 220 1056 150 1056 q 330 1014 290 1056 m 272 919 q 256 955 272 942 q 215 968 239 968 q 160 908 160 968 q 176 873 160 886 q 217 860 193 860 q 272 919 272 860 z "},"˛":{"ha":333,"x_min":26,"x_max":321,"o":"m 26 -185 q 26 -161 26 -185 q 40 -117 26 -136 q 60 -87 53 -97 q 85 -63 67 -78 q 110 -43 104 -49 q 142 -21 117 -37 q 172 0 167 -4 l 317 0 q 219 -69 283 -15 q 153 -162 153 -121 q 167 -199 153 -183 q 207 -215 181 -215 q 297 -197 233 -215 l 321 -278 l 300 -287 q 167 -319 229 -319 q 65 -277 104 -319 q 26 -185 26 -235 z "},"˜":{"ha":561,"x_min":46,"x_max":507,"o":"m 372 792 q 273 817 335 792 q 174 843 211 843 q 79 806 136 843 l 46 889 q 190 985 110 985 q 293 960 232 985 q 390 936 354 936 q 474 969 426 936 l 507 886 q 372 792 447 792 z "},"˝":{"ha":694,"x_min":83,"x_max":611,"o":"m 229 1064 l 354 983 l 217 792 q 157 760 193 760 q 111 770 131 760 q 83 786 92 781 l 229 1064 m 486 1064 l 611 983 l 475 792 q 417 760 451 760 q 340 786 383 760 l 486 1064 z "},"̉":{"ha":349,"x_min":38,"x_max":326,"o":"m 185 807 l 100 796 l 82 935 q 172 966 142 950 q 201 1007 201 982 q 139 1049 201 1049 q 46 1035 115 1049 l 38 1106 q 56 1112 40 1107 q 83 1121 71 1117 q 173 1132 117 1132 q 278 1103 229 1132 q 326 1019 326 1074 q 290 936 326 964 q 185 888 254 908 l 185 807 z "},"Ḁ":{"ha":979,"x_min":3,"x_max":976,"o":"m 114 183 l 403 1000 l 568 1000 l 863 183 q 888 136 875 147 q 929 119 900 125 l 976 110 l 976 0 l 575 0 l 575 107 l 644 119 q 682 149 682 125 q 675 181 682 157 l 632 303 l 321 303 l 282 185 q 275 153 275 164 q 314 119 275 125 l 382 107 l 382 0 l 3 0 l 3 110 l 49 119 q 89 136 76 125 q 114 183 101 147 m 583 439 l 490 706 l 472 776 l 458 708 l 367 439 l 583 439 m 592 -93 q 612 -114 592 -93 q 632 -190 632 -135 q 588 -290 632 -246 q 474 -333 544 -333 q 365 -292 404 -333 q 325 -194 325 -250 q 369 -95 325 -139 q 483 -51 413 -51 q 592 -93 553 -51 m 535 -187 q 518 -152 535 -165 q 478 -139 501 -139 q 422 -199 422 -139 q 439 -234 422 -221 q 479 -247 456 -247 q 535 -187 535 -247 z "},"ḁ":{"ha":756,"x_min":56,"x_max":725,"o":"m 624 488 l 624 151 q 654 113 624 115 l 725 103 l 725 0 l 476 0 l 465 82 q 263 -14 369 -14 q 106 36 156 -14 q 56 172 56 86 q 109 311 56 257 q 264 379 163 365 l 457 404 l 457 485 q 336 572 457 572 q 232 550 282 572 l 215 458 l 106 458 l 93 629 q 238 676 190 664 q 344 688 285 688 q 544 638 464 688 q 624 488 624 589 m 457 294 l 304 269 q 226 181 226 256 q 304 111 226 111 q 392 138 343 111 q 457 186 440 165 l 457 294 m 476 -93 q 495 -114 476 -93 q 515 -190 515 -135 q 472 -290 515 -246 q 358 -333 428 -333 q 248 -292 288 -333 q 208 -194 208 -250 q 252 -95 208 -139 q 366 -51 296 -51 q 476 -93 436 -51 m 418 -187 q 401 -152 418 -165 q 361 -139 385 -139 q 306 -199 306 -139 q 322 -234 306 -221 q 363 -247 339 -247 q 418 -187 418 -247 z "},"Ḿ":{"ha":1354,"x_min":43,"x_max":1322,"o":"m 365 640 l 338 729 l 338 639 l 307 165 q 349 118 306 124 l 414 110 l 414 0 l 43 0 l 43 110 l 110 122 q 141 137 135 128 q 150 174 147 146 l 206 840 q 164 882 210 876 l 99 890 l 99 1000 l 419 1000 l 668 292 l 683 219 l 697 292 l 928 1000 l 1261 1000 l 1261 890 l 1190 882 q 1150 861 1156 878 q 1147 848 1147 854 q 1147 838 1147 842 l 1207 174 q 1216 136 1210 146 q 1247 122 1222 126 l 1322 110 l 1322 0 l 925 0 l 925 110 l 993 118 q 1033 163 1038 124 l 994 639 l 992 729 l 971 643 l 754 0 l 593 0 l 365 640 m 819 1311 l 907 1192 l 710 1061 q 668 1047 688 1047 q 582 1106 622 1047 l 819 1311 z "},"ḿ":{"ha":1269,"x_min":42,"x_max":1239,"o":"m 719 478 l 719 151 q 750 113 719 115 l 821 103 l 821 0 l 553 0 l 553 442 q 460 553 553 553 q 310 488 375 553 l 310 151 q 340 113 310 115 l 411 103 l 411 0 l 42 0 l 42 103 l 113 113 q 143 151 143 115 l 143 522 q 113 561 143 558 l 42 571 l 42 674 l 276 674 l 288 581 q 385 656 328 625 q 503 688 442 688 q 701 576 657 688 q 912 688 799 688 q 1081 634 1025 688 q 1138 481 1138 581 l 1138 151 q 1168 113 1138 115 l 1239 103 l 1239 0 l 971 0 l 971 442 q 877 553 971 553 q 719 478 783 553 m 776 1065 l 879 958 l 701 803 q 648 783 681 783 q 569 829 615 783 l 776 1065 z "},"Ẁ":{"ha":1363,"x_min":3,"x_max":1360,"o":"m 706 551 l 693 621 l 682 551 l 529 0 l 344 0 l 126 825 q 100 869 118 858 q 50 885 82 881 l 3 890 l 3 1000 l 419 1000 l 419 892 l 347 883 q 307 853 307 879 q 311 825 307 842 l 438 331 l 450 258 l 464 329 l 615 883 l 796 883 l 951 328 l 964 258 l 976 331 l 1096 825 q 1099 846 1099 842 q 1051 883 1099 878 l 985 892 l 985 1000 l 1360 1000 l 1360 890 l 1318 885 q 1276 871 1289 882 q 1256 825 1264 860 l 1047 0 l 863 0 l 706 551 m 454 1189 l 542 1308 l 779 1103 q 693 1044 739 1044 q 651 1058 674 1044 l 454 1189 z "},"ẁ":{"ha":1075,"x_min":1,"x_max":1071,"o":"m 747 247 l 819 511 q 826 546 826 536 q 808 564 826 560 l 749 572 l 749 674 l 1071 674 l 1071 572 l 1014 564 q 985 549 994 561 q 967 511 975 538 l 804 0 l 643 0 l 547 313 l 535 371 l 522 313 l 422 0 l 267 0 l 106 511 q 88 549 97 538 q 58 564 78 561 l 1 572 l 1 674 l 340 674 l 340 572 l 281 564 q 261 548 261 560 q 269 511 261 536 l 343 247 l 356 185 l 368 247 l 469 596 l 621 596 l 722 247 l 735 185 l 747 247 m 317 958 l 419 1065 l 626 829 q 548 783 581 783 q 494 803 515 783 l 317 958 z "},"Ẃ":{"ha":1363,"x_min":3,"x_max":1360,"o":"m 706 551 l 693 621 l 682 551 l 529 0 l 344 0 l 126 825 q 100 869 118 858 q 50 885 82 881 l 3 890 l 3 1000 l 419 1000 l 419 892 l 347 883 q 307 853 307 879 q 311 825 307 842 l 438 331 l 450 258 l 464 329 l 615 883 l 796 883 l 951 328 l 964 258 l 976 331 l 1096 825 q 1099 846 1099 842 q 1051 883 1099 878 l 985 892 l 985 1000 l 1360 1000 l 1360 890 l 1318 885 q 1276 871 1289 882 q 1256 825 1264 860 l 1047 0 l 863 0 l 706 551 m 829 1311 l 917 1192 l 719 1061 q 678 1047 697 1047 q 592 1106 632 1047 l 829 1311 z "},"ẃ":{"ha":1075,"x_min":1,"x_max":1071,"o":"m 747 247 l 819 511 q 826 546 826 536 q 808 564 826 560 l 749 572 l 749 674 l 1071 674 l 1071 572 l 1014 564 q 985 549 994 561 q 967 511 975 538 l 804 0 l 643 0 l 547 313 l 535 371 l 522 313 l 422 0 l 267 0 l 106 511 q 88 549 97 538 q 58 564 78 561 l 1 572 l 1 674 l 340 674 l 340 572 l 281 564 q 261 548 261 560 q 269 511 261 536 l 343 247 l 356 185 l 368 247 l 469 596 l 621 596 l 722 247 l 735 185 l 747 247 m 610 1065 l 713 958 l 535 803 q 481 783 514 783 q 403 829 449 783 l 610 1065 z "},"Ỳ":{"ha":972,"x_min":3,"x_max":969,"o":"m 839 825 l 572 331 l 572 175 q 580 137 572 147 q 613 122 588 126 l 685 110 l 685 0 l 283 0 l 283 110 l 356 122 q 388 137 381 126 q 396 175 396 147 l 396 344 l 133 825 q 103 868 117 856 q 64 883 89 881 l 3 890 l 3 1000 l 415 1000 l 415 892 l 367 883 q 321 857 321 876 q 333 825 321 850 l 501 500 l 663 825 q 672 855 672 843 q 662 872 672 867 q 624 882 651 878 l 575 890 l 575 1000 l 969 1000 l 969 890 l 908 883 q 868 867 879 878 q 839 825 857 857 m 260 1193 l 347 1313 l 585 1107 q 499 1049 544 1049 q 457 1063 479 1049 l 260 1193 z "},"ỳ":{"ha":783,"x_min":3,"x_max":781,"o":"m 675 511 l 415 -167 q 185 -347 346 -347 q 39 -325 99 -347 l 21 -203 q 147 -218 86 -218 q 290 -97 246 -218 l 314 -29 l 107 511 q 85 552 96 542 q 60 564 74 563 l 3 572 l 3 674 l 346 674 l 346 572 l 285 564 q 265 546 265 560 q 275 511 265 536 l 403 160 l 525 511 q 535 550 535 538 q 517 564 535 563 l 456 572 l 456 674 l 781 674 l 781 572 l 724 564 q 695 549 704 561 q 675 511 686 538 m 146 944 l 249 1051 l 456 815 q 377 769 410 769 q 324 789 344 769 l 146 944 z "},"Ỵ":{"ha":972,"x_min":3,"x_max":969,"o":"m 839 825 l 572 331 l 572 175 q 580 137 572 147 q 613 122 588 126 l 685 110 l 685 0 l 283 0 l 283 110 l 356 122 q 388 137 381 126 q 396 175 396 147 l 396 344 l 133 825 q 103 868 117 856 q 64 883 89 881 l 3 890 l 3 1000 l 415 1000 l 415 892 l 367 883 q 321 857 321 876 q 333 825 321 850 l 501 500 l 663 825 q 672 855 672 843 q 662 872 672 867 q 624 882 651 878 l 575 890 l 575 1000 l 969 1000 l 969 890 l 908 883 q 868 867 879 878 q 839 825 857 857 m 495 -72 q 530 -72 495 -72 q 585 -99 565 -72 q 604 -183 604 -126 q 576 -264 604 -240 q 489 -287 547 -287 q 403 -266 431 -287 q 375 -186 375 -244 q 400 -100 375 -128 q 495 -72 425 -72 z "},"ỵ":{"ha":783,"x_min":3,"x_max":781,"o":"m 675 511 l 415 -167 q 185 -347 346 -347 q 39 -325 99 -347 l 21 -203 q 147 -218 86 -218 q 290 -97 246 -218 l 314 -29 l 107 511 q 85 552 96 542 q 60 564 74 563 l 3 572 l 3 674 l 346 674 l 346 572 l 285 564 q 265 546 265 560 q 275 511 265 536 l 403 160 l 525 511 q 535 550 535 538 q 517 564 535 563 l 456 572 l 456 674 l 781 674 l 781 572 l 724 564 q 695 549 704 561 q 675 511 686 538 m 615 -72 q 650 -72 615 -72 q 704 -99 685 -72 q 724 -183 724 -126 q 695 -264 724 -240 q 608 -287 667 -287 q 522 -266 550 -287 q 494 -186 494 -244 q 519 -100 494 -128 q 615 -72 544 -72 z "},"Ỷ":{"ha":972,"x_min":3,"x_max":969,"o":"m 839 825 l 572 331 l 572 175 q 580 137 572 147 q 613 122 588 126 l 685 110 l 685 0 l 283 0 l 283 110 l 356 122 q 388 137 381 126 q 396 175 396 147 l 396 344 l 133 825 q 103 868 117 856 q 64 883 89 881 l 3 890 l 3 1000 l 415 1000 l 415 892 l 367 883 q 321 857 321 876 q 333 825 321 850 l 501 500 l 663 825 q 672 855 672 843 q 662 872 672 867 q 624 882 651 878 l 575 890 l 575 1000 l 969 1000 l 969 890 l 908 883 q 868 867 879 878 q 839 825 857 857 m 544 1025 l 460 1014 l 442 1153 q 531 1184 501 1168 q 561 1225 561 1200 q 499 1267 561 1267 q 406 1253 475 1267 l 397 1324 q 415 1330 400 1325 q 443 1339 431 1335 q 533 1350 476 1350 q 638 1321 589 1350 q 686 1237 686 1292 q 650 1154 686 1182 q 544 1106 614 1126 l 544 1025 z "},"ỷ":{"ha":783,"x_min":3,"x_max":781,"o":"m 675 511 l 415 -167 q 185 -347 346 -347 q 39 -325 99 -347 l 21 -203 q 147 -218 86 -218 q 290 -97 246 -218 l 314 -29 l 107 511 q 85 552 96 542 q 60 564 74 563 l 3 572 l 3 674 l 346 674 l 346 572 l 285 564 q 265 546 265 560 q 275 511 265 536 l 403 160 l 525 511 q 535 550 535 538 q 517 564 535 563 l 456 572 l 456 674 l 781 674 l 781 572 l 724 564 q 695 549 704 561 q 675 511 686 538 m 449 807 l 364 796 l 346 935 q 435 966 406 950 q 465 1007 465 982 q 403 1049 465 1049 q 310 1035 379 1049 l 301 1106 q 319 1112 304 1107 q 347 1121 335 1117 q 437 1132 381 1132 q 542 1103 493 1132 q 590 1019 590 1074 q 554 936 590 964 q 449 888 518 908 l 449 807 z "},"Ỹ":{"ha":972,"x_min":3,"x_max":969,"o":"m 839 825 l 572 331 l 572 175 q 580 137 572 147 q 613 122 588 126 l 685 110 l 685 0 l 283 0 l 283 110 l 356 122 q 388 137 381 126 q 396 175 396 147 l 396 344 l 133 825 q 103 868 117 856 q 64 883 89 881 l 3 890 l 3 1000 l 415 1000 l 415 892 l 367 883 q 321 857 321 876 q 333 825 321 850 l 501 500 l 663 825 q 672 855 672 843 q 662 872 672 867 q 624 882 651 878 l 575 890 l 575 1000 l 969 1000 l 969 890 l 908 883 q 868 867 879 878 q 839 825 857 857 m 579 1056 q 480 1081 542 1056 q 380 1107 418 1107 q 286 1069 342 1107 l 253 1153 q 397 1249 317 1249 q 500 1224 439 1249 q 597 1200 561 1200 q 681 1233 633 1200 l 714 1150 q 579 1056 654 1056 z "},"ỹ":{"ha":783,"x_min":3,"x_max":781,"o":"m 675 511 l 415 -167 q 185 -347 346 -347 q 39 -325 99 -347 l 21 -203 q 147 -218 86 -218 q 290 -97 246 -218 l 314 -29 l 107 511 q 85 552 96 542 q 60 564 74 563 l 3 572 l 3 674 l 346 674 l 346 572 l 285 564 q 265 546 265 560 q 275 511 265 536 l 403 160 l 525 511 q 535 550 535 538 q 517 564 535 563 l 456 572 l 456 674 l 781 674 l 781 572 l 724 564 q 695 549 704 561 q 675 511 686 538 m 492 799 q 392 824 454 799 q 293 850 331 850 q 199 813 256 850 l 165 896 q 310 992 229 992 q 413 967 351 992 q 510 943 474 943 q 593 976 546 943 l 626 893 q 492 799 567 799 z "},"–":{"ha":642,"x_min":0,"x_max":642,"o":"m 0 292 l 0 419 l 642 419 l 642 292 l 0 292 z "},"—":{"ha":1264,"x_min":0,"x_max":1264,"o":"m 0 292 l 0 419 l 1264 419 l 1264 292 l 0 292 z "},"‘":{"ha":357,"x_min":60,"x_max":308,"o":"m 60 828 q 117 990 60 914 q 243 1104 174 1067 l 308 1036 q 232 976 268 1014 q 196 900 196 938 q 273 869 249 894 q 297 790 297 843 q 193 693 297 693 q 60 828 60 693 z "},"’":{"ha":357,"x_min":49,"x_max":297,"o":"m 297 969 q 240 807 297 883 q 114 693 183 731 l 49 761 q 125 822 89 783 q 161 897 161 860 q 84 928 108 903 q 60 1007 60 954 q 164 1104 60 1104 q 297 969 297 1104 z "},"‚":{"ha":338,"x_min":58,"x_max":282,"o":"m 282 50 q 233 -99 282 -32 q 117 -201 183 -165 l 58 -144 q 158 -15 158 -82 q 81 14 104 -10 q 58 88 58 38 q 161 185 58 185 q 282 50 282 185 z "},"“":{"ha":679,"x_min":61,"x_max":631,"o":"m 382 828 q 439 990 382 914 q 565 1104 496 1067 l 631 1036 q 554 976 590 1014 q 518 900 518 938 q 595 869 571 894 q 619 790 619 843 q 515 693 619 693 q 382 828 382 693 m 61 828 q 118 990 61 914 q 244 1104 175 1067 l 310 1036 q 233 976 269 1014 q 197 900 197 938 q 274 869 250 894 q 299 790 299 843 q 194 693 299 693 q 61 828 61 693 z "},"”":{"ha":679,"x_min":49,"x_max":618,"o":"m 297 969 q 240 807 297 883 q 114 693 183 731 l 49 761 q 125 822 89 783 q 161 897 161 860 q 84 928 108 903 q 60 1007 60 954 q 164 1104 60 1104 q 297 969 297 1104 m 618 969 q 561 807 618 883 q 435 693 504 731 l 369 761 q 446 822 410 783 q 482 897 482 860 q 405 928 429 903 q 381 1007 381 954 q 485 1104 381 1104 q 618 969 618 1104 z "},"„":{"ha":642,"x_min":58,"x_max":585,"o":"m 282 50 q 233 -99 282 -32 q 117 -201 183 -165 l 58 -144 q 158 -15 158 -82 q 81 14 104 -10 q 58 88 58 38 q 161 185 58 185 q 282 50 282 185 m 585 50 q 535 -99 585 -32 q 419 -201 486 -165 l 361 -144 q 461 -15 461 -82 q 384 14 407 -10 q 361 88 361 38 q 464 185 361 185 q 585 50 585 185 z "},"•":{"ha":594,"x_min":104,"x_max":490,"o":"m 307 647 q 364 647 307 647 q 456 602 421 647 q 490 458 490 557 q 444 324 490 358 q 291 289 397 289 q 144 328 185 289 q 104 461 104 368 q 149 601 104 554 q 307 647 193 647 z "},"…":{"ha":1038,"x_min":60,"x_max":978,"o":"m 524 207 q 560 207 524 207 q 616 179 596 207 q 636 92 636 151 q 607 10 636 33 q 517 -14 578 -14 q 429 8 457 -14 q 401 90 401 31 q 427 178 401 150 q 524 207 453 207 m 183 207 q 218 207 183 207 q 274 179 254 207 q 294 92 294 151 q 265 10 294 33 q 176 -14 236 -14 q 88 8 115 -14 q 60 90 60 31 q 85 178 60 150 q 183 207 111 207 m 866 207 q 902 207 866 207 q 958 179 938 207 q 978 92 978 151 q 949 10 978 33 q 859 -14 919 -14 q 771 8 799 -14 q 743 90 743 31 q 769 178 743 150 q 866 207 794 207 z "},"‹":{"ha":442,"x_min":54,"x_max":353,"o":"m 290 54 l 54 336 l 290 618 q 317 592 299 608 q 353 540 353 561 q 342 500 353 518 l 239 336 l 342 172 q 353 138 353 157 q 345 108 353 119 q 315 76 338 96 q 290 54 293 57 z "},"›":{"ha":442,"x_min":89,"x_max":388,"o":"m 388 336 l 151 54 q 131 73 144 61 q 110 92 117 85 q 89 136 89 115 q 100 172 89 157 l 203 336 l 100 500 q 89 535 89 518 q 98 564 89 551 q 125 592 107 576 q 151 618 143 608 l 388 336 z "},"⁄":{"ha":226,"x_min":-247,"x_max":474,"o":"m 338 1014 l 474 1014 l -111 0 l -247 0 l 338 1014 z "},"⁰":{"ha":701,"x_min":44,"x_max":657,"o":"m 358 1014 q 431 1014 358 1014 q 580 928 503 1014 q 657 705 657 842 q 572 469 657 568 q 343 369 488 369 q 122 457 199 369 q 44 681 44 544 q 129 916 44 818 q 358 1014 214 1014 m 360 478 q 401 478 360 478 q 481 539 442 478 q 519 697 519 600 q 470 849 519 793 q 340 906 421 906 q 220 847 258 906 q 182 690 182 788 q 231 535 182 592 q 360 478 279 478 z "},"⁴":{"ha":614,"x_min":26,"x_max":572,"o":"m 572 626 l 572 522 l 481 522 l 481 383 l 351 383 l 351 522 l 64 522 l 26 597 l 329 1014 l 415 946 l 199 626 l 351 626 l 351 775 l 481 775 l 481 626 l 572 626 z "},"⁵":{"ha":472,"x_min":14,"x_max":450,"o":"m 426 1007 l 426 896 l 207 896 l 192 771 l 276 763 q 450 575 450 746 q 381 426 450 482 q 212 369 313 369 q 14 411 111 369 l 39 494 q 197 471 138 471 q 285 497 257 471 q 313 560 313 524 q 219 661 313 653 l 64 675 l 88 1007 l 426 1007 z "},"⁶":{"ha":554,"x_min":44,"x_max":529,"o":"m 324 794 q 370 794 324 794 q 473 740 417 794 q 529 588 529 686 q 463 429 529 489 q 276 369 396 369 q 100 441 156 369 q 44 615 44 513 q 147 902 44 790 q 460 1014 250 1014 l 460 921 q 278 869 347 921 q 186 724 208 818 q 324 794 231 794 m 290 694 q 181 588 181 694 q 210 501 181 532 q 292 471 239 471 q 369 502 344 471 q 394 585 394 533 q 290 694 394 694 z "},"⁷":{"ha":483,"x_min":33,"x_max":481,"o":"m 188 350 l 58 404 q 217 676 121 504 q 325 899 313 849 l 178 899 q 151 894 158 899 q 142 874 143 890 l 136 817 l 43 817 l 33 1007 l 481 1007 l 481 978 q 451 867 481 925 l 188 350 z "},"⁸":{"ha":536,"x_min":29,"x_max":507,"o":"m 197 713 l 281 678 q 251 658 274 672 q 222 639 229 644 q 200 620 215 633 q 179 597 185 607 q 164 540 164 571 q 282 463 164 463 q 348 481 324 463 q 372 532 372 500 q 358 567 372 553 q 333 590 343 582 q 307 608 324 599 q 279 626 307 608 q 232 655 253 643 q 183 684 211 667 q 144 709 156 701 q 113 734 133 717 q 83 767 93 751 q 60 856 60 808 q 121 969 60 931 q 276 1008 182 1008 q 425 972 371 1008 q 479 872 479 936 q 414 751 479 799 q 343 703 400 740 l 251 732 q 274 749 256 736 q 299 767 293 761 q 319 785 306 772 q 339 807 333 797 q 354 861 354 833 q 325 902 354 889 q 254 915 296 915 q 189 872 189 915 q 224 800 189 829 q 346 729 258 771 q 467 643 428 683 q 507 532 507 603 q 435 415 507 461 q 256 369 363 369 q 90 409 150 369 q 29 526 29 449 q 83 642 29 597 q 197 713 121 671 z "},"⁹":{"ha":554,"x_min":25,"x_max":510,"o":"m 231 582 q 184 582 231 582 q 81 638 138 582 q 25 794 25 694 q 92 954 25 894 q 278 1014 158 1014 q 454 942 399 1014 q 510 768 510 871 q 407 474 510 588 q 99 361 304 361 l 94 454 q 276 506 206 454 q 368 653 346 558 q 231 582 324 582 m 264 682 q 374 796 374 682 q 344 882 374 851 q 263 913 315 913 q 185 881 210 913 q 160 799 160 850 q 264 682 160 682 z "},"ⁿ":{"ha":539,"x_min":39,"x_max":506,"o":"m 506 601 l 347 601 l 347 865 q 331 913 347 896 q 285 929 314 929 q 197 879 224 929 l 197 703 q 201 680 197 686 q 217 672 204 674 l 260 667 l 260 601 l 39 601 l 39 667 l 78 672 q 93 679 90 674 q 96 703 96 685 l 96 913 q 78 944 96 943 l 39 950 l 39 1007 l 189 1007 l 197 951 q 317 1014 246 1014 q 418 981 388 1014 q 449 896 449 947 l 449 703 q 467 672 449 674 l 506 667 l 506 601 z "},"₣":{"ha":801,"x_min":67,"x_max":785,"o":"m 67 944 l 785 944 l 775 676 l 658 676 l 649 767 q 634 799 646 792 q 596 807 622 807 l 350 807 l 350 575 l 615 575 l 615 431 l 350 431 l 350 175 q 358 136 350 147 q 392 122 367 125 l 483 111 l 483 0 l 67 0 l 67 110 l 133 122 q 166 138 158 128 q 174 175 174 149 l 174 781 q 165 817 174 806 q 133 831 157 828 l 67 839 l 67 944 m 522 215 l 78 215 l 78 340 l 543 340 l 522 215 z "},"₤":{"ha":842,"x_min":69,"x_max":769,"o":"m 85 478 l 85 585 l 181 585 q 179 629 179 601 q 204 778 179 714 q 265 878 229 843 q 347 933 300 913 q 507 968 424 968 q 719 907 640 968 l 646 750 q 460 817 557 817 q 384 790 410 817 q 358 710 358 763 q 363 585 358 658 l 599 585 l 564 478 l 369 478 q 372 419 369 458 l 553 419 l 518 313 l 375 313 l 375 285 q 294 119 375 186 q 380 156 344 156 q 481 142 415 156 q 575 129 546 129 q 619 142 604 129 q 633 174 633 154 l 633 235 l 753 235 l 769 6 q 615 -14 738 -14 q 460 -1 569 -14 q 288 13 350 13 q 126 -19 225 13 l 69 103 q 156 142 106 108 q 203 233 203 161 q 200 313 203 249 l 85 313 l 85 419 l 192 419 l 188 478 l 85 478 z "},"₧":{"ha":1708,"x_min":72,"x_max":1660,"o":"m 347 810 l 347 493 l 418 493 q 540 521 508 493 q 578 681 578 558 q 426 810 578 810 l 347 810 m 174 171 l 174 767 q 167 801 174 792 q 135 817 160 811 l 72 828 l 72 944 l 439 944 q 681 891 599 944 q 764 692 764 838 q 661 452 764 546 q 422 358 558 358 l 347 358 l 347 171 q 355 134 347 144 q 386 121 363 124 l 472 110 l 472 -1 l 72 -1 l 72 108 l 135 121 q 166 135 158 125 q 174 171 174 144 m 982 636 l 1139 651 l 1139 529 l 982 529 l 982 260 q 998 138 982 176 q 1067 99 1014 99 q 1175 118 1121 99 l 1167 33 q 1093 -1 1143 13 q 997 -14 1043 -14 q 850 44 882 -14 q 818 240 818 101 l 818 529 l 672 529 l 704 614 l 818 631 l 818 735 l 982 769 l 982 636 m 1410 646 q 1636 604 1478 646 l 1628 439 l 1525 439 l 1508 517 q 1395 536 1467 536 q 1324 481 1324 536 q 1354 429 1324 449 q 1473 380 1385 410 q 1610 308 1561 350 q 1660 181 1660 265 q 1583 41 1660 96 q 1390 -14 1506 -14 q 1160 33 1275 -14 l 1171 203 l 1276 203 l 1289 118 q 1383 100 1332 100 q 1465 118 1433 100 q 1496 164 1496 136 q 1476 208 1496 192 q 1435 234 1457 225 q 1368 258 1414 243 q 1208 344 1253 299 q 1163 474 1163 390 q 1233 602 1163 558 q 1410 646 1303 646 z "},"₫":{"ha":813,"x_min":39,"x_max":767,"o":"m 499 190 l 499 525 q 378 564 453 564 q 263 531 303 564 q 228 451 240 514 q 217 335 217 388 q 360 110 217 110 q 439 135 401 110 q 499 190 476 161 m 382 1083 l 665 1083 l 665 151 q 696 113 665 115 l 767 103 l 767 0 l 518 0 l 507 82 q 319 -14 411 -14 q 114 74 189 -14 q 39 315 39 161 q 133 578 39 468 q 390 688 228 688 q 499 669 422 688 l 499 933 q 468 972 499 969 l 382 981 l 382 1083 m 751 907 l 751 779 l 206 779 l 206 907 l 751 907 m 64 -242 l 64 -128 l 767 -128 l 767 -242 l 64 -242 z "},"−":{"ha":731,"x_min":58,"x_max":672,"o":"m 58 253 l 58 400 l 672 400 l 672 253 l 58 253 z "},"ﬁ":{"ha":874,"x_min":42,"x_max":843,"o":"m 143 671 l 143 819 q 227 1024 143 951 q 431 1097 311 1097 q 739 1040 610 1097 l 717 822 l 567 822 l 544 947 q 408 969 469 969 q 310 893 310 969 l 310 674 l 742 674 l 742 164 q 747 124 742 133 q 774 113 753 115 l 843 103 l 843 0 l 481 0 l 481 103 l 543 113 q 569 124 564 115 q 575 164 575 133 l 575 503 q 569 544 575 533 q 543 556 564 554 l 476 561 l 310 561 l 310 151 q 340 113 310 115 l 429 103 l 429 0 l 42 0 l 42 103 l 111 113 q 138 125 132 115 q 143 164 143 135 l 143 561 l 49 561 l 49 660 l 143 671 z "},"ﬂ":{"ha":878,"x_min":42,"x_max":843,"o":"m 742 1042 l 742 151 q 772 113 742 115 l 843 103 l 843 0 l 481 0 l 481 103 l 544 113 q 569 124 563 115 q 575 151 575 132 l 575 935 q 399 969 489 969 q 310 893 310 969 l 310 676 l 475 690 l 475 561 l 310 561 l 310 151 q 340 113 310 115 l 429 103 l 429 0 l 42 0 l 42 103 l 111 113 q 136 124 129 115 q 143 151 143 132 l 143 561 l 49 561 l 49 660 l 143 671 l 143 819 q 225 1023 143 949 q 440 1097 307 1097 q 742 1042 619 1097 z "}}}
